%TF.GenerationSoftware,KiCad,Pcbnew,10.0.3-10.0.3~ubuntu24.04.1*%
%TF.CreationDate,2026-05-24T20:10:34+02:00*%
%TF.ProjectId,pen_plotterV2,70656e5f-706c-46f7-9474-657256322e6b,rev?*%
%TF.SameCoordinates,Original*%
%TF.FileFunction,Copper,L2,Bot*%
%TF.FilePolarity,Positive*%
%FSLAX46Y46*%
G04 Gerber Fmt 4.6, Leading zero omitted, Abs format (unit mm)*
G04 Created by KiCad (PCBNEW 10.0.3-10.0.3~ubuntu24.04.1) date 2026-05-24 20:10:34*
%MOMM*%
%LPD*%
G01*
G04 APERTURE LIST*
G04 Aperture macros list*
%AMRoundRect*
0 Rectangle with rounded corners*
0 $1 Rounding radius*
0 $2 $3 $4 $5 $6 $7 $8 $9 X,Y pos of 4 corners*
0 Add a 4 corners polygon primitive as box body*
4,1,4,$2,$3,$4,$5,$6,$7,$8,$9,$2,$3,0*
0 Add four circle primitives for the rounded corners*
1,1,$1+$1,$2,$3*
1,1,$1+$1,$4,$5*
1,1,$1+$1,$6,$7*
1,1,$1+$1,$8,$9*
0 Add four rect primitives between the rounded corners*
20,1,$1+$1,$2,$3,$4,$5,0*
20,1,$1+$1,$4,$5,$6,$7,0*
20,1,$1+$1,$6,$7,$8,$9,0*
20,1,$1+$1,$8,$9,$2,$3,0*%
G04 Aperture macros list end*
%TA.AperFunction,ComponentPad*%
%ADD10C,1.600000*%
%TD*%
%TA.AperFunction,ComponentPad*%
%ADD11RoundRect,0.250000X0.550000X-0.550000X0.550000X0.550000X-0.550000X0.550000X-0.550000X-0.550000X0*%
%TD*%
%TA.AperFunction,ComponentPad*%
%ADD12C,1.700000*%
%TD*%
%TA.AperFunction,ComponentPad*%
%ADD13R,1.500000X1.500000*%
%TD*%
%TA.AperFunction,ComponentPad*%
%ADD14C,2.000000*%
%TD*%
%TA.AperFunction,ComponentPad*%
%ADD15R,2.000000X2.000000*%
%TD*%
%TA.AperFunction,ComponentPad*%
%ADD16R,1.700000X1.700000*%
%TD*%
%TA.AperFunction,ComponentPad*%
%ADD17C,1.200000*%
%TD*%
%TA.AperFunction,ComponentPad*%
%ADD18RoundRect,0.250001X1.149999X1.149999X-1.149999X1.149999X-1.149999X-1.149999X1.149999X-1.149999X0*%
%TD*%
%TA.AperFunction,ComponentPad*%
%ADD19C,2.800000*%
%TD*%
%TA.AperFunction,ComponentPad*%
%ADD20R,1.300000X1.300000*%
%TD*%
%TA.AperFunction,ComponentPad*%
%ADD21C,1.300000*%
%TD*%
%TA.AperFunction,ViaPad*%
%ADD22C,0.700000*%
%TD*%
%TA.AperFunction,ViaPad*%
%ADD23C,0.900000*%
%TD*%
%TA.AperFunction,Conductor*%
%ADD24C,0.400000*%
%TD*%
%TA.AperFunction,Conductor*%
%ADD25C,0.600000*%
%TD*%
%TA.AperFunction,Conductor*%
%ADD26C,0.200000*%
%TD*%
G04 APERTURE END LIST*
D10*
%TO.P,D1,2,A_2*%
%TO.N,Net-(BZ1--)*%
X125365000Y-108805000D03*
D11*
%TO.P,D1,1,K_1*%
%TO.N,Net-(BZ1-+)*%
X125365000Y-116425000D03*
%TD*%
D10*
%TO.P,R6,2*%
%TO.N,+5V*%
X201310000Y-101160000D03*
%TO.P,R6,1*%
%TO.N,/LcdCLK*%
X201310000Y-91000000D03*
%TD*%
%TO.P,R5,2*%
%TO.N,/LcdSDA*%
X198060000Y-91000000D03*
%TO.P,R5,1*%
%TO.N,+5V*%
X198060000Y-101160000D03*
%TD*%
D12*
%TO.P,U4,16,~{EN}_16*%
%TO.N,/~{EN}stp*%
X90260000Y-98000000D03*
%TO.P,U4,15,MS1_15*%
%TO.N,GND*%
X92800000Y-98000000D03*
%TO.P,U4,14,MS2_14*%
%TO.N,+3V3*%
X95340000Y-98000000D03*
%TO.P,U4,13*%
%TO.N,N/C*%
X97880000Y-98000000D03*
%TO.P,U4,12,UART_12*%
%TO.N,/UART*%
X100420000Y-98000000D03*
%TO.P,U4,11*%
%TO.N,N/C*%
X102960000Y-98000000D03*
%TO.P,U4,10,STP_10*%
%TO.N,/STP2*%
X105500000Y-98000000D03*
%TO.P,U4,9,DIR_9*%
%TO.N,/DIR2*%
X108040000Y-98000000D03*
%TO.P,U4,8,VM_8*%
%TO.N,+24V*%
X90260000Y-85300000D03*
%TO.P,U4,7,GND_7*%
%TO.N,GND*%
X92800000Y-85300000D03*
%TO.P,U4,6,2B_6*%
%TO.N,Net-(J3-Pin_4)*%
X95340000Y-85300000D03*
%TO.P,U4,5,2A_5*%
%TO.N,Net-(J3-Pin_2)*%
X97880000Y-85300000D03*
%TO.P,U4,4,1A_4*%
%TO.N,Net-(J3-Pin_3)*%
X100420000Y-85300000D03*
%TO.P,U4,3,1B_3*%
%TO.N,Net-(J3-Pin_1)*%
X102960000Y-85300000D03*
%TO.P,U4,2,VDD_2*%
%TO.N,+3V3*%
X105500000Y-85300000D03*
D13*
%TO.P,U4,1,GND_1*%
%TO.N,GND*%
X108040000Y-85300000D03*
%TD*%
D14*
%TO.P,BZ1,2,-_2*%
%TO.N,Net-(BZ1--)*%
X116830000Y-108700000D03*
D15*
%TO.P,BZ1,1,+_1*%
%TO.N,Net-(BZ1-+)*%
X116830000Y-116300000D03*
%TD*%
D12*
%TO.P,J2,4,Pin_4_4*%
%TO.N,Net-(J2-Pin_4)*%
X95410000Y-101500000D03*
%TO.P,J2,3,Pin_3_3*%
%TO.N,Net-(J2-Pin_3)*%
X97950000Y-101500000D03*
%TO.P,J2,2,Pin_2_2*%
%TO.N,Net-(J2-Pin_2)*%
X100490000Y-101500000D03*
D16*
%TO.P,J2,1,Pin_1_1*%
%TO.N,Net-(J2-Pin_1)*%
X103030000Y-101500000D03*
%TD*%
D17*
%TO.P,C4,2*%
%TO.N,GND*%
X125000000Y-100500000D03*
%TO.P,C4,1*%
%TO.N,/RotDT*%
X127000000Y-100500000D03*
%TD*%
%TO.P,C3,2*%
%TO.N,GND*%
X130000000Y-103500000D03*
%TO.P,C3,1*%
%TO.N,/RotCLK*%
X132000000Y-103500000D03*
%TD*%
%TO.P,C5,2*%
%TO.N,GND*%
X130000000Y-98000000D03*
%TO.P,C5,1*%
%TO.N,/RotSW*%
X132000000Y-98000000D03*
%TD*%
D12*
%TO.P,J5,5,Pin_5_5*%
%TO.N,/RotCLK*%
X136000000Y-104080000D03*
%TO.P,J5,4,Pin_4_4*%
%TO.N,/RotDT*%
X136000000Y-101540000D03*
%TO.P,J5,3,Pin_3_3*%
%TO.N,/RotSW*%
X136000000Y-99000000D03*
%TO.P,J5,2,Pin_2_2*%
%TO.N,+3V3*%
X136000000Y-96460000D03*
D16*
%TO.P,J5,1,Pin_1_1*%
%TO.N,GND*%
X136000000Y-93920000D03*
%TD*%
D10*
%TO.P,R4,2*%
%TO.N,Net-(BZ1-+)*%
X128010000Y-116250000D03*
%TO.P,R4,1*%
%TO.N,+5V*%
X138170000Y-116250000D03*
%TD*%
%TO.P,R3,1*%
%TO.N,/Buzzer*%
X138250000Y-113000000D03*
%TO.P,R3,2*%
%TO.N,Net-(Q2-B)*%
X128090000Y-113000000D03*
%TD*%
D16*
%TO.P,J3,1,Pin_1_1*%
%TO.N,Net-(J3-Pin_1)*%
X102970000Y-81750000D03*
D12*
%TO.P,J3,2,Pin_2_2*%
%TO.N,Net-(J3-Pin_2)*%
X100430000Y-81750000D03*
%TO.P,J3,3,Pin_3_3*%
%TO.N,Net-(J3-Pin_3)*%
X97890000Y-81750000D03*
%TO.P,J3,4,Pin_4_4*%
%TO.N,Net-(J3-Pin_4)*%
X95350000Y-81750000D03*
%TD*%
D17*
%TO.P,C2,1*%
%TO.N,+24V*%
X86250000Y-101000000D03*
%TO.P,C2,2*%
%TO.N,GND*%
X84250000Y-101000000D03*
%TD*%
D18*
%TO.P,J1,1,Pin_1_1*%
%TO.N,+24V*%
X192250000Y-78282500D03*
D19*
%TO.P,J1,2,Pin_2_2*%
%TO.N,GND*%
X187250000Y-78282500D03*
%TD*%
D17*
%TO.P,C1,1*%
%TO.N,+24V*%
X86250000Y-90500000D03*
%TO.P,C1,2*%
%TO.N,GND*%
X84250000Y-90500000D03*
%TD*%
D13*
%TO.P,U2,1,-IN_1*%
%TO.N,GND*%
X167000000Y-87750000D03*
D12*
X169750000Y-87750000D03*
%TO.P,U2,2,+IN_2*%
%TO.N,+24V*%
X177750000Y-87750000D03*
X180500000Y-87750000D03*
%TO.P,U2,3,-Out_3*%
%TO.N,GND*%
X167000000Y-68750000D03*
X169750000Y-68750000D03*
%TO.P,U2,4,+Out_4*%
%TO.N,+5V*%
X177750000Y-68750000D03*
X180500000Y-68750000D03*
%TD*%
D13*
%TO.P,U1,1,EN_1*%
%TO.N,unconnected-(U1-EN-Pad1)*%
X151690000Y-117250000D03*
D12*
%TO.P,U1,2,VP_2*%
%TO.N,unconnected-(U1-VP-Pad2)*%
X154230000Y-117250000D03*
%TO.P,U1,3,VN_3*%
%TO.N,unconnected-(U1-VN-Pad3)*%
X156770000Y-117250000D03*
%TO.P,U1,4,D34_4*%
%TO.N,/Buzzer*%
X159310000Y-117250000D03*
%TO.P,U1,5,D35_5*%
%TO.N,/STP2*%
X161850000Y-117250000D03*
%TO.P,U1,6,D32_6*%
%TO.N,/DIR2*%
X164390000Y-117250000D03*
%TO.P,U1,7,D33_7*%
%TO.N,/DIR1*%
X166930000Y-117250000D03*
%TO.P,U1,8,D25_8*%
%TO.N,/STP1*%
X169470000Y-117250000D03*
%TO.P,U1,9,D26_9*%
%TO.N,/~{EN}stp*%
X172010000Y-117250000D03*
%TO.P,U1,10,D27_10*%
%TO.N,/RotCLK*%
X174550000Y-117250000D03*
%TO.P,U1,11,D14_11*%
%TO.N,/RotDT*%
X177090000Y-117250000D03*
%TO.P,U1,12,D12_12*%
%TO.N,/RotSW*%
X179630000Y-117250000D03*
%TO.P,U1,13,D13_13*%
%TO.N,unconnected-(U1-D13-Pad13)*%
X182170000Y-117250000D03*
%TO.P,U1,14,GND_14*%
%TO.N,GND*%
X184710000Y-117250000D03*
%TO.P,U1,15,VIN_15*%
%TO.N,+5V*%
X187250000Y-117250000D03*
%TO.P,U1,16,D23_16*%
%TO.N,unconnected-(U1-D23-Pad16)*%
X151690000Y-92250000D03*
%TO.P,U1,17,D22_17*%
%TO.N,/LcdCLK*%
X154230000Y-92250000D03*
%TO.P,U1,18,TX0_18*%
%TO.N,unconnected-(U1-TX0-Pad18)*%
X156770000Y-92250000D03*
%TO.P,U1,19,RX0_19*%
%TO.N,unconnected-(U1-RX0-Pad19)*%
X159310000Y-92250000D03*
%TO.P,U1,20,D21_20*%
%TO.N,/LcdSDA*%
X161850000Y-92250000D03*
%TO.P,U1,23,D5_23*%
%TO.N,unconnected-(U1-D5-Pad23)*%
X169470000Y-92250000D03*
%TO.P,U1,24,D17_24*%
%TO.N,Net-(U1-D17)*%
X172010000Y-92250000D03*
%TO.P,U1,25,D16_25*%
%TO.N,/UART*%
X174550000Y-92250000D03*
%TO.P,U1,26,D4_26*%
%TO.N,/PWMservo*%
X177090000Y-92250000D03*
%TO.P,U1,27,D2_27*%
%TO.N,unconnected-(U1-D2-Pad27)*%
X179630000Y-92250000D03*
%TO.P,U1,28,D15_28*%
%TO.N,unconnected-(U1-D15-Pad28)*%
X182170000Y-92250000D03*
%TO.P,U1,29,GND_29*%
%TO.N,GND*%
X184710000Y-92250000D03*
%TO.P,U1,30,3v3_30*%
%TO.N,+3V3*%
X187250000Y-92250000D03*
%TD*%
D16*
%TO.P,J7,1,Pin_1_1*%
%TO.N,/PWMservo*%
X184420000Y-87500000D03*
D12*
%TO.P,J7,2,Pin_2_2*%
%TO.N,+5V*%
X186960000Y-87500000D03*
%TO.P,J7,3,Pin_3_3*%
%TO.N,GND*%
X189500000Y-87500000D03*
%TD*%
D16*
%TO.P,J6,1,Pin_1_1*%
%TO.N,GND*%
X193500000Y-87500000D03*
D12*
%TO.P,J6,2,Pin_2_2*%
%TO.N,+5V*%
X196040000Y-87500000D03*
%TO.P,J6,3,Pin_3_3*%
%TO.N,/LcdSDA*%
X198580000Y-87500000D03*
%TO.P,J6,4,Pin_4_4*%
%TO.N,/LcdCLK*%
X201120000Y-87500000D03*
%TD*%
D10*
%TO.P,R1,1*%
%TO.N,Net-(U1-D17)*%
X172000000Y-96500000D03*
%TO.P,R1,2*%
%TO.N,/UART*%
X161840000Y-96500000D03*
%TD*%
D13*
%TO.P,U3,1,GND_1*%
%TO.N,GND*%
X108080000Y-105000000D03*
D12*
%TO.P,U3,2,VDD_2*%
%TO.N,+3V3*%
X105540000Y-105000000D03*
%TO.P,U3,3,1B_3*%
%TO.N,Net-(J2-Pin_1)*%
X103000000Y-105000000D03*
%TO.P,U3,4,1A_4*%
%TO.N,Net-(J2-Pin_3)*%
X100460000Y-105000000D03*
%TO.P,U3,5,2A_5*%
%TO.N,Net-(J2-Pin_2)*%
X97920000Y-105000000D03*
%TO.P,U3,6,2B_6*%
%TO.N,Net-(J2-Pin_4)*%
X95380000Y-105000000D03*
%TO.P,U3,7,GND_7*%
%TO.N,GND*%
X92840000Y-105000000D03*
%TO.P,U3,8,VM_8*%
%TO.N,+24V*%
X90300000Y-105000000D03*
%TO.P,U3,9,DIR_9*%
%TO.N,/DIR1*%
X108080000Y-117700000D03*
%TO.P,U3,10,STP_10*%
%TO.N,/STP1*%
X105540000Y-117700000D03*
%TO.P,U3,11*%
%TO.N,N/C*%
X103000000Y-117700000D03*
%TO.P,U3,12,UART_12*%
%TO.N,/UART*%
X100460000Y-117700000D03*
%TO.P,U3,13*%
%TO.N,N/C*%
X97920000Y-117700000D03*
%TO.P,U3,14,MS2_14*%
%TO.N,GND*%
X95380000Y-117700000D03*
%TO.P,U3,15,MS1_15*%
X92840000Y-117700000D03*
%TO.P,U3,16,~{EN}_16*%
%TO.N,/~{EN}stp*%
X90300000Y-117700000D03*
%TD*%
D20*
%TO.P,Q2,1,E_1*%
%TO.N,GND*%
X130770000Y-108640000D03*
D21*
%TO.P,Q2,2,B_2*%
%TO.N,Net-(Q2-B)*%
X129500000Y-109910000D03*
%TO.P,Q2,3,C_3*%
%TO.N,Net-(BZ1--)*%
X128230000Y-108640000D03*
%TD*%
D22*
%TO.N,GND*%
X182500000Y-87000000D03*
X180000000Y-80000000D03*
X180000000Y-75000000D03*
X120000000Y-115000000D03*
X120000000Y-110000000D03*
X135000000Y-110000000D03*
X130000000Y-115000000D03*
X135000000Y-115000000D03*
X125000000Y-105000000D03*
X120000000Y-105000000D03*
X190000000Y-90000000D03*
X145000000Y-100000000D03*
X141000000Y-100000000D03*
X150000000Y-100000000D03*
X115000000Y-105000000D03*
D23*
%TO.N,+5V*%
X183500000Y-80000000D03*
X149750000Y-117500000D03*
D22*
%TO.N,/LcdCLK*%
X154230000Y-97250000D03*
%TO.N,GND*%
X115000000Y-80000000D03*
X180000000Y-115000000D03*
X195000000Y-105000000D03*
X100000000Y-99750000D03*
X140000000Y-115000000D03*
X100000000Y-90000000D03*
X200000000Y-95000000D03*
X195000000Y-115000000D03*
X125000000Y-94000000D03*
X85000000Y-115000000D03*
X190000000Y-105000000D03*
X175000000Y-85000000D03*
X145000000Y-94000000D03*
X160000000Y-110000000D03*
X135000000Y-100000000D03*
X170000000Y-75000000D03*
X180000000Y-105000000D03*
X141000000Y-94000000D03*
X185000000Y-115000000D03*
X95000000Y-99750000D03*
X90000000Y-100000000D03*
X175000000Y-70000000D03*
X170000000Y-115000000D03*
X195000000Y-75000000D03*
X190000000Y-95000000D03*
X155000000Y-100000000D03*
X170000000Y-95000000D03*
X185000000Y-110000000D03*
X105000000Y-90000000D03*
X195000000Y-90000000D03*
X90000000Y-115000000D03*
X175000000Y-105000000D03*
X170000000Y-80000000D03*
X130000000Y-100000000D03*
X110000000Y-105000000D03*
X185000000Y-105000000D03*
X120000000Y-100000000D03*
X105000000Y-94000000D03*
X95000000Y-95000000D03*
X140000000Y-110000000D03*
X110000000Y-85000000D03*
X200000000Y-105000000D03*
X150000000Y-105000000D03*
X195000000Y-110000000D03*
X190000000Y-110000000D03*
X165000000Y-110000000D03*
X115000000Y-90000000D03*
X140000000Y-105500000D03*
X150000000Y-115000000D03*
X85000000Y-110000000D03*
X175000000Y-110000000D03*
X190000000Y-115000000D03*
X85000000Y-80000000D03*
X110000000Y-90000000D03*
X165000000Y-115000000D03*
X115000000Y-94000000D03*
X195000000Y-80000000D03*
X145000000Y-110000000D03*
X95000000Y-115000000D03*
X95000000Y-90000000D03*
X90000000Y-110000000D03*
X175000000Y-90000000D03*
X120000000Y-94000000D03*
X90000000Y-90000000D03*
X160000000Y-105000000D03*
X195000000Y-100000000D03*
X100000000Y-115000000D03*
X110000000Y-115000000D03*
X95000000Y-110000000D03*
X190000000Y-75000000D03*
X185000000Y-75000000D03*
X200000000Y-75000000D03*
X84000000Y-95000000D03*
X115000000Y-115000000D03*
X105000000Y-115000000D03*
X130000000Y-94000000D03*
X175000000Y-75000000D03*
X90000000Y-95000000D03*
X90000000Y-80000000D03*
X120000000Y-80000000D03*
X100000000Y-110000000D03*
X145000000Y-115000000D03*
X170000000Y-70000000D03*
X165000000Y-95000000D03*
X170000000Y-85000000D03*
X115000000Y-100000000D03*
X115000000Y-110000000D03*
X175000000Y-80000000D03*
X200000000Y-110000000D03*
X110000000Y-110000000D03*
X185000000Y-95000000D03*
X150000000Y-110000000D03*
X100000000Y-95000000D03*
X185000000Y-80000000D03*
X180000000Y-95000000D03*
X105000000Y-110000000D03*
X110000000Y-94000000D03*
X84000000Y-100000000D03*
X155000000Y-105000000D03*
X180000000Y-110000000D03*
X145000000Y-105000000D03*
X155000000Y-115000000D03*
X120000000Y-85000000D03*
%TO.N,/LcdSDA*%
X159157169Y-97342831D03*
D23*
%TO.N,+3V3*%
X187250000Y-94250000D03*
X102250000Y-94500000D03*
X104250000Y-96500000D03*
%TD*%
%TO.N,+5V*%
D24*
X183500000Y-80000000D02*
X186960000Y-83460000D01*
X186960000Y-83460000D02*
X186960000Y-87500000D01*
%TO.N,Net-(J3-Pin_2)*%
D25*
X97880000Y-85300000D02*
X97880000Y-84300000D01*
X97880000Y-84300000D02*
X100430000Y-81750000D01*
%TO.N,Net-(J2-Pin_2)*%
X97920000Y-105000000D02*
X97920000Y-104070000D01*
X97920000Y-104070000D02*
X100490000Y-101500000D01*
%TO.N,+3V3*%
D24*
X104250000Y-96500000D02*
X102250000Y-94500000D01*
%TO.N,+5V*%
X185750000Y-118750000D02*
X187250000Y-117250000D01*
X149750000Y-117500000D02*
X151000000Y-118750000D01*
X151000000Y-118750000D02*
X185750000Y-118750000D01*
%TO.N,/LcdCLK*%
D26*
X154230000Y-97250000D02*
X154230000Y-92250000D01*
%TO.N,/LcdSDA*%
X159157169Y-97342831D02*
X159157169Y-94942831D01*
X159157169Y-94942831D02*
X161850000Y-92250000D01*
%TO.N,+3V3*%
D24*
X187250000Y-92250000D02*
X187250000Y-94250000D01*
%TD*%
%TA.AperFunction,Conductor*%
%TO.N,GND*%
G36*
X177278813Y-67270185D02*
G01*
X177324568Y-67322989D01*
X177334512Y-67392147D01*
X177305487Y-67455703D01*
X177250093Y-67492430D01*
X177231588Y-67498443D01*
X177231585Y-67498444D01*
X177042179Y-67594951D01*
X176870213Y-67719890D01*
X176719890Y-67870213D01*
X176594951Y-68042179D01*
X176498444Y-68231585D01*
X176432753Y-68433760D01*
X176399500Y-68643713D01*
X176399500Y-68856286D01*
X176432753Y-69066239D01*
X176498444Y-69268414D01*
X176594951Y-69457820D01*
X176719890Y-69629786D01*
X176870213Y-69780109D01*
X177042179Y-69905048D01*
X177042181Y-69905049D01*
X177042184Y-69905051D01*
X177231588Y-70001557D01*
X177433757Y-70067246D01*
X177643713Y-70100500D01*
X177643714Y-70100500D01*
X177856286Y-70100500D01*
X177856287Y-70100500D01*
X178066243Y-70067246D01*
X178268412Y-70001557D01*
X178457816Y-69905051D01*
X178479789Y-69889086D01*
X178629786Y-69780109D01*
X178629788Y-69780106D01*
X178629792Y-69780104D01*
X178780104Y-69629792D01*
X178780106Y-69629788D01*
X178780109Y-69629786D01*
X178905048Y-69457820D01*
X178905047Y-69457820D01*
X178905051Y-69457816D01*
X179001557Y-69268412D01*
X179007069Y-69251446D01*
X179046505Y-69193771D01*
X179110864Y-69166572D01*
X179179710Y-69178486D01*
X179231187Y-69225730D01*
X179242931Y-69251447D01*
X179248443Y-69268413D01*
X179344951Y-69457820D01*
X179469890Y-69629786D01*
X179620213Y-69780109D01*
X179792179Y-69905048D01*
X179792181Y-69905049D01*
X179792184Y-69905051D01*
X179981588Y-70001557D01*
X180183757Y-70067246D01*
X180393713Y-70100500D01*
X180393714Y-70100500D01*
X180606286Y-70100500D01*
X180606287Y-70100500D01*
X180816243Y-70067246D01*
X181018412Y-70001557D01*
X181207816Y-69905051D01*
X181229789Y-69889086D01*
X181379786Y-69780109D01*
X181379788Y-69780106D01*
X181379792Y-69780104D01*
X181530104Y-69629792D01*
X181530106Y-69629788D01*
X181530109Y-69629786D01*
X181655048Y-69457820D01*
X181655047Y-69457820D01*
X181655051Y-69457816D01*
X181751557Y-69268412D01*
X181817246Y-69066243D01*
X181850500Y-68856287D01*
X181850500Y-68643713D01*
X181817246Y-68433757D01*
X181751557Y-68231588D01*
X181655051Y-68042184D01*
X181655049Y-68042181D01*
X181655048Y-68042179D01*
X181530109Y-67870213D01*
X181379786Y-67719890D01*
X181207820Y-67594951D01*
X181018414Y-67498444D01*
X181018413Y-67498443D01*
X181018412Y-67498443D01*
X180999907Y-67492430D01*
X180942232Y-67452994D01*
X180915034Y-67388635D01*
X180926949Y-67319789D01*
X180974193Y-67268313D01*
X181038226Y-67250500D01*
X182125500Y-67250500D01*
X182192539Y-67270185D01*
X182238294Y-67322989D01*
X182249500Y-67374500D01*
X182249500Y-73565891D01*
X182283608Y-73693187D01*
X182316554Y-73750250D01*
X182349500Y-73807314D01*
X182442686Y-73900500D01*
X182556814Y-73966392D01*
X182684108Y-74000500D01*
X203125500Y-74000500D01*
X203192539Y-74020185D01*
X203238294Y-74072989D01*
X203249500Y-74124500D01*
X203249500Y-119375500D01*
X203229815Y-119442539D01*
X203177011Y-119488294D01*
X203125500Y-119499500D01*
X186290520Y-119499500D01*
X186223481Y-119479815D01*
X186177726Y-119427011D01*
X186167782Y-119357853D01*
X186196807Y-119294297D01*
X186202839Y-119287819D01*
X186880148Y-118610507D01*
X186941471Y-118577022D01*
X186987227Y-118575715D01*
X187055868Y-118586586D01*
X187143713Y-118600500D01*
X187143714Y-118600500D01*
X187356286Y-118600500D01*
X187356287Y-118600500D01*
X187566243Y-118567246D01*
X187768412Y-118501557D01*
X187957816Y-118405051D01*
X188035984Y-118348259D01*
X188129786Y-118280109D01*
X188129788Y-118280106D01*
X188129792Y-118280104D01*
X188280104Y-118129792D01*
X188280106Y-118129788D01*
X188280109Y-118129786D01*
X188405048Y-117957820D01*
X188405047Y-117957820D01*
X188405051Y-117957816D01*
X188501557Y-117768412D01*
X188567246Y-117566243D01*
X188600500Y-117356287D01*
X188600500Y-117143713D01*
X188567246Y-116933757D01*
X188501557Y-116731588D01*
X188405051Y-116542184D01*
X188405049Y-116542181D01*
X188405048Y-116542179D01*
X188280109Y-116370213D01*
X188129790Y-116219894D01*
X188129785Y-116219890D01*
X188004287Y-116128711D01*
X198149500Y-116128711D01*
X198149500Y-116371288D01*
X198172961Y-116549500D01*
X198181162Y-116611789D01*
X198193458Y-116657678D01*
X198243947Y-116846104D01*
X198304455Y-116992182D01*
X198336776Y-117070212D01*
X198458064Y-117280289D01*
X198458066Y-117280292D01*
X198458067Y-117280293D01*
X198605733Y-117472736D01*
X198605739Y-117472743D01*
X198777256Y-117644260D01*
X198777263Y-117644266D01*
X198883127Y-117725498D01*
X198969711Y-117791936D01*
X199179788Y-117913224D01*
X199403900Y-118006054D01*
X199638211Y-118068838D01*
X199818586Y-118092584D01*
X199878711Y-118100500D01*
X199878712Y-118100500D01*
X200121289Y-118100500D01*
X200169388Y-118094167D01*
X200361789Y-118068838D01*
X200596100Y-118006054D01*
X200820212Y-117913224D01*
X201030289Y-117791936D01*
X201222738Y-117644265D01*
X201394265Y-117472738D01*
X201541936Y-117280289D01*
X201663224Y-117070212D01*
X201756054Y-116846100D01*
X201818838Y-116611789D01*
X201850500Y-116371288D01*
X201850500Y-116128712D01*
X201818838Y-115888211D01*
X201756054Y-115653900D01*
X201663224Y-115429788D01*
X201541936Y-115219711D01*
X201394265Y-115027262D01*
X201394260Y-115027256D01*
X201222743Y-114855739D01*
X201222736Y-114855733D01*
X201030293Y-114708067D01*
X201030292Y-114708066D01*
X201030289Y-114708064D01*
X200820212Y-114586776D01*
X200820205Y-114586773D01*
X200596104Y-114493947D01*
X200361785Y-114431161D01*
X200121289Y-114399500D01*
X200121288Y-114399500D01*
X199878712Y-114399500D01*
X199878711Y-114399500D01*
X199638214Y-114431161D01*
X199403895Y-114493947D01*
X199179794Y-114586773D01*
X199179785Y-114586777D01*
X198969706Y-114708067D01*
X198777263Y-114855733D01*
X198777256Y-114855739D01*
X198605739Y-115027256D01*
X198605733Y-115027263D01*
X198458067Y-115219706D01*
X198336777Y-115429785D01*
X198336773Y-115429794D01*
X198243947Y-115653895D01*
X198181161Y-115888214D01*
X198149500Y-116128711D01*
X188004287Y-116128711D01*
X187957820Y-116094951D01*
X187768414Y-115998444D01*
X187768413Y-115998443D01*
X187768412Y-115998443D01*
X187566243Y-115932754D01*
X187566241Y-115932753D01*
X187566240Y-115932753D01*
X187404957Y-115907208D01*
X187356287Y-115899500D01*
X187143713Y-115899500D01*
X187095042Y-115907208D01*
X186933760Y-115932753D01*
X186731585Y-115998444D01*
X186542179Y-116094951D01*
X186370213Y-116219890D01*
X186219890Y-116370213D01*
X186094951Y-116542179D01*
X185998444Y-116731585D01*
X185932753Y-116933760D01*
X185899500Y-117143713D01*
X185899500Y-117356287D01*
X185899499Y-117356287D01*
X185924284Y-117512772D01*
X185915329Y-117582065D01*
X185889492Y-117619850D01*
X185496162Y-118013181D01*
X185434839Y-118046666D01*
X185408481Y-118049500D01*
X183480685Y-118049500D01*
X183413646Y-118029815D01*
X183367891Y-117977011D01*
X183357947Y-117907853D01*
X183370200Y-117869205D01*
X183421557Y-117768412D01*
X183487246Y-117566243D01*
X183520500Y-117356287D01*
X183520500Y-117143713D01*
X183487246Y-116933757D01*
X183421557Y-116731588D01*
X183325051Y-116542184D01*
X183325049Y-116542181D01*
X183325048Y-116542179D01*
X183200109Y-116370213D01*
X183049786Y-116219890D01*
X182877820Y-116094951D01*
X182688414Y-115998444D01*
X182688413Y-115998443D01*
X182688412Y-115998443D01*
X182486243Y-115932754D01*
X182486241Y-115932753D01*
X182486240Y-115932753D01*
X182324957Y-115907208D01*
X182276287Y-115899500D01*
X182063713Y-115899500D01*
X182015042Y-115907208D01*
X181853760Y-115932753D01*
X181651585Y-115998444D01*
X181462179Y-116094951D01*
X181290213Y-116219890D01*
X181139890Y-116370213D01*
X181014949Y-116542182D01*
X181010484Y-116550946D01*
X180962509Y-116601742D01*
X180894688Y-116618536D01*
X180828553Y-116595998D01*
X180789516Y-116550946D01*
X180785050Y-116542182D01*
X180660109Y-116370213D01*
X180509786Y-116219890D01*
X180337820Y-116094951D01*
X180148414Y-115998444D01*
X180148413Y-115998443D01*
X180148412Y-115998443D01*
X179946243Y-115932754D01*
X179946241Y-115932753D01*
X179946240Y-115932753D01*
X179784957Y-115907208D01*
X179736287Y-115899500D01*
X179523713Y-115899500D01*
X179475042Y-115907208D01*
X179313760Y-115932753D01*
X179111585Y-115998444D01*
X178922179Y-116094951D01*
X178750213Y-116219890D01*
X178599890Y-116370213D01*
X178474949Y-116542182D01*
X178470484Y-116550946D01*
X178422509Y-116601742D01*
X178354688Y-116618536D01*
X178288553Y-116595998D01*
X178249516Y-116550946D01*
X178245050Y-116542182D01*
X178120109Y-116370213D01*
X177969786Y-116219890D01*
X177797820Y-116094951D01*
X177608414Y-115998444D01*
X177608413Y-115998443D01*
X177608412Y-115998443D01*
X177406243Y-115932754D01*
X177406241Y-115932753D01*
X177406240Y-115932753D01*
X177244957Y-115907208D01*
X177196287Y-115899500D01*
X176983713Y-115899500D01*
X176935042Y-115907208D01*
X176773760Y-115932753D01*
X176571585Y-115998444D01*
X176382179Y-116094951D01*
X176210213Y-116219890D01*
X176059890Y-116370213D01*
X175934949Y-116542182D01*
X175930484Y-116550946D01*
X175882509Y-116601742D01*
X175814688Y-116618536D01*
X175748553Y-116595998D01*
X175709516Y-116550946D01*
X175705050Y-116542182D01*
X175580109Y-116370213D01*
X175429786Y-116219890D01*
X175257820Y-116094951D01*
X175068414Y-115998444D01*
X175068413Y-115998443D01*
X175068412Y-115998443D01*
X174866243Y-115932754D01*
X174866241Y-115932753D01*
X174866240Y-115932753D01*
X174704957Y-115907208D01*
X174656287Y-115899500D01*
X174443713Y-115899500D01*
X174395042Y-115907208D01*
X174233760Y-115932753D01*
X174031585Y-115998444D01*
X173842179Y-116094951D01*
X173670213Y-116219890D01*
X173519890Y-116370213D01*
X173394949Y-116542182D01*
X173390484Y-116550946D01*
X173342509Y-116601742D01*
X173274688Y-116618536D01*
X173208553Y-116595998D01*
X173169516Y-116550946D01*
X173165050Y-116542182D01*
X173040109Y-116370213D01*
X172889786Y-116219890D01*
X172717820Y-116094951D01*
X172528414Y-115998444D01*
X172528413Y-115998443D01*
X172528412Y-115998443D01*
X172326243Y-115932754D01*
X172326241Y-115932753D01*
X172326240Y-115932753D01*
X172164957Y-115907208D01*
X172116287Y-115899500D01*
X171903713Y-115899500D01*
X171855042Y-115907208D01*
X171693760Y-115932753D01*
X171491585Y-115998444D01*
X171302179Y-116094951D01*
X171130213Y-116219890D01*
X170979890Y-116370213D01*
X170854949Y-116542182D01*
X170850484Y-116550946D01*
X170802509Y-116601742D01*
X170734688Y-116618536D01*
X170668553Y-116595998D01*
X170629516Y-116550946D01*
X170625050Y-116542182D01*
X170500109Y-116370213D01*
X170349786Y-116219890D01*
X170177820Y-116094951D01*
X169988414Y-115998444D01*
X169988413Y-115998443D01*
X169988412Y-115998443D01*
X169786243Y-115932754D01*
X169786241Y-115932753D01*
X169786240Y-115932753D01*
X169624957Y-115907208D01*
X169576287Y-115899500D01*
X169363713Y-115899500D01*
X169315042Y-115907208D01*
X169153760Y-115932753D01*
X168951585Y-115998444D01*
X168762179Y-116094951D01*
X168590213Y-116219890D01*
X168439890Y-116370213D01*
X168314949Y-116542182D01*
X168310484Y-116550946D01*
X168262509Y-116601742D01*
X168194688Y-116618536D01*
X168128553Y-116595998D01*
X168089516Y-116550946D01*
X168085050Y-116542182D01*
X167960109Y-116370213D01*
X167809786Y-116219890D01*
X167637820Y-116094951D01*
X167448414Y-115998444D01*
X167448413Y-115998443D01*
X167448412Y-115998443D01*
X167246243Y-115932754D01*
X167246241Y-115932753D01*
X167246240Y-115932753D01*
X167084957Y-115907208D01*
X167036287Y-115899500D01*
X166823713Y-115899500D01*
X166775042Y-115907208D01*
X166613760Y-115932753D01*
X166411585Y-115998444D01*
X166222179Y-116094951D01*
X166050213Y-116219890D01*
X165899890Y-116370213D01*
X165774949Y-116542182D01*
X165770484Y-116550946D01*
X165722509Y-116601742D01*
X165654688Y-116618536D01*
X165588553Y-116595998D01*
X165549516Y-116550946D01*
X165545050Y-116542182D01*
X165420109Y-116370213D01*
X165269786Y-116219890D01*
X165097820Y-116094951D01*
X164908414Y-115998444D01*
X164908413Y-115998443D01*
X164908412Y-115998443D01*
X164706243Y-115932754D01*
X164706241Y-115932753D01*
X164706240Y-115932753D01*
X164544957Y-115907208D01*
X164496287Y-115899500D01*
X164283713Y-115899500D01*
X164235042Y-115907208D01*
X164073760Y-115932753D01*
X163871585Y-115998444D01*
X163682179Y-116094951D01*
X163510213Y-116219890D01*
X163359890Y-116370213D01*
X163234949Y-116542182D01*
X163230484Y-116550946D01*
X163182509Y-116601742D01*
X163114688Y-116618536D01*
X163048553Y-116595998D01*
X163009516Y-116550946D01*
X163005050Y-116542182D01*
X162880109Y-116370213D01*
X162729786Y-116219890D01*
X162557820Y-116094951D01*
X162368414Y-115998444D01*
X162368413Y-115998443D01*
X162368412Y-115998443D01*
X162166243Y-115932754D01*
X162166241Y-115932753D01*
X162166240Y-115932753D01*
X162004957Y-115907208D01*
X161956287Y-115899500D01*
X161743713Y-115899500D01*
X161695042Y-115907208D01*
X161533760Y-115932753D01*
X161331585Y-115998444D01*
X161142179Y-116094951D01*
X160970213Y-116219890D01*
X160819890Y-116370213D01*
X160694949Y-116542182D01*
X160690484Y-116550946D01*
X160642509Y-116601742D01*
X160574688Y-116618536D01*
X160508553Y-116595998D01*
X160469516Y-116550946D01*
X160465050Y-116542182D01*
X160340109Y-116370213D01*
X160189786Y-116219890D01*
X160017820Y-116094951D01*
X159828414Y-115998444D01*
X159828413Y-115998443D01*
X159828412Y-115998443D01*
X159626243Y-115932754D01*
X159626241Y-115932753D01*
X159626240Y-115932753D01*
X159464957Y-115907208D01*
X159416287Y-115899500D01*
X159203713Y-115899500D01*
X159155042Y-115907208D01*
X158993760Y-115932753D01*
X158791585Y-115998444D01*
X158602179Y-116094951D01*
X158430213Y-116219890D01*
X158279890Y-116370213D01*
X158154949Y-116542182D01*
X158150484Y-116550946D01*
X158102509Y-116601742D01*
X158034688Y-116618536D01*
X157968553Y-116595998D01*
X157929516Y-116550946D01*
X157925050Y-116542182D01*
X157800109Y-116370213D01*
X157649786Y-116219890D01*
X157477820Y-116094951D01*
X157288414Y-115998444D01*
X157288413Y-115998443D01*
X157288412Y-115998443D01*
X157086243Y-115932754D01*
X157086241Y-115932753D01*
X157086240Y-115932753D01*
X156924957Y-115907208D01*
X156876287Y-115899500D01*
X156663713Y-115899500D01*
X156615042Y-115907208D01*
X156453760Y-115932753D01*
X156251585Y-115998444D01*
X156062179Y-116094951D01*
X155890213Y-116219890D01*
X155739890Y-116370213D01*
X155614949Y-116542182D01*
X155610484Y-116550946D01*
X155562509Y-116601742D01*
X155494688Y-116618536D01*
X155428553Y-116595998D01*
X155389516Y-116550946D01*
X155385050Y-116542182D01*
X155260109Y-116370213D01*
X155109786Y-116219890D01*
X154937820Y-116094951D01*
X154748414Y-115998444D01*
X154748413Y-115998443D01*
X154748412Y-115998443D01*
X154546243Y-115932754D01*
X154546241Y-115932753D01*
X154546240Y-115932753D01*
X154384957Y-115907208D01*
X154336287Y-115899500D01*
X154123713Y-115899500D01*
X154075042Y-115907208D01*
X153913760Y-115932753D01*
X153711585Y-115998444D01*
X153522179Y-116094951D01*
X153350213Y-116219890D01*
X153199894Y-116370209D01*
X153199888Y-116370216D01*
X153154192Y-116433111D01*
X153098862Y-116475777D01*
X153029249Y-116481755D01*
X152967454Y-116449149D01*
X152939000Y-116398965D01*
X152936802Y-116399785D01*
X152883797Y-116257671D01*
X152883793Y-116257664D01*
X152797547Y-116142455D01*
X152797544Y-116142452D01*
X152682335Y-116056206D01*
X152682328Y-116056202D01*
X152547482Y-116005908D01*
X152547483Y-116005908D01*
X152487883Y-115999501D01*
X152487881Y-115999500D01*
X152487873Y-115999500D01*
X152487864Y-115999500D01*
X150892129Y-115999500D01*
X150892123Y-115999501D01*
X150832516Y-116005908D01*
X150697671Y-116056202D01*
X150697664Y-116056206D01*
X150582455Y-116142452D01*
X150582452Y-116142455D01*
X150496206Y-116257664D01*
X150496202Y-116257671D01*
X150445908Y-116392517D01*
X150439501Y-116452116D01*
X150439500Y-116452135D01*
X150439500Y-116585564D01*
X150419815Y-116652603D01*
X150367011Y-116698358D01*
X150297853Y-116708302D01*
X150246609Y-116688666D01*
X150200237Y-116657681D01*
X150200228Y-116657676D01*
X150027251Y-116586027D01*
X150027243Y-116586025D01*
X149843620Y-116549500D01*
X149843616Y-116549500D01*
X149656384Y-116549500D01*
X149656379Y-116549500D01*
X149472756Y-116586025D01*
X149472748Y-116586027D01*
X149299771Y-116657676D01*
X149299762Y-116657681D01*
X149144092Y-116761697D01*
X149144088Y-116761700D01*
X149011700Y-116894088D01*
X149011697Y-116894092D01*
X148907681Y-117049762D01*
X148907676Y-117049771D01*
X148836027Y-117222748D01*
X148836025Y-117222756D01*
X148799500Y-117406379D01*
X148799500Y-117593620D01*
X148836025Y-117777243D01*
X148836027Y-117777251D01*
X148907676Y-117950228D01*
X148907681Y-117950237D01*
X149011697Y-118105907D01*
X149011700Y-118105911D01*
X149144088Y-118238299D01*
X149144092Y-118238302D01*
X149299762Y-118342318D01*
X149299768Y-118342321D01*
X149299769Y-118342322D01*
X149472749Y-118413973D01*
X149656379Y-118450499D01*
X149656383Y-118450500D01*
X149656384Y-118450500D01*
X149658481Y-118450500D01*
X149659539Y-118450810D01*
X149662445Y-118451097D01*
X149662390Y-118451648D01*
X149725520Y-118470185D01*
X149746162Y-118486819D01*
X150547161Y-119287819D01*
X150580646Y-119349142D01*
X150575662Y-119418834D01*
X150533790Y-119474767D01*
X150468326Y-119499184D01*
X150459480Y-119499500D01*
X81874500Y-119499500D01*
X81807461Y-119479815D01*
X81761706Y-119427011D01*
X81750500Y-119375500D01*
X81750500Y-117593713D01*
X88949500Y-117593713D01*
X88949500Y-117806286D01*
X88973500Y-117957820D01*
X88982754Y-118016243D01*
X89019648Y-118129792D01*
X89048444Y-118218414D01*
X89144951Y-118407820D01*
X89269890Y-118579786D01*
X89420213Y-118730109D01*
X89592179Y-118855048D01*
X89592181Y-118855049D01*
X89592184Y-118855051D01*
X89781588Y-118951557D01*
X89983757Y-119017246D01*
X90193713Y-119050500D01*
X90193714Y-119050500D01*
X90406286Y-119050500D01*
X90406287Y-119050500D01*
X90616243Y-119017246D01*
X90818412Y-118951557D01*
X91007816Y-118855051D01*
X91029789Y-118839086D01*
X91179786Y-118730109D01*
X91179788Y-118730106D01*
X91179792Y-118730104D01*
X91330104Y-118579792D01*
X91330106Y-118579788D01*
X91330109Y-118579786D01*
X91455048Y-118407820D01*
X91455047Y-118407820D01*
X91455051Y-118407816D01*
X91551557Y-118218412D01*
X91617246Y-118016243D01*
X91650500Y-117806287D01*
X91650500Y-117593713D01*
X96569500Y-117593713D01*
X96569500Y-117806286D01*
X96593500Y-117957820D01*
X96602754Y-118016243D01*
X96639648Y-118129792D01*
X96668444Y-118218414D01*
X96764951Y-118407820D01*
X96889890Y-118579786D01*
X97040213Y-118730109D01*
X97212179Y-118855048D01*
X97212181Y-118855049D01*
X97212184Y-118855051D01*
X97401588Y-118951557D01*
X97603757Y-119017246D01*
X97813713Y-119050500D01*
X97813714Y-119050500D01*
X98026286Y-119050500D01*
X98026287Y-119050500D01*
X98236243Y-119017246D01*
X98438412Y-118951557D01*
X98627816Y-118855051D01*
X98649789Y-118839086D01*
X98799786Y-118730109D01*
X98799788Y-118730106D01*
X98799792Y-118730104D01*
X98950104Y-118579792D01*
X98950106Y-118579788D01*
X98950109Y-118579786D01*
X99075048Y-118407820D01*
X99075047Y-118407820D01*
X99075051Y-118407816D01*
X99079514Y-118399054D01*
X99127488Y-118348259D01*
X99195308Y-118331463D01*
X99261444Y-118353999D01*
X99300486Y-118399056D01*
X99304951Y-118407820D01*
X99429890Y-118579786D01*
X99580213Y-118730109D01*
X99752179Y-118855048D01*
X99752181Y-118855049D01*
X99752184Y-118855051D01*
X99941588Y-118951557D01*
X100143757Y-119017246D01*
X100353713Y-119050500D01*
X100353714Y-119050500D01*
X100566286Y-119050500D01*
X100566287Y-119050500D01*
X100776243Y-119017246D01*
X100978412Y-118951557D01*
X101167816Y-118855051D01*
X101189789Y-118839086D01*
X101339786Y-118730109D01*
X101339788Y-118730106D01*
X101339792Y-118730104D01*
X101490104Y-118579792D01*
X101490106Y-118579788D01*
X101490109Y-118579786D01*
X101615048Y-118407820D01*
X101615047Y-118407820D01*
X101615051Y-118407816D01*
X101619514Y-118399054D01*
X101667488Y-118348259D01*
X101735308Y-118331463D01*
X101801444Y-118353999D01*
X101840486Y-118399056D01*
X101844951Y-118407820D01*
X101969890Y-118579786D01*
X102120213Y-118730109D01*
X102292179Y-118855048D01*
X102292181Y-118855049D01*
X102292184Y-118855051D01*
X102481588Y-118951557D01*
X102683757Y-119017246D01*
X102893713Y-119050500D01*
X102893714Y-119050500D01*
X103106286Y-119050500D01*
X103106287Y-119050500D01*
X103316243Y-119017246D01*
X103518412Y-118951557D01*
X103707816Y-118855051D01*
X103729789Y-118839086D01*
X103879786Y-118730109D01*
X103879788Y-118730106D01*
X103879792Y-118730104D01*
X104030104Y-118579792D01*
X104030106Y-118579788D01*
X104030109Y-118579786D01*
X104155048Y-118407820D01*
X104155047Y-118407820D01*
X104155051Y-118407816D01*
X104159514Y-118399054D01*
X104207488Y-118348259D01*
X104275308Y-118331463D01*
X104341444Y-118353999D01*
X104380486Y-118399056D01*
X104384951Y-118407820D01*
X104509890Y-118579786D01*
X104660213Y-118730109D01*
X104832179Y-118855048D01*
X104832181Y-118855049D01*
X104832184Y-118855051D01*
X105021588Y-118951557D01*
X105223757Y-119017246D01*
X105433713Y-119050500D01*
X105433714Y-119050500D01*
X105646286Y-119050500D01*
X105646287Y-119050500D01*
X105856243Y-119017246D01*
X106058412Y-118951557D01*
X106247816Y-118855051D01*
X106269789Y-118839086D01*
X106419786Y-118730109D01*
X106419788Y-118730106D01*
X106419792Y-118730104D01*
X106570104Y-118579792D01*
X106570106Y-118579788D01*
X106570109Y-118579786D01*
X106695048Y-118407820D01*
X106695047Y-118407820D01*
X106695051Y-118407816D01*
X106699514Y-118399054D01*
X106747488Y-118348259D01*
X106815308Y-118331463D01*
X106881444Y-118353999D01*
X106920486Y-118399056D01*
X106924951Y-118407820D01*
X107049890Y-118579786D01*
X107200213Y-118730109D01*
X107372179Y-118855048D01*
X107372181Y-118855049D01*
X107372184Y-118855051D01*
X107561588Y-118951557D01*
X107763757Y-119017246D01*
X107973713Y-119050500D01*
X107973714Y-119050500D01*
X108186286Y-119050500D01*
X108186287Y-119050500D01*
X108396243Y-119017246D01*
X108598412Y-118951557D01*
X108787816Y-118855051D01*
X108809789Y-118839086D01*
X108959786Y-118730109D01*
X108959788Y-118730106D01*
X108959792Y-118730104D01*
X109110104Y-118579792D01*
X109110106Y-118579788D01*
X109110109Y-118579786D01*
X109235048Y-118407820D01*
X109235047Y-118407820D01*
X109235051Y-118407816D01*
X109331557Y-118218412D01*
X109397246Y-118016243D01*
X109430500Y-117806287D01*
X109430500Y-117593713D01*
X109397246Y-117383757D01*
X109331557Y-117181588D01*
X109235051Y-116992184D01*
X109235049Y-116992181D01*
X109235048Y-116992179D01*
X109110109Y-116820213D01*
X108959786Y-116669890D01*
X108787820Y-116544951D01*
X108598414Y-116448444D01*
X108598413Y-116448443D01*
X108598412Y-116448443D01*
X108396243Y-116382754D01*
X108396241Y-116382753D01*
X108396240Y-116382753D01*
X108234957Y-116357208D01*
X108186287Y-116349500D01*
X107973713Y-116349500D01*
X107925042Y-116357208D01*
X107763760Y-116382753D01*
X107561585Y-116448444D01*
X107372179Y-116544951D01*
X107200213Y-116669890D01*
X107049890Y-116820213D01*
X106924949Y-116992182D01*
X106920484Y-117000946D01*
X106872509Y-117051742D01*
X106804688Y-117068536D01*
X106738553Y-117045998D01*
X106699516Y-117000946D01*
X106695050Y-116992182D01*
X106570109Y-116820213D01*
X106419786Y-116669890D01*
X106247820Y-116544951D01*
X106058414Y-116448444D01*
X106058413Y-116448443D01*
X106058412Y-116448443D01*
X105856243Y-116382754D01*
X105856241Y-116382753D01*
X105856240Y-116382753D01*
X105694957Y-116357208D01*
X105646287Y-116349500D01*
X105433713Y-116349500D01*
X105385042Y-116357208D01*
X105223760Y-116382753D01*
X105021585Y-116448444D01*
X104832179Y-116544951D01*
X104660213Y-116669890D01*
X104509890Y-116820213D01*
X104384949Y-116992182D01*
X104380484Y-117000946D01*
X104332509Y-117051742D01*
X104264688Y-117068536D01*
X104198553Y-117045998D01*
X104159516Y-117000946D01*
X104155050Y-116992182D01*
X104030109Y-116820213D01*
X103879786Y-116669890D01*
X103707820Y-116544951D01*
X103518414Y-116448444D01*
X103518413Y-116448443D01*
X103518412Y-116448443D01*
X103316243Y-116382754D01*
X103316241Y-116382753D01*
X103316240Y-116382753D01*
X103154957Y-116357208D01*
X103106287Y-116349500D01*
X102893713Y-116349500D01*
X102845042Y-116357208D01*
X102683760Y-116382753D01*
X102481585Y-116448444D01*
X102292179Y-116544951D01*
X102120213Y-116669890D01*
X101969890Y-116820213D01*
X101844949Y-116992182D01*
X101840484Y-117000946D01*
X101792509Y-117051742D01*
X101724688Y-117068536D01*
X101658553Y-117045998D01*
X101619516Y-117000946D01*
X101615050Y-116992182D01*
X101490109Y-116820213D01*
X101339786Y-116669890D01*
X101167820Y-116544951D01*
X100978414Y-116448444D01*
X100978413Y-116448443D01*
X100978412Y-116448443D01*
X100776243Y-116382754D01*
X100776241Y-116382753D01*
X100776240Y-116382753D01*
X100614957Y-116357208D01*
X100566287Y-116349500D01*
X100353713Y-116349500D01*
X100305042Y-116357208D01*
X100143760Y-116382753D01*
X99941585Y-116448444D01*
X99752179Y-116544951D01*
X99580213Y-116669890D01*
X99429890Y-116820213D01*
X99304949Y-116992182D01*
X99300484Y-117000946D01*
X99252509Y-117051742D01*
X99184688Y-117068536D01*
X99118553Y-117045998D01*
X99079516Y-117000946D01*
X99075050Y-116992182D01*
X98950109Y-116820213D01*
X98799786Y-116669890D01*
X98627820Y-116544951D01*
X98438414Y-116448444D01*
X98438413Y-116448443D01*
X98438412Y-116448443D01*
X98236243Y-116382754D01*
X98236241Y-116382753D01*
X98236240Y-116382753D01*
X98074957Y-116357208D01*
X98026287Y-116349500D01*
X97813713Y-116349500D01*
X97765042Y-116357208D01*
X97603760Y-116382753D01*
X97401585Y-116448444D01*
X97212179Y-116544951D01*
X97040213Y-116669890D01*
X96889890Y-116820213D01*
X96764951Y-116992179D01*
X96668444Y-117181585D01*
X96602753Y-117383760D01*
X96569500Y-117593713D01*
X91650500Y-117593713D01*
X91617246Y-117383757D01*
X91551557Y-117181588D01*
X91455051Y-116992184D01*
X91455049Y-116992181D01*
X91455048Y-116992179D01*
X91330109Y-116820213D01*
X91179786Y-116669890D01*
X91007820Y-116544951D01*
X90818414Y-116448444D01*
X90818413Y-116448443D01*
X90818412Y-116448443D01*
X90616243Y-116382754D01*
X90616241Y-116382753D01*
X90616240Y-116382753D01*
X90454957Y-116357208D01*
X90406287Y-116349500D01*
X90193713Y-116349500D01*
X90145042Y-116357208D01*
X89983760Y-116382753D01*
X89781585Y-116448444D01*
X89592179Y-116544951D01*
X89420213Y-116669890D01*
X89269890Y-116820213D01*
X89144951Y-116992179D01*
X89048444Y-117181585D01*
X88982753Y-117383760D01*
X88949500Y-117593713D01*
X81750500Y-117593713D01*
X81750500Y-115252135D01*
X115329500Y-115252135D01*
X115329500Y-117347870D01*
X115329501Y-117347876D01*
X115335908Y-117407483D01*
X115386202Y-117542328D01*
X115386206Y-117542335D01*
X115472452Y-117657544D01*
X115472455Y-117657547D01*
X115587664Y-117743793D01*
X115587671Y-117743797D01*
X115722517Y-117794091D01*
X115722516Y-117794091D01*
X115729444Y-117794835D01*
X115782127Y-117800500D01*
X117877872Y-117800499D01*
X117937483Y-117794091D01*
X118072331Y-117743796D01*
X118187546Y-117657546D01*
X118273796Y-117542331D01*
X118324091Y-117407483D01*
X118330500Y-117347873D01*
X118330499Y-115824983D01*
X124064500Y-115824983D01*
X124064500Y-117025001D01*
X124064501Y-117025018D01*
X124075000Y-117127796D01*
X124075001Y-117127799D01*
X124125532Y-117280289D01*
X124130186Y-117294334D01*
X124222288Y-117443656D01*
X124346344Y-117567712D01*
X124495666Y-117659814D01*
X124662203Y-117714999D01*
X124764991Y-117725500D01*
X125965008Y-117725499D01*
X126067797Y-117714999D01*
X126234334Y-117659814D01*
X126383656Y-117567712D01*
X126507712Y-117443656D01*
X126599814Y-117294334D01*
X126654999Y-117127797D01*
X126665500Y-117025009D01*
X126665499Y-116992342D01*
X126685182Y-116925306D01*
X126737984Y-116879550D01*
X126807143Y-116869605D01*
X126870699Y-116898628D01*
X126895225Y-116927550D01*
X126897717Y-116931617D01*
X127018028Y-117097213D01*
X127162786Y-117241971D01*
X127308549Y-117347872D01*
X127328390Y-117362287D01*
X127417090Y-117407482D01*
X127510776Y-117455218D01*
X127510778Y-117455218D01*
X127510781Y-117455220D01*
X127615137Y-117489127D01*
X127705465Y-117518477D01*
X127806557Y-117534488D01*
X127907648Y-117550500D01*
X127907649Y-117550500D01*
X128112351Y-117550500D01*
X128112352Y-117550500D01*
X128314534Y-117518477D01*
X128509219Y-117455220D01*
X128691610Y-117362287D01*
X128804466Y-117280293D01*
X128857213Y-117241971D01*
X128857215Y-117241968D01*
X128857219Y-117241966D01*
X129001966Y-117097219D01*
X129001968Y-117097215D01*
X129001971Y-117097213D01*
X129078160Y-116992346D01*
X129122287Y-116931610D01*
X129215220Y-116749219D01*
X129278477Y-116554534D01*
X129310500Y-116352352D01*
X129310500Y-116147648D01*
X136869500Y-116147648D01*
X136869500Y-116352351D01*
X136901522Y-116554534D01*
X136964781Y-116749223D01*
X137014143Y-116846100D01*
X137055644Y-116927550D01*
X137057715Y-116931613D01*
X137178028Y-117097213D01*
X137322786Y-117241971D01*
X137468549Y-117347872D01*
X137488390Y-117362287D01*
X137577090Y-117407482D01*
X137670776Y-117455218D01*
X137670778Y-117455218D01*
X137670781Y-117455220D01*
X137775137Y-117489127D01*
X137865465Y-117518477D01*
X137966557Y-117534488D01*
X138067648Y-117550500D01*
X138067649Y-117550500D01*
X138272351Y-117550500D01*
X138272352Y-117550500D01*
X138474534Y-117518477D01*
X138669219Y-117455220D01*
X138851610Y-117362287D01*
X138964466Y-117280293D01*
X139017213Y-117241971D01*
X139017215Y-117241968D01*
X139017219Y-117241966D01*
X139161966Y-117097219D01*
X139161968Y-117097215D01*
X139161971Y-117097213D01*
X139238160Y-116992346D01*
X139282287Y-116931610D01*
X139375220Y-116749219D01*
X139438477Y-116554534D01*
X139470500Y-116352352D01*
X139470500Y-116147648D01*
X139438477Y-115945465D01*
X139375218Y-115750776D01*
X139341503Y-115684607D01*
X139282287Y-115568390D01*
X139273040Y-115555663D01*
X139161971Y-115402786D01*
X139017213Y-115258028D01*
X138851613Y-115137715D01*
X138851612Y-115137714D01*
X138851610Y-115137713D01*
X138794653Y-115108691D01*
X138669223Y-115044781D01*
X138474534Y-114981522D01*
X138299995Y-114953878D01*
X138272352Y-114949500D01*
X138067648Y-114949500D01*
X138043329Y-114953351D01*
X137865465Y-114981522D01*
X137670776Y-115044781D01*
X137488386Y-115137715D01*
X137322786Y-115258028D01*
X137178028Y-115402786D01*
X137057715Y-115568386D01*
X136964781Y-115750776D01*
X136901522Y-115945465D01*
X136869500Y-116147648D01*
X129310500Y-116147648D01*
X129278477Y-115945465D01*
X129215218Y-115750776D01*
X129181503Y-115684607D01*
X129122287Y-115568390D01*
X129113040Y-115555663D01*
X129001971Y-115402786D01*
X128857213Y-115258028D01*
X128691613Y-115137715D01*
X128691612Y-115137714D01*
X128691610Y-115137713D01*
X128634653Y-115108691D01*
X128509223Y-115044781D01*
X128314534Y-114981522D01*
X128139995Y-114953878D01*
X128112352Y-114949500D01*
X127907648Y-114949500D01*
X127883329Y-114953351D01*
X127705465Y-114981522D01*
X127510776Y-115044781D01*
X127328386Y-115137715D01*
X127162786Y-115258028D01*
X127018028Y-115402786D01*
X126897713Y-115568388D01*
X126854556Y-115653088D01*
X126806582Y-115703883D01*
X126738761Y-115720678D01*
X126672626Y-115698140D01*
X126629175Y-115643425D01*
X126626371Y-115635809D01*
X126599814Y-115555666D01*
X126507712Y-115406344D01*
X126383656Y-115282288D01*
X126282194Y-115219706D01*
X126234336Y-115190187D01*
X126234331Y-115190185D01*
X126232862Y-115189698D01*
X126067797Y-115135001D01*
X126067795Y-115135000D01*
X125965010Y-115124500D01*
X124764998Y-115124500D01*
X124764981Y-115124501D01*
X124662203Y-115135000D01*
X124662200Y-115135001D01*
X124495668Y-115190185D01*
X124495663Y-115190187D01*
X124346342Y-115282289D01*
X124222289Y-115406342D01*
X124130187Y-115555663D01*
X124130185Y-115555668D01*
X124103633Y-115635796D01*
X124075001Y-115722203D01*
X124075001Y-115722204D01*
X124075000Y-115722204D01*
X124064500Y-115824983D01*
X118330499Y-115824983D01*
X118330499Y-115252128D01*
X118324091Y-115192517D01*
X118323221Y-115190185D01*
X118273797Y-115057671D01*
X118273793Y-115057664D01*
X118187547Y-114942455D01*
X118187544Y-114942452D01*
X118072335Y-114856206D01*
X118072328Y-114856202D01*
X117937482Y-114805908D01*
X117937483Y-114805908D01*
X117877883Y-114799501D01*
X117877881Y-114799500D01*
X117877873Y-114799500D01*
X117877864Y-114799500D01*
X115782129Y-114799500D01*
X115782123Y-114799501D01*
X115722516Y-114805908D01*
X115587671Y-114856202D01*
X115587664Y-114856206D01*
X115472455Y-114942452D01*
X115472452Y-114942455D01*
X115386206Y-115057664D01*
X115386202Y-115057671D01*
X115335908Y-115192517D01*
X115332985Y-115219711D01*
X115329501Y-115252123D01*
X115329500Y-115252135D01*
X81750500Y-115252135D01*
X81750500Y-112897648D01*
X126789500Y-112897648D01*
X126789500Y-113102351D01*
X126821522Y-113304534D01*
X126884781Y-113499223D01*
X126977715Y-113681613D01*
X127098028Y-113847213D01*
X127242786Y-113991971D01*
X127397749Y-114104556D01*
X127408390Y-114112287D01*
X127524607Y-114171503D01*
X127590776Y-114205218D01*
X127590778Y-114205218D01*
X127590781Y-114205220D01*
X127695137Y-114239127D01*
X127785465Y-114268477D01*
X127886557Y-114284488D01*
X127987648Y-114300500D01*
X127987649Y-114300500D01*
X128192351Y-114300500D01*
X128192352Y-114300500D01*
X128394534Y-114268477D01*
X128589219Y-114205220D01*
X128771610Y-114112287D01*
X128864590Y-114044732D01*
X128937213Y-113991971D01*
X128937215Y-113991968D01*
X128937219Y-113991966D01*
X129081966Y-113847219D01*
X129081968Y-113847215D01*
X129081971Y-113847213D01*
X129134732Y-113774590D01*
X129202287Y-113681610D01*
X129295220Y-113499219D01*
X129358477Y-113304534D01*
X129390500Y-113102352D01*
X129390500Y-112897648D01*
X136949500Y-112897648D01*
X136949500Y-113102351D01*
X136981522Y-113304534D01*
X137044781Y-113499223D01*
X137137715Y-113681613D01*
X137258028Y-113847213D01*
X137402786Y-113991971D01*
X137557749Y-114104556D01*
X137568390Y-114112287D01*
X137684607Y-114171503D01*
X137750776Y-114205218D01*
X137750778Y-114205218D01*
X137750781Y-114205220D01*
X137855137Y-114239127D01*
X137945465Y-114268477D01*
X138046557Y-114284488D01*
X138147648Y-114300500D01*
X138147649Y-114300500D01*
X138352351Y-114300500D01*
X138352352Y-114300500D01*
X138554534Y-114268477D01*
X138749219Y-114205220D01*
X138931610Y-114112287D01*
X139024590Y-114044732D01*
X139097213Y-113991971D01*
X139097215Y-113991968D01*
X139097219Y-113991966D01*
X139241966Y-113847219D01*
X139241968Y-113847215D01*
X139241971Y-113847213D01*
X139294732Y-113774590D01*
X139362287Y-113681610D01*
X139455220Y-113499219D01*
X139518477Y-113304534D01*
X139550500Y-113102352D01*
X139550500Y-112897648D01*
X139518477Y-112695466D01*
X139455220Y-112500781D01*
X139455218Y-112500778D01*
X139455218Y-112500776D01*
X139421503Y-112434607D01*
X139362287Y-112318390D01*
X139354556Y-112307749D01*
X139241971Y-112152786D01*
X139097213Y-112008028D01*
X138931613Y-111887715D01*
X138931612Y-111887714D01*
X138931610Y-111887713D01*
X138874653Y-111858691D01*
X138749223Y-111794781D01*
X138554534Y-111731522D01*
X138379995Y-111703878D01*
X138352352Y-111699500D01*
X138147648Y-111699500D01*
X138123329Y-111703351D01*
X137945465Y-111731522D01*
X137750776Y-111794781D01*
X137568386Y-111887715D01*
X137402786Y-112008028D01*
X137258028Y-112152786D01*
X137137715Y-112318386D01*
X137044781Y-112500776D01*
X136981522Y-112695465D01*
X136949500Y-112897648D01*
X129390500Y-112897648D01*
X129358477Y-112695466D01*
X129295220Y-112500781D01*
X129295218Y-112500778D01*
X129295218Y-112500776D01*
X129261503Y-112434607D01*
X129202287Y-112318390D01*
X129194556Y-112307749D01*
X129081971Y-112152786D01*
X128937213Y-112008028D01*
X128771613Y-111887715D01*
X128771612Y-111887714D01*
X128771610Y-111887713D01*
X128714653Y-111858691D01*
X128589223Y-111794781D01*
X128394534Y-111731522D01*
X128219995Y-111703878D01*
X128192352Y-111699500D01*
X127987648Y-111699500D01*
X127963329Y-111703351D01*
X127785465Y-111731522D01*
X127590776Y-111794781D01*
X127408386Y-111887715D01*
X127242786Y-112008028D01*
X127098028Y-112152786D01*
X126977715Y-112318386D01*
X126884781Y-112500776D01*
X126821522Y-112695465D01*
X126789500Y-112897648D01*
X81750500Y-112897648D01*
X81750500Y-107128711D01*
X83149500Y-107128711D01*
X83149500Y-107371288D01*
X83173749Y-107555485D01*
X83181162Y-107611789D01*
X83193010Y-107656006D01*
X83243947Y-107846104D01*
X83336773Y-108070205D01*
X83336776Y-108070212D01*
X83458064Y-108280289D01*
X83458066Y-108280292D01*
X83458067Y-108280293D01*
X83605733Y-108472736D01*
X83605739Y-108472743D01*
X83777256Y-108644260D01*
X83777262Y-108644265D01*
X83969711Y-108791936D01*
X84179788Y-108913224D01*
X84403900Y-109006054D01*
X84638211Y-109068838D01*
X84818586Y-109092584D01*
X84878711Y-109100500D01*
X84878712Y-109100500D01*
X85121289Y-109100500D01*
X85169388Y-109094167D01*
X85361789Y-109068838D01*
X85596100Y-109006054D01*
X85820212Y-108913224D01*
X86030289Y-108791936D01*
X86222738Y-108644265D01*
X86285101Y-108581902D01*
X115329500Y-108581902D01*
X115329500Y-108818097D01*
X115366446Y-109051368D01*
X115439433Y-109275996D01*
X115537448Y-109468360D01*
X115546657Y-109486433D01*
X115685483Y-109677510D01*
X115852490Y-109844517D01*
X116043567Y-109983343D01*
X116142991Y-110034002D01*
X116254003Y-110090566D01*
X116254005Y-110090566D01*
X116254008Y-110090568D01*
X116374412Y-110129689D01*
X116478631Y-110163553D01*
X116711903Y-110200500D01*
X116711908Y-110200500D01*
X116948097Y-110200500D01*
X117181368Y-110163553D01*
X117405992Y-110090568D01*
X117616433Y-109983343D01*
X117807510Y-109844517D01*
X117974517Y-109677510D01*
X118113343Y-109486433D01*
X118220568Y-109275992D01*
X118293553Y-109051368D01*
X118300730Y-109006052D01*
X118330500Y-108818097D01*
X118330500Y-108702648D01*
X124064500Y-108702648D01*
X124064500Y-108907351D01*
X124096522Y-109109534D01*
X124159781Y-109304223D01*
X124252715Y-109486613D01*
X124373028Y-109652213D01*
X124517786Y-109796971D01*
X124672749Y-109909556D01*
X124683390Y-109917287D01*
X124799607Y-109976503D01*
X124865776Y-110010218D01*
X124865778Y-110010218D01*
X124865781Y-110010220D01*
X124970137Y-110044127D01*
X125060465Y-110073477D01*
X125161557Y-110089488D01*
X125262648Y-110105500D01*
X125262649Y-110105500D01*
X125467351Y-110105500D01*
X125467352Y-110105500D01*
X125669534Y-110073477D01*
X125864219Y-110010220D01*
X126046610Y-109917287D01*
X126181275Y-109819448D01*
X126212213Y-109796971D01*
X126212215Y-109796968D01*
X126212219Y-109796966D01*
X126356966Y-109652219D01*
X126356968Y-109652215D01*
X126356971Y-109652213D01*
X126454805Y-109517554D01*
X126477287Y-109486610D01*
X126570220Y-109304219D01*
X126633477Y-109109534D01*
X126665500Y-108907352D01*
X126665500Y-108702648D01*
X126654865Y-108635500D01*
X126643537Y-108563980D01*
X126641235Y-108549448D01*
X127079500Y-108549448D01*
X127079500Y-108730551D01*
X127107829Y-108909410D01*
X127163787Y-109081636D01*
X127163788Y-109081639D01*
X127246006Y-109242997D01*
X127352441Y-109389494D01*
X127352445Y-109389499D01*
X127480500Y-109517554D01*
X127480505Y-109517558D01*
X127608287Y-109610396D01*
X127627006Y-109623996D01*
X127732032Y-109677510D01*
X127788360Y-109706211D01*
X127788363Y-109706212D01*
X127874476Y-109734191D01*
X127960591Y-109762171D01*
X128043429Y-109775291D01*
X128139449Y-109790500D01*
X128225500Y-109790500D01*
X128292539Y-109810185D01*
X128338294Y-109862989D01*
X128349500Y-109914500D01*
X128349500Y-110000551D01*
X128377829Y-110179410D01*
X128433787Y-110351636D01*
X128433788Y-110351639D01*
X128516006Y-110512997D01*
X128622441Y-110659494D01*
X128622445Y-110659499D01*
X128750500Y-110787554D01*
X128750505Y-110787558D01*
X128878287Y-110880396D01*
X128897006Y-110893996D01*
X129002484Y-110947740D01*
X129058360Y-110976211D01*
X129058363Y-110976212D01*
X129144476Y-111004191D01*
X129230591Y-111032171D01*
X129313429Y-111045291D01*
X129409449Y-111060500D01*
X129409454Y-111060500D01*
X129590551Y-111060500D01*
X129677259Y-111046765D01*
X129769409Y-111032171D01*
X129941639Y-110976211D01*
X130102994Y-110893996D01*
X130249501Y-110787553D01*
X130377553Y-110659501D01*
X130483996Y-110512994D01*
X130566211Y-110351639D01*
X130622171Y-110179409D01*
X130648968Y-110010220D01*
X130650500Y-110000551D01*
X130650500Y-109819448D01*
X130632564Y-109706211D01*
X130622171Y-109640591D01*
X130582194Y-109517553D01*
X130566212Y-109468363D01*
X130566211Y-109468360D01*
X130537740Y-109412484D01*
X130483996Y-109307006D01*
X130437489Y-109242994D01*
X130377558Y-109160505D01*
X130377554Y-109160500D01*
X130249499Y-109032445D01*
X130249494Y-109032441D01*
X130102997Y-108926006D01*
X130102996Y-108926005D01*
X130102994Y-108926004D01*
X130051300Y-108899664D01*
X129941639Y-108843788D01*
X129941636Y-108843787D01*
X129769410Y-108787829D01*
X129590551Y-108759500D01*
X129590546Y-108759500D01*
X129504500Y-108759500D01*
X129437461Y-108739815D01*
X129391706Y-108687011D01*
X129380500Y-108635500D01*
X129380500Y-108549448D01*
X129364019Y-108445397D01*
X129352171Y-108370591D01*
X129296211Y-108198361D01*
X129296211Y-108198360D01*
X129230915Y-108070212D01*
X129213996Y-108037006D01*
X129124313Y-107913567D01*
X129107558Y-107890505D01*
X129107554Y-107890500D01*
X128979499Y-107762445D01*
X128979494Y-107762441D01*
X128832997Y-107656006D01*
X128832996Y-107656005D01*
X128832994Y-107656004D01*
X128746218Y-107611789D01*
X128671639Y-107573788D01*
X128671636Y-107573787D01*
X128499410Y-107517829D01*
X128320551Y-107489500D01*
X128320546Y-107489500D01*
X128139454Y-107489500D01*
X128139449Y-107489500D01*
X127960589Y-107517829D01*
X127788363Y-107573787D01*
X127788360Y-107573788D01*
X127627002Y-107656006D01*
X127480505Y-107762441D01*
X127480500Y-107762445D01*
X127352445Y-107890500D01*
X127352441Y-107890505D01*
X127246006Y-108037002D01*
X127163788Y-108198360D01*
X127163787Y-108198363D01*
X127107829Y-108370589D01*
X127079500Y-108549448D01*
X126641235Y-108549448D01*
X126633477Y-108500465D01*
X126570218Y-108305776D01*
X126536503Y-108239607D01*
X126477287Y-108123390D01*
X126438653Y-108070214D01*
X126356971Y-107957786D01*
X126212213Y-107813028D01*
X126046613Y-107692715D01*
X126046612Y-107692714D01*
X126046610Y-107692713D01*
X125974565Y-107656004D01*
X125864223Y-107599781D01*
X125669534Y-107536522D01*
X125494995Y-107508878D01*
X125467352Y-107504500D01*
X125262648Y-107504500D01*
X125238329Y-107508351D01*
X125060465Y-107536522D01*
X124865776Y-107599781D01*
X124683386Y-107692715D01*
X124517786Y-107813028D01*
X124373028Y-107957786D01*
X124252715Y-108123386D01*
X124159781Y-108305776D01*
X124096522Y-108500465D01*
X124064500Y-108702648D01*
X118330500Y-108702648D01*
X118330500Y-108581902D01*
X118293553Y-108348631D01*
X118244727Y-108198361D01*
X118220568Y-108124008D01*
X118220566Y-108124005D01*
X118220566Y-108124003D01*
X118164002Y-108012991D01*
X118113343Y-107913567D01*
X117974517Y-107722490D01*
X117807510Y-107555483D01*
X117616433Y-107416657D01*
X117405996Y-107309433D01*
X117181368Y-107236446D01*
X116948097Y-107199500D01*
X116948092Y-107199500D01*
X116711908Y-107199500D01*
X116711903Y-107199500D01*
X116478631Y-107236446D01*
X116254003Y-107309433D01*
X116043566Y-107416657D01*
X115934550Y-107495862D01*
X115852490Y-107555483D01*
X115852488Y-107555485D01*
X115852487Y-107555485D01*
X115685485Y-107722487D01*
X115685485Y-107722488D01*
X115685483Y-107722490D01*
X115625862Y-107804550D01*
X115546657Y-107913566D01*
X115439433Y-108124003D01*
X115366446Y-108348631D01*
X115329500Y-108581902D01*
X86285101Y-108581902D01*
X86377649Y-108489355D01*
X86394260Y-108472743D01*
X86394265Y-108472738D01*
X86541936Y-108280289D01*
X86663224Y-108070212D01*
X86756054Y-107846100D01*
X86818838Y-107611789D01*
X86850500Y-107371288D01*
X86850500Y-107128712D01*
X86818838Y-106888211D01*
X86756054Y-106653900D01*
X86663224Y-106429788D01*
X86541936Y-106219711D01*
X86394265Y-106027262D01*
X86394260Y-106027256D01*
X86222743Y-105855739D01*
X86222736Y-105855733D01*
X86030293Y-105708067D01*
X86030292Y-105708066D01*
X86030289Y-105708064D01*
X85820212Y-105586776D01*
X85820205Y-105586773D01*
X85596104Y-105493947D01*
X85361785Y-105431161D01*
X85121289Y-105399500D01*
X85121288Y-105399500D01*
X84878712Y-105399500D01*
X84878711Y-105399500D01*
X84638214Y-105431161D01*
X84403895Y-105493947D01*
X84179794Y-105586773D01*
X84179785Y-105586777D01*
X83969706Y-105708067D01*
X83777263Y-105855733D01*
X83777256Y-105855739D01*
X83605739Y-106027256D01*
X83605733Y-106027263D01*
X83458067Y-106219706D01*
X83336777Y-106429785D01*
X83336773Y-106429794D01*
X83243947Y-106653895D01*
X83181161Y-106888214D01*
X83149500Y-107128711D01*
X81750500Y-107128711D01*
X81750500Y-104893713D01*
X88949500Y-104893713D01*
X88949500Y-105106287D01*
X88982754Y-105316243D01*
X89040493Y-105493946D01*
X89048444Y-105518414D01*
X89144951Y-105707820D01*
X89269890Y-105879786D01*
X89420213Y-106030109D01*
X89592179Y-106155048D01*
X89592181Y-106155049D01*
X89592184Y-106155051D01*
X89781588Y-106251557D01*
X89983757Y-106317246D01*
X90193713Y-106350500D01*
X90193714Y-106350500D01*
X90406286Y-106350500D01*
X90406287Y-106350500D01*
X90616243Y-106317246D01*
X90818412Y-106251557D01*
X91007816Y-106155051D01*
X91029789Y-106139086D01*
X91179786Y-106030109D01*
X91179788Y-106030106D01*
X91179792Y-106030104D01*
X91330104Y-105879792D01*
X91330106Y-105879788D01*
X91330109Y-105879786D01*
X91455048Y-105707820D01*
X91455047Y-105707820D01*
X91455051Y-105707816D01*
X91551557Y-105518412D01*
X91617246Y-105316243D01*
X91650500Y-105106287D01*
X91650500Y-104893713D01*
X94029500Y-104893713D01*
X94029500Y-105106287D01*
X94062754Y-105316243D01*
X94120493Y-105493946D01*
X94128444Y-105518414D01*
X94224951Y-105707820D01*
X94349890Y-105879786D01*
X94500213Y-106030109D01*
X94672179Y-106155048D01*
X94672181Y-106155049D01*
X94672184Y-106155051D01*
X94861588Y-106251557D01*
X95063757Y-106317246D01*
X95273713Y-106350500D01*
X95273714Y-106350500D01*
X95486286Y-106350500D01*
X95486287Y-106350500D01*
X95696243Y-106317246D01*
X95898412Y-106251557D01*
X96087816Y-106155051D01*
X96109789Y-106139086D01*
X96259786Y-106030109D01*
X96259788Y-106030106D01*
X96259792Y-106030104D01*
X96410104Y-105879792D01*
X96410106Y-105879788D01*
X96410109Y-105879786D01*
X96535048Y-105707820D01*
X96535047Y-105707820D01*
X96535051Y-105707816D01*
X96539514Y-105699054D01*
X96587488Y-105648259D01*
X96655308Y-105631463D01*
X96721444Y-105653999D01*
X96760486Y-105699056D01*
X96764951Y-105707820D01*
X96889890Y-105879786D01*
X97040213Y-106030109D01*
X97212179Y-106155048D01*
X97212181Y-106155049D01*
X97212184Y-106155051D01*
X97401588Y-106251557D01*
X97603757Y-106317246D01*
X97813713Y-106350500D01*
X97813714Y-106350500D01*
X98026286Y-106350500D01*
X98026287Y-106350500D01*
X98236243Y-106317246D01*
X98438412Y-106251557D01*
X98627816Y-106155051D01*
X98649789Y-106139086D01*
X98799786Y-106030109D01*
X98799788Y-106030106D01*
X98799792Y-106030104D01*
X98950104Y-105879792D01*
X98950106Y-105879788D01*
X98950109Y-105879786D01*
X99075048Y-105707820D01*
X99075047Y-105707820D01*
X99075051Y-105707816D01*
X99079514Y-105699054D01*
X99127488Y-105648259D01*
X99195308Y-105631463D01*
X99261444Y-105653999D01*
X99300486Y-105699056D01*
X99304951Y-105707820D01*
X99429890Y-105879786D01*
X99580213Y-106030109D01*
X99752179Y-106155048D01*
X99752181Y-106155049D01*
X99752184Y-106155051D01*
X99941588Y-106251557D01*
X100143757Y-106317246D01*
X100353713Y-106350500D01*
X100353714Y-106350500D01*
X100566286Y-106350500D01*
X100566287Y-106350500D01*
X100776243Y-106317246D01*
X100978412Y-106251557D01*
X101167816Y-106155051D01*
X101189789Y-106139086D01*
X101339786Y-106030109D01*
X101339788Y-106030106D01*
X101339792Y-106030104D01*
X101490104Y-105879792D01*
X101490106Y-105879788D01*
X101490109Y-105879786D01*
X101615048Y-105707820D01*
X101615047Y-105707820D01*
X101615051Y-105707816D01*
X101619514Y-105699054D01*
X101667488Y-105648259D01*
X101735308Y-105631463D01*
X101801444Y-105653999D01*
X101840486Y-105699056D01*
X101844951Y-105707820D01*
X101969890Y-105879786D01*
X102120213Y-106030109D01*
X102292179Y-106155048D01*
X102292181Y-106155049D01*
X102292184Y-106155051D01*
X102481588Y-106251557D01*
X102683757Y-106317246D01*
X102893713Y-106350500D01*
X102893714Y-106350500D01*
X103106286Y-106350500D01*
X103106287Y-106350500D01*
X103316243Y-106317246D01*
X103518412Y-106251557D01*
X103707816Y-106155051D01*
X103729789Y-106139086D01*
X103879786Y-106030109D01*
X103879788Y-106030106D01*
X103879792Y-106030104D01*
X104030104Y-105879792D01*
X104030106Y-105879788D01*
X104030109Y-105879786D01*
X104155048Y-105707820D01*
X104155047Y-105707820D01*
X104155051Y-105707816D01*
X104159514Y-105699054D01*
X104207488Y-105648259D01*
X104275308Y-105631463D01*
X104341444Y-105653999D01*
X104380486Y-105699056D01*
X104384951Y-105707820D01*
X104509890Y-105879786D01*
X104660213Y-106030109D01*
X104832179Y-106155048D01*
X104832181Y-106155049D01*
X104832184Y-106155051D01*
X105021588Y-106251557D01*
X105223757Y-106317246D01*
X105433713Y-106350500D01*
X105433714Y-106350500D01*
X105646286Y-106350500D01*
X105646287Y-106350500D01*
X105856243Y-106317246D01*
X106058412Y-106251557D01*
X106247816Y-106155051D01*
X106269789Y-106139086D01*
X106419786Y-106030109D01*
X106419788Y-106030106D01*
X106419792Y-106030104D01*
X106570104Y-105879792D01*
X106570106Y-105879788D01*
X106570109Y-105879786D01*
X106695048Y-105707820D01*
X106695047Y-105707820D01*
X106695051Y-105707816D01*
X106791557Y-105518412D01*
X106857246Y-105316243D01*
X106890500Y-105106287D01*
X106890500Y-104893713D01*
X106857246Y-104683757D01*
X106791557Y-104481588D01*
X106695051Y-104292184D01*
X106695049Y-104292181D01*
X106695048Y-104292179D01*
X106570109Y-104120213D01*
X106419786Y-103969890D01*
X106247820Y-103844951D01*
X106058414Y-103748444D01*
X106058413Y-103748443D01*
X106058412Y-103748443D01*
X105856243Y-103682754D01*
X105856241Y-103682753D01*
X105856240Y-103682753D01*
X105694957Y-103657208D01*
X105646287Y-103649500D01*
X105433713Y-103649500D01*
X105385042Y-103657208D01*
X105223760Y-103682753D01*
X105021585Y-103748444D01*
X104832179Y-103844951D01*
X104660213Y-103969890D01*
X104509890Y-104120213D01*
X104384949Y-104292182D01*
X104380484Y-104300946D01*
X104332509Y-104351742D01*
X104264688Y-104368536D01*
X104198553Y-104345998D01*
X104159516Y-104300946D01*
X104155050Y-104292182D01*
X104030109Y-104120213D01*
X103879786Y-103969890D01*
X103707820Y-103844951D01*
X103518414Y-103748444D01*
X103518413Y-103748443D01*
X103518412Y-103748443D01*
X103316243Y-103682754D01*
X103316241Y-103682753D01*
X103316240Y-103682753D01*
X103154957Y-103657208D01*
X103106287Y-103649500D01*
X102893713Y-103649500D01*
X102845042Y-103657208D01*
X102683760Y-103682753D01*
X102481585Y-103748444D01*
X102292179Y-103844951D01*
X102120213Y-103969890D01*
X101969890Y-104120213D01*
X101844949Y-104292182D01*
X101840484Y-104300946D01*
X101792509Y-104351742D01*
X101724688Y-104368536D01*
X101658553Y-104345998D01*
X101619516Y-104300946D01*
X101615050Y-104292182D01*
X101490109Y-104120213D01*
X101339786Y-103969890D01*
X101167820Y-103844951D01*
X100978414Y-103748444D01*
X100978413Y-103748443D01*
X100978412Y-103748443D01*
X100776243Y-103682754D01*
X100776241Y-103682753D01*
X100776240Y-103682753D01*
X100614957Y-103657208D01*
X100566287Y-103649500D01*
X100353713Y-103649500D01*
X100305042Y-103657208D01*
X100143760Y-103682753D01*
X99941585Y-103748444D01*
X99752179Y-103844951D01*
X99580213Y-103969890D01*
X99429890Y-104120213D01*
X99304949Y-104292182D01*
X99300484Y-104300946D01*
X99252509Y-104351742D01*
X99184688Y-104368536D01*
X99118553Y-104345998D01*
X99079516Y-104300946D01*
X99075052Y-104292186D01*
X99075051Y-104292184D01*
X99034135Y-104235867D01*
X99010656Y-104170064D01*
X99026481Y-104102010D01*
X99046769Y-104075307D01*
X99708687Y-103413389D01*
X130899500Y-103413389D01*
X130899500Y-103586610D01*
X130925131Y-103748444D01*
X130926598Y-103757701D01*
X130972497Y-103898963D01*
X130980128Y-103922447D01*
X131004301Y-103969890D01*
X131058768Y-104076788D01*
X131160586Y-104216928D01*
X131283072Y-104339414D01*
X131423212Y-104441232D01*
X131577555Y-104519873D01*
X131742299Y-104573402D01*
X131913389Y-104600500D01*
X131913390Y-104600500D01*
X132086610Y-104600500D01*
X132086611Y-104600500D01*
X132257701Y-104573402D01*
X132422445Y-104519873D01*
X132576788Y-104441232D01*
X132716928Y-104339414D01*
X132839414Y-104216928D01*
X132941232Y-104076788D01*
X133019873Y-103922445D01*
X133073402Y-103757701D01*
X133100500Y-103586611D01*
X133100500Y-103413389D01*
X133073402Y-103242299D01*
X133019873Y-103077555D01*
X132941232Y-102923212D01*
X132839414Y-102783072D01*
X132716928Y-102660586D01*
X132576788Y-102558768D01*
X132422445Y-102480127D01*
X132257701Y-102426598D01*
X132257699Y-102426597D01*
X132257698Y-102426597D01*
X132126271Y-102405781D01*
X132086611Y-102399500D01*
X131913389Y-102399500D01*
X131873728Y-102405781D01*
X131742302Y-102426597D01*
X131577552Y-102480128D01*
X131423211Y-102558768D01*
X131377011Y-102592335D01*
X131283072Y-102660586D01*
X131283070Y-102660588D01*
X131283069Y-102660588D01*
X131160588Y-102783069D01*
X131160588Y-102783070D01*
X131160586Y-102783072D01*
X131152797Y-102793793D01*
X131058768Y-102923211D01*
X130980128Y-103077552D01*
X130926597Y-103242302D01*
X130899500Y-103413389D01*
X99708687Y-103413389D01*
X100242235Y-102879841D01*
X100303556Y-102846358D01*
X100349311Y-102845051D01*
X100383713Y-102850500D01*
X100383714Y-102850500D01*
X100596286Y-102850500D01*
X100596287Y-102850500D01*
X100806243Y-102817246D01*
X101008412Y-102751557D01*
X101197816Y-102655051D01*
X101284147Y-102592328D01*
X101369784Y-102530110D01*
X101369784Y-102530109D01*
X101369792Y-102530104D01*
X101483329Y-102416566D01*
X101544648Y-102383084D01*
X101614340Y-102388068D01*
X101670274Y-102429939D01*
X101687189Y-102460917D01*
X101736202Y-102592328D01*
X101736206Y-102592335D01*
X101822452Y-102707544D01*
X101822455Y-102707547D01*
X101937664Y-102793793D01*
X101937671Y-102793797D01*
X102072517Y-102844091D01*
X102072516Y-102844091D01*
X102079444Y-102844835D01*
X102132127Y-102850500D01*
X103927872Y-102850499D01*
X103987483Y-102844091D01*
X104122331Y-102793796D01*
X104237546Y-102707546D01*
X104323796Y-102592331D01*
X104374091Y-102457483D01*
X104380500Y-102397873D01*
X104380499Y-100602128D01*
X104374091Y-100542517D01*
X104374091Y-100542516D01*
X104340275Y-100451850D01*
X104325930Y-100413389D01*
X125899500Y-100413389D01*
X125899500Y-100586611D01*
X125904821Y-100620208D01*
X125924158Y-100742299D01*
X125926598Y-100757701D01*
X125980127Y-100922445D01*
X126058768Y-101076788D01*
X126160586Y-101216928D01*
X126283072Y-101339414D01*
X126423212Y-101441232D01*
X126577555Y-101519873D01*
X126742299Y-101573402D01*
X126913389Y-101600500D01*
X126913390Y-101600500D01*
X127086610Y-101600500D01*
X127086611Y-101600500D01*
X127257701Y-101573402D01*
X127422445Y-101519873D01*
X127576788Y-101441232D01*
X127716928Y-101339414D01*
X127839414Y-101216928D01*
X127941232Y-101076788D01*
X128019873Y-100922445D01*
X128073402Y-100757701D01*
X128100500Y-100586611D01*
X128100500Y-100413389D01*
X128073402Y-100242299D01*
X128019873Y-100077555D01*
X127941232Y-99923212D01*
X127839414Y-99783072D01*
X127716928Y-99660586D01*
X127576788Y-99558768D01*
X127422445Y-99480127D01*
X127257701Y-99426598D01*
X127257699Y-99426597D01*
X127257698Y-99426597D01*
X127126271Y-99405781D01*
X127086611Y-99399500D01*
X126913389Y-99399500D01*
X126873728Y-99405781D01*
X126742302Y-99426597D01*
X126577552Y-99480128D01*
X126423211Y-99558768D01*
X126343256Y-99616859D01*
X126283072Y-99660586D01*
X126283070Y-99660588D01*
X126283069Y-99660588D01*
X126160588Y-99783069D01*
X126160588Y-99783070D01*
X126160586Y-99783072D01*
X126116859Y-99843256D01*
X126058768Y-99923211D01*
X125980128Y-100077552D01*
X125926597Y-100242302D01*
X125904712Y-100380484D01*
X125899500Y-100413389D01*
X104325930Y-100413389D01*
X104323797Y-100407671D01*
X104323793Y-100407664D01*
X104237547Y-100292455D01*
X104237544Y-100292452D01*
X104122335Y-100206206D01*
X104122328Y-100206202D01*
X103987482Y-100155908D01*
X103987483Y-100155908D01*
X103927883Y-100149501D01*
X103927881Y-100149500D01*
X103927873Y-100149500D01*
X103927864Y-100149500D01*
X102132129Y-100149500D01*
X102132123Y-100149501D01*
X102072516Y-100155908D01*
X101937671Y-100206202D01*
X101937664Y-100206206D01*
X101822455Y-100292452D01*
X101822452Y-100292455D01*
X101736206Y-100407664D01*
X101736203Y-100407669D01*
X101687189Y-100539083D01*
X101645317Y-100595016D01*
X101579853Y-100619433D01*
X101511580Y-100604581D01*
X101483326Y-100583430D01*
X101369786Y-100469890D01*
X101197820Y-100344951D01*
X101008414Y-100248444D01*
X101008413Y-100248443D01*
X101008412Y-100248443D01*
X100806243Y-100182754D01*
X100806241Y-100182753D01*
X100806240Y-100182753D01*
X100644957Y-100157208D01*
X100596287Y-100149500D01*
X100383713Y-100149500D01*
X100335042Y-100157208D01*
X100173760Y-100182753D01*
X99971585Y-100248444D01*
X99782179Y-100344951D01*
X99610213Y-100469890D01*
X99459890Y-100620213D01*
X99334949Y-100792182D01*
X99330484Y-100800946D01*
X99282509Y-100851742D01*
X99214688Y-100868536D01*
X99148553Y-100845998D01*
X99109516Y-100800946D01*
X99105050Y-100792182D01*
X98980109Y-100620213D01*
X98829786Y-100469890D01*
X98657820Y-100344951D01*
X98468414Y-100248444D01*
X98468413Y-100248443D01*
X98468412Y-100248443D01*
X98266243Y-100182754D01*
X98266241Y-100182753D01*
X98266240Y-100182753D01*
X98104957Y-100157208D01*
X98056287Y-100149500D01*
X97843713Y-100149500D01*
X97795042Y-100157208D01*
X97633760Y-100182753D01*
X97431585Y-100248444D01*
X97242179Y-100344951D01*
X97070213Y-100469890D01*
X96919890Y-100620213D01*
X96794949Y-100792182D01*
X96790484Y-100800946D01*
X96742509Y-100851742D01*
X96674688Y-100868536D01*
X96608553Y-100845998D01*
X96569516Y-100800946D01*
X96565050Y-100792182D01*
X96440109Y-100620213D01*
X96289786Y-100469890D01*
X96117820Y-100344951D01*
X95928414Y-100248444D01*
X95928413Y-100248443D01*
X95928412Y-100248443D01*
X95726243Y-100182754D01*
X95726241Y-100182753D01*
X95726240Y-100182753D01*
X95564957Y-100157208D01*
X95516287Y-100149500D01*
X95303713Y-100149500D01*
X95255042Y-100157208D01*
X95093760Y-100182753D01*
X94891585Y-100248444D01*
X94702179Y-100344951D01*
X94530213Y-100469890D01*
X94379890Y-100620213D01*
X94254951Y-100792179D01*
X94158444Y-100981585D01*
X94158443Y-100981587D01*
X94158443Y-100981588D01*
X94125598Y-101082672D01*
X94092753Y-101183760D01*
X94068101Y-101339411D01*
X94059500Y-101393713D01*
X94059500Y-101606287D01*
X94092754Y-101816243D01*
X94154806Y-102007219D01*
X94158444Y-102018414D01*
X94254951Y-102207820D01*
X94379890Y-102379786D01*
X94530213Y-102530109D01*
X94702179Y-102655048D01*
X94702181Y-102655049D01*
X94702184Y-102655051D01*
X94891588Y-102751557D01*
X95093757Y-102817246D01*
X95303713Y-102850500D01*
X95303714Y-102850500D01*
X95516286Y-102850500D01*
X95516287Y-102850500D01*
X95726243Y-102817246D01*
X95928412Y-102751557D01*
X96117816Y-102655051D01*
X96204138Y-102592335D01*
X96289786Y-102530109D01*
X96289788Y-102530106D01*
X96289792Y-102530104D01*
X96440104Y-102379792D01*
X96440106Y-102379788D01*
X96440109Y-102379786D01*
X96565048Y-102207820D01*
X96565047Y-102207820D01*
X96565051Y-102207816D01*
X96569514Y-102199054D01*
X96617488Y-102148259D01*
X96685308Y-102131463D01*
X96751444Y-102153999D01*
X96790486Y-102199056D01*
X96794951Y-102207820D01*
X96919890Y-102379786D01*
X97070213Y-102530109D01*
X97242179Y-102655048D01*
X97242181Y-102655049D01*
X97242184Y-102655051D01*
X97431588Y-102751557D01*
X97633757Y-102817246D01*
X97744671Y-102834813D01*
X97807805Y-102864742D01*
X97844737Y-102924053D01*
X97843739Y-102993916D01*
X97812954Y-103044967D01*
X97485743Y-103372179D01*
X97409711Y-103448211D01*
X97353960Y-103503962D01*
X97298209Y-103559712D01*
X97210609Y-103690814D01*
X97210602Y-103690827D01*
X97150263Y-103836500D01*
X97150262Y-103836504D01*
X97147306Y-103851366D01*
X97114919Y-103913276D01*
X97098576Y-103927488D01*
X97040208Y-103969895D01*
X96889890Y-104120213D01*
X96764949Y-104292182D01*
X96760484Y-104300946D01*
X96712509Y-104351742D01*
X96644688Y-104368536D01*
X96578553Y-104345998D01*
X96539516Y-104300946D01*
X96535050Y-104292182D01*
X96410109Y-104120213D01*
X96259786Y-103969890D01*
X96087820Y-103844951D01*
X95898414Y-103748444D01*
X95898413Y-103748443D01*
X95898412Y-103748443D01*
X95696243Y-103682754D01*
X95696241Y-103682753D01*
X95696240Y-103682753D01*
X95534957Y-103657208D01*
X95486287Y-103649500D01*
X95273713Y-103649500D01*
X95225042Y-103657208D01*
X95063760Y-103682753D01*
X94861585Y-103748444D01*
X94672179Y-103844951D01*
X94500213Y-103969890D01*
X94349890Y-104120213D01*
X94224951Y-104292179D01*
X94128444Y-104481585D01*
X94062753Y-104683760D01*
X94046272Y-104787820D01*
X94029500Y-104893713D01*
X91650500Y-104893713D01*
X91617246Y-104683757D01*
X91551557Y-104481588D01*
X91455051Y-104292184D01*
X91455049Y-104292181D01*
X91455048Y-104292179D01*
X91330109Y-104120213D01*
X91179786Y-103969890D01*
X91007820Y-103844951D01*
X90818414Y-103748444D01*
X90818413Y-103748443D01*
X90818412Y-103748443D01*
X90616243Y-103682754D01*
X90616241Y-103682753D01*
X90616240Y-103682753D01*
X90454957Y-103657208D01*
X90406287Y-103649500D01*
X90193713Y-103649500D01*
X90145042Y-103657208D01*
X89983760Y-103682753D01*
X89781585Y-103748444D01*
X89592179Y-103844951D01*
X89420213Y-103969890D01*
X89269890Y-104120213D01*
X89144951Y-104292179D01*
X89048444Y-104481585D01*
X88982753Y-104683760D01*
X88966272Y-104787820D01*
X88949500Y-104893713D01*
X81750500Y-104893713D01*
X81750500Y-100913389D01*
X85149500Y-100913389D01*
X85149500Y-101086610D01*
X85170140Y-101216930D01*
X85176598Y-101257701D01*
X85230127Y-101422445D01*
X85308768Y-101576788D01*
X85410586Y-101716928D01*
X85533072Y-101839414D01*
X85673212Y-101941232D01*
X85827555Y-102019873D01*
X85992299Y-102073402D01*
X86163389Y-102100500D01*
X86163390Y-102100500D01*
X86336610Y-102100500D01*
X86336611Y-102100500D01*
X86507701Y-102073402D01*
X86672445Y-102019873D01*
X86826788Y-101941232D01*
X86966928Y-101839414D01*
X87089414Y-101716928D01*
X87191232Y-101576788D01*
X87269873Y-101422445D01*
X87323402Y-101257701D01*
X87350500Y-101086611D01*
X87350500Y-100913389D01*
X87323402Y-100742299D01*
X87269873Y-100577555D01*
X87191232Y-100423212D01*
X87089414Y-100283072D01*
X86966928Y-100160586D01*
X86826788Y-100058768D01*
X86672445Y-99980127D01*
X86507701Y-99926598D01*
X86507699Y-99926597D01*
X86507698Y-99926597D01*
X86376271Y-99905781D01*
X86336611Y-99899500D01*
X86163389Y-99899500D01*
X86123728Y-99905781D01*
X85992302Y-99926597D01*
X85827552Y-99980128D01*
X85673211Y-100058768D01*
X85593256Y-100116859D01*
X85533072Y-100160586D01*
X85533070Y-100160588D01*
X85533069Y-100160588D01*
X85410588Y-100283069D01*
X85410588Y-100283070D01*
X85410586Y-100283072D01*
X85374666Y-100332512D01*
X85308768Y-100423211D01*
X85230128Y-100577552D01*
X85176597Y-100742302D01*
X85149500Y-100913389D01*
X81750500Y-100913389D01*
X81750500Y-97893713D01*
X88909500Y-97893713D01*
X88909500Y-98106286D01*
X88938942Y-98292179D01*
X88942754Y-98316243D01*
X88977261Y-98422445D01*
X89008444Y-98518414D01*
X89104951Y-98707820D01*
X89229890Y-98879786D01*
X89380213Y-99030109D01*
X89552179Y-99155048D01*
X89552181Y-99155049D01*
X89552184Y-99155051D01*
X89741588Y-99251557D01*
X89943757Y-99317246D01*
X90153713Y-99350500D01*
X90153714Y-99350500D01*
X90366286Y-99350500D01*
X90366287Y-99350500D01*
X90576243Y-99317246D01*
X90778412Y-99251557D01*
X90967816Y-99155051D01*
X90989789Y-99139086D01*
X91139786Y-99030109D01*
X91139788Y-99030106D01*
X91139792Y-99030104D01*
X91290104Y-98879792D01*
X91290106Y-98879788D01*
X91290109Y-98879786D01*
X91415048Y-98707820D01*
X91415047Y-98707820D01*
X91415051Y-98707816D01*
X91511557Y-98518412D01*
X91577246Y-98316243D01*
X91610500Y-98106287D01*
X91610500Y-97893713D01*
X93989500Y-97893713D01*
X93989500Y-98106286D01*
X94018942Y-98292179D01*
X94022754Y-98316243D01*
X94057261Y-98422445D01*
X94088444Y-98518414D01*
X94184951Y-98707820D01*
X94309890Y-98879786D01*
X94460213Y-99030109D01*
X94632179Y-99155048D01*
X94632181Y-99155049D01*
X94632184Y-99155051D01*
X94821588Y-99251557D01*
X95023757Y-99317246D01*
X95233713Y-99350500D01*
X95233714Y-99350500D01*
X95446286Y-99350500D01*
X95446287Y-99350500D01*
X95656243Y-99317246D01*
X95858412Y-99251557D01*
X96047816Y-99155051D01*
X96069789Y-99139086D01*
X96219786Y-99030109D01*
X96219788Y-99030106D01*
X96219792Y-99030104D01*
X96370104Y-98879792D01*
X96370106Y-98879788D01*
X96370109Y-98879786D01*
X96495048Y-98707820D01*
X96495047Y-98707820D01*
X96495051Y-98707816D01*
X96499514Y-98699054D01*
X96547488Y-98648259D01*
X96615308Y-98631463D01*
X96681444Y-98653999D01*
X96720486Y-98699056D01*
X96724951Y-98707820D01*
X96849890Y-98879786D01*
X97000213Y-99030109D01*
X97172179Y-99155048D01*
X97172181Y-99155049D01*
X97172184Y-99155051D01*
X97361588Y-99251557D01*
X97563757Y-99317246D01*
X97773713Y-99350500D01*
X97773714Y-99350500D01*
X97986286Y-99350500D01*
X97986287Y-99350500D01*
X98196243Y-99317246D01*
X98398412Y-99251557D01*
X98587816Y-99155051D01*
X98609789Y-99139086D01*
X98759786Y-99030109D01*
X98759788Y-99030106D01*
X98759792Y-99030104D01*
X98910104Y-98879792D01*
X98910106Y-98879788D01*
X98910109Y-98879786D01*
X99035048Y-98707820D01*
X99035047Y-98707820D01*
X99035051Y-98707816D01*
X99039514Y-98699054D01*
X99087488Y-98648259D01*
X99155308Y-98631463D01*
X99221444Y-98653999D01*
X99260486Y-98699056D01*
X99264951Y-98707820D01*
X99389890Y-98879786D01*
X99540213Y-99030109D01*
X99712179Y-99155048D01*
X99712181Y-99155049D01*
X99712184Y-99155051D01*
X99901588Y-99251557D01*
X100103757Y-99317246D01*
X100313713Y-99350500D01*
X100313714Y-99350500D01*
X100526286Y-99350500D01*
X100526287Y-99350500D01*
X100736243Y-99317246D01*
X100938412Y-99251557D01*
X101127816Y-99155051D01*
X101149789Y-99139086D01*
X101299786Y-99030109D01*
X101299788Y-99030106D01*
X101299792Y-99030104D01*
X101450104Y-98879792D01*
X101450106Y-98879788D01*
X101450109Y-98879786D01*
X101575048Y-98707820D01*
X101575047Y-98707820D01*
X101575051Y-98707816D01*
X101579514Y-98699054D01*
X101627488Y-98648259D01*
X101695308Y-98631463D01*
X101761444Y-98653999D01*
X101800486Y-98699056D01*
X101804951Y-98707820D01*
X101929890Y-98879786D01*
X102080213Y-99030109D01*
X102252179Y-99155048D01*
X102252181Y-99155049D01*
X102252184Y-99155051D01*
X102441588Y-99251557D01*
X102643757Y-99317246D01*
X102853713Y-99350500D01*
X102853714Y-99350500D01*
X103066286Y-99350500D01*
X103066287Y-99350500D01*
X103276243Y-99317246D01*
X103478412Y-99251557D01*
X103667816Y-99155051D01*
X103689789Y-99139086D01*
X103839786Y-99030109D01*
X103839788Y-99030106D01*
X103839792Y-99030104D01*
X103990104Y-98879792D01*
X103990106Y-98879788D01*
X103990109Y-98879786D01*
X104115048Y-98707820D01*
X104115047Y-98707820D01*
X104115051Y-98707816D01*
X104119514Y-98699054D01*
X104167488Y-98648259D01*
X104235308Y-98631463D01*
X104301444Y-98653999D01*
X104340486Y-98699056D01*
X104344951Y-98707820D01*
X104469890Y-98879786D01*
X104620213Y-99030109D01*
X104792179Y-99155048D01*
X104792181Y-99155049D01*
X104792184Y-99155051D01*
X104981588Y-99251557D01*
X105183757Y-99317246D01*
X105393713Y-99350500D01*
X105393714Y-99350500D01*
X105606286Y-99350500D01*
X105606287Y-99350500D01*
X105816243Y-99317246D01*
X106018412Y-99251557D01*
X106207816Y-99155051D01*
X106229789Y-99139086D01*
X106379786Y-99030109D01*
X106379788Y-99030106D01*
X106379792Y-99030104D01*
X106530104Y-98879792D01*
X106530106Y-98879788D01*
X106530109Y-98879786D01*
X106655048Y-98707820D01*
X106655047Y-98707820D01*
X106655051Y-98707816D01*
X106659514Y-98699054D01*
X106707488Y-98648259D01*
X106775308Y-98631463D01*
X106841444Y-98653999D01*
X106880486Y-98699056D01*
X106884951Y-98707820D01*
X107009890Y-98879786D01*
X107160213Y-99030109D01*
X107332179Y-99155048D01*
X107332181Y-99155049D01*
X107332184Y-99155051D01*
X107521588Y-99251557D01*
X107723757Y-99317246D01*
X107933713Y-99350500D01*
X107933714Y-99350500D01*
X108146286Y-99350500D01*
X108146287Y-99350500D01*
X108356243Y-99317246D01*
X108558412Y-99251557D01*
X108747816Y-99155051D01*
X108769789Y-99139086D01*
X108919786Y-99030109D01*
X108919788Y-99030106D01*
X108919792Y-99030104D01*
X109070104Y-98879792D01*
X109070106Y-98879788D01*
X109070109Y-98879786D01*
X109195048Y-98707820D01*
X109195047Y-98707820D01*
X109195051Y-98707816D01*
X109291557Y-98518412D01*
X109357246Y-98316243D01*
X109390500Y-98106287D01*
X109390500Y-97913389D01*
X130899500Y-97913389D01*
X130899500Y-98086610D01*
X130916402Y-98193330D01*
X130926598Y-98257701D01*
X130980127Y-98422445D01*
X131058768Y-98576788D01*
X131160586Y-98716928D01*
X131283072Y-98839414D01*
X131423212Y-98941232D01*
X131577555Y-99019873D01*
X131742299Y-99073402D01*
X131913389Y-99100500D01*
X131913390Y-99100500D01*
X132086610Y-99100500D01*
X132086611Y-99100500D01*
X132257701Y-99073402D01*
X132422445Y-99019873D01*
X132576788Y-98941232D01*
X132716928Y-98839414D01*
X132839414Y-98716928D01*
X132941232Y-98576788D01*
X133019873Y-98422445D01*
X133073402Y-98257701D01*
X133100500Y-98086611D01*
X133100500Y-97913389D01*
X133073402Y-97742299D01*
X133019873Y-97577555D01*
X132941232Y-97423212D01*
X132839414Y-97283072D01*
X132716928Y-97160586D01*
X132576788Y-97058768D01*
X132459923Y-96999223D01*
X132422447Y-96980128D01*
X132422446Y-96980127D01*
X132422445Y-96980127D01*
X132257701Y-96926598D01*
X132257699Y-96926597D01*
X132257698Y-96926597D01*
X132126271Y-96905781D01*
X132086611Y-96899500D01*
X131913389Y-96899500D01*
X131873728Y-96905781D01*
X131742302Y-96926597D01*
X131577552Y-96980128D01*
X131423211Y-97058768D01*
X131373679Y-97094756D01*
X131283072Y-97160586D01*
X131283070Y-97160588D01*
X131283069Y-97160588D01*
X131160588Y-97283069D01*
X131160588Y-97283070D01*
X131160586Y-97283072D01*
X131153966Y-97292184D01*
X131058768Y-97423211D01*
X130980128Y-97577552D01*
X130926597Y-97742302D01*
X130899500Y-97913389D01*
X109390500Y-97913389D01*
X109390500Y-97893713D01*
X109357246Y-97683757D01*
X109291557Y-97481588D01*
X109195051Y-97292184D01*
X109195049Y-97292181D01*
X109195048Y-97292179D01*
X109070109Y-97120213D01*
X108919786Y-96969890D01*
X108747820Y-96844951D01*
X108558414Y-96748444D01*
X108558413Y-96748443D01*
X108558412Y-96748443D01*
X108356243Y-96682754D01*
X108356241Y-96682753D01*
X108356240Y-96682753D01*
X108194957Y-96657208D01*
X108146287Y-96649500D01*
X107933713Y-96649500D01*
X107885042Y-96657208D01*
X107723760Y-96682753D01*
X107521585Y-96748444D01*
X107332179Y-96844951D01*
X107160213Y-96969890D01*
X107009890Y-97120213D01*
X106884949Y-97292182D01*
X106880484Y-97300946D01*
X106832509Y-97351742D01*
X106764688Y-97368536D01*
X106698553Y-97345998D01*
X106659516Y-97300946D01*
X106655050Y-97292182D01*
X106530109Y-97120213D01*
X106379786Y-96969890D01*
X106207820Y-96844951D01*
X106018414Y-96748444D01*
X106018413Y-96748443D01*
X106018412Y-96748443D01*
X105816243Y-96682754D01*
X105816241Y-96682753D01*
X105816240Y-96682753D01*
X105654957Y-96657208D01*
X105606287Y-96649500D01*
X105393713Y-96649500D01*
X105357376Y-96655255D01*
X105343896Y-96657390D01*
X105328275Y-96655370D01*
X105312814Y-96658364D01*
X105294335Y-96650983D01*
X105274602Y-96648433D01*
X105262553Y-96638290D01*
X105247928Y-96632449D01*
X105236372Y-96616250D01*
X105221151Y-96603436D01*
X105215975Y-96587655D01*
X105207353Y-96575569D01*
X105202428Y-96546354D01*
X105200645Y-96540918D01*
X105200500Y-96537925D01*
X105200500Y-96406384D01*
X105190023Y-96353713D01*
X134649500Y-96353713D01*
X134649500Y-96566286D01*
X134677099Y-96740543D01*
X134682754Y-96776243D01*
X134735952Y-96939970D01*
X134748444Y-96978414D01*
X134844951Y-97167820D01*
X134969890Y-97339786D01*
X135120213Y-97490109D01*
X135292182Y-97615050D01*
X135300946Y-97619516D01*
X135351742Y-97667491D01*
X135368536Y-97735312D01*
X135345998Y-97801447D01*
X135300946Y-97840484D01*
X135292182Y-97844949D01*
X135120213Y-97969890D01*
X134969890Y-98120213D01*
X134844951Y-98292179D01*
X134748444Y-98481585D01*
X134748443Y-98481587D01*
X134748443Y-98481588D01*
X134715598Y-98582672D01*
X134682753Y-98683760D01*
X134649500Y-98893713D01*
X134649500Y-99106286D01*
X134672508Y-99251557D01*
X134682754Y-99316243D01*
X134736003Y-99480127D01*
X134748444Y-99518414D01*
X134844951Y-99707820D01*
X134969890Y-99879786D01*
X135120213Y-100030109D01*
X135292182Y-100155050D01*
X135300946Y-100159516D01*
X135351742Y-100207491D01*
X135368536Y-100275312D01*
X135345998Y-100341447D01*
X135300946Y-100380484D01*
X135292182Y-100384949D01*
X135120213Y-100509890D01*
X134969890Y-100660213D01*
X134844951Y-100832179D01*
X134748444Y-101021585D01*
X134682753Y-101223760D01*
X134649500Y-101433713D01*
X134649500Y-101646286D01*
X134680436Y-101841613D01*
X134682754Y-101856243D01*
X134735920Y-102019871D01*
X134748444Y-102058414D01*
X134844951Y-102247820D01*
X134969890Y-102419786D01*
X135120213Y-102570109D01*
X135292182Y-102695050D01*
X135300946Y-102699516D01*
X135351742Y-102747491D01*
X135368536Y-102815312D01*
X135345998Y-102881447D01*
X135300946Y-102920484D01*
X135292182Y-102924949D01*
X135120213Y-103049890D01*
X134969890Y-103200213D01*
X134844951Y-103372179D01*
X134748444Y-103561585D01*
X134748443Y-103561587D01*
X134748443Y-103561588D01*
X134719879Y-103649500D01*
X134682753Y-103763760D01*
X134649500Y-103973713D01*
X134649500Y-104186286D01*
X134678365Y-104368536D01*
X134682754Y-104396243D01*
X134728927Y-104538349D01*
X134748444Y-104598414D01*
X134844951Y-104787820D01*
X134969890Y-104959786D01*
X135120213Y-105110109D01*
X135292179Y-105235048D01*
X135292181Y-105235049D01*
X135292184Y-105235051D01*
X135481588Y-105331557D01*
X135683757Y-105397246D01*
X135893713Y-105430500D01*
X135893714Y-105430500D01*
X136106286Y-105430500D01*
X136106287Y-105430500D01*
X136316243Y-105397246D01*
X136518412Y-105331557D01*
X136707816Y-105235051D01*
X136729789Y-105219086D01*
X136879786Y-105110109D01*
X136879788Y-105110106D01*
X136879792Y-105110104D01*
X137030104Y-104959792D01*
X137030106Y-104959788D01*
X137030109Y-104959786D01*
X137155048Y-104787820D01*
X137155047Y-104787820D01*
X137155051Y-104787816D01*
X137251557Y-104598412D01*
X137317246Y-104396243D01*
X137350500Y-104186287D01*
X137350500Y-103973713D01*
X137317246Y-103763757D01*
X137251557Y-103561588D01*
X137155051Y-103372184D01*
X137155049Y-103372181D01*
X137155048Y-103372179D01*
X137030109Y-103200213D01*
X136879786Y-103049890D01*
X136707820Y-102924951D01*
X136704405Y-102923211D01*
X136699054Y-102920485D01*
X136648259Y-102872512D01*
X136631463Y-102804692D01*
X136653999Y-102738556D01*
X136699054Y-102699515D01*
X136707816Y-102695051D01*
X136762876Y-102655048D01*
X136879786Y-102570109D01*
X136879788Y-102570106D01*
X136879792Y-102570104D01*
X137030104Y-102419792D01*
X137030106Y-102419788D01*
X137030109Y-102419786D01*
X137155048Y-102247820D01*
X137155047Y-102247820D01*
X137155051Y-102247816D01*
X137251557Y-102058412D01*
X137317246Y-101856243D01*
X137350500Y-101646287D01*
X137350500Y-101433713D01*
X137317246Y-101223757D01*
X137263274Y-101057648D01*
X196759500Y-101057648D01*
X196759500Y-101262351D01*
X196791522Y-101464534D01*
X196854781Y-101659223D01*
X196884185Y-101716930D01*
X196946594Y-101839414D01*
X196947715Y-101841613D01*
X197068028Y-102007213D01*
X197212786Y-102151971D01*
X197344708Y-102247816D01*
X197378390Y-102272287D01*
X197494607Y-102331503D01*
X197560776Y-102365218D01*
X197560778Y-102365218D01*
X197560781Y-102365220D01*
X197615761Y-102383084D01*
X197755465Y-102428477D01*
X197856557Y-102444488D01*
X197957648Y-102460500D01*
X197957649Y-102460500D01*
X198162351Y-102460500D01*
X198162352Y-102460500D01*
X198364534Y-102428477D01*
X198559219Y-102365220D01*
X198741610Y-102272287D01*
X198842405Y-102199056D01*
X198907213Y-102151971D01*
X198907215Y-102151968D01*
X198907219Y-102151966D01*
X199051966Y-102007219D01*
X199051968Y-102007215D01*
X199051971Y-102007213D01*
X199104732Y-101934590D01*
X199172287Y-101841610D01*
X199265220Y-101659219D01*
X199328477Y-101464534D01*
X199360500Y-101262352D01*
X199360500Y-101057648D01*
X200009500Y-101057648D01*
X200009500Y-101262351D01*
X200041522Y-101464534D01*
X200104781Y-101659223D01*
X200134185Y-101716930D01*
X200196594Y-101839414D01*
X200197715Y-101841613D01*
X200318028Y-102007213D01*
X200462786Y-102151971D01*
X200594708Y-102247816D01*
X200628390Y-102272287D01*
X200744607Y-102331503D01*
X200810776Y-102365218D01*
X200810778Y-102365218D01*
X200810781Y-102365220D01*
X200865761Y-102383084D01*
X201005465Y-102428477D01*
X201106557Y-102444488D01*
X201207648Y-102460500D01*
X201207649Y-102460500D01*
X201412351Y-102460500D01*
X201412352Y-102460500D01*
X201614534Y-102428477D01*
X201809219Y-102365220D01*
X201991610Y-102272287D01*
X202092405Y-102199056D01*
X202157213Y-102151971D01*
X202157215Y-102151968D01*
X202157219Y-102151966D01*
X202301966Y-102007219D01*
X202301968Y-102007215D01*
X202301971Y-102007213D01*
X202354732Y-101934590D01*
X202422287Y-101841610D01*
X202515220Y-101659219D01*
X202578477Y-101464534D01*
X202610500Y-101262352D01*
X202610500Y-101057648D01*
X202580547Y-100868536D01*
X202578477Y-100855465D01*
X202515218Y-100660776D01*
X202472814Y-100577555D01*
X202422287Y-100478390D01*
X202403005Y-100451850D01*
X202301971Y-100312786D01*
X202157213Y-100168028D01*
X201991613Y-100047715D01*
X201991612Y-100047714D01*
X201991610Y-100047713D01*
X201934653Y-100018691D01*
X201809223Y-99954781D01*
X201614534Y-99891522D01*
X201439995Y-99863878D01*
X201412352Y-99859500D01*
X201207648Y-99859500D01*
X201183329Y-99863351D01*
X201005465Y-99891522D01*
X200810776Y-99954781D01*
X200628386Y-100047715D01*
X200462786Y-100168028D01*
X200318028Y-100312786D01*
X200197715Y-100478386D01*
X200104781Y-100660776D01*
X200041522Y-100855465D01*
X200009500Y-101057648D01*
X199360500Y-101057648D01*
X199330547Y-100868536D01*
X199328477Y-100855465D01*
X199265218Y-100660776D01*
X199222814Y-100577555D01*
X199172287Y-100478390D01*
X199153005Y-100451850D01*
X199051971Y-100312786D01*
X198907213Y-100168028D01*
X198741613Y-100047715D01*
X198741612Y-100047714D01*
X198741610Y-100047713D01*
X198684653Y-100018691D01*
X198559223Y-99954781D01*
X198364534Y-99891522D01*
X198189995Y-99863878D01*
X198162352Y-99859500D01*
X197957648Y-99859500D01*
X197933329Y-99863351D01*
X197755465Y-99891522D01*
X197560776Y-99954781D01*
X197378386Y-100047715D01*
X197212786Y-100168028D01*
X197068028Y-100312786D01*
X196947715Y-100478386D01*
X196854781Y-100660776D01*
X196791522Y-100855465D01*
X196759500Y-101057648D01*
X137263274Y-101057648D01*
X137251557Y-101021588D01*
X137251555Y-101021585D01*
X137251555Y-101021583D01*
X137169119Y-100859794D01*
X137155051Y-100832184D01*
X137155049Y-100832181D01*
X137155048Y-100832179D01*
X137030109Y-100660213D01*
X136879786Y-100509890D01*
X136707820Y-100384951D01*
X136707115Y-100384591D01*
X136699054Y-100380485D01*
X136648259Y-100332512D01*
X136631463Y-100264692D01*
X136653999Y-100198556D01*
X136699054Y-100159515D01*
X136707816Y-100155051D01*
X136814485Y-100077552D01*
X136879786Y-100030109D01*
X136879788Y-100030106D01*
X136879792Y-100030104D01*
X137030104Y-99879792D01*
X137030106Y-99879788D01*
X137030109Y-99879786D01*
X137155048Y-99707820D01*
X137155047Y-99707820D01*
X137155051Y-99707816D01*
X137251557Y-99518412D01*
X137317246Y-99316243D01*
X137350500Y-99106287D01*
X137350500Y-98893713D01*
X137317246Y-98683757D01*
X137251557Y-98481588D01*
X137155051Y-98292184D01*
X137155049Y-98292181D01*
X137155048Y-98292179D01*
X137030109Y-98120213D01*
X136879786Y-97969890D01*
X136707820Y-97844951D01*
X136707115Y-97844591D01*
X136699054Y-97840485D01*
X136648259Y-97792512D01*
X136631463Y-97724692D01*
X136653999Y-97658556D01*
X136699054Y-97619515D01*
X136707816Y-97615051D01*
X136813388Y-97538349D01*
X136879786Y-97490109D01*
X136879788Y-97490106D01*
X136879792Y-97490104D01*
X137030104Y-97339792D01*
X137030106Y-97339788D01*
X137030109Y-97339786D01*
X137155048Y-97167820D01*
X137155047Y-97167820D01*
X137155051Y-97167816D01*
X137251557Y-96978412D01*
X137317246Y-96776243D01*
X137350500Y-96566287D01*
X137350500Y-96353713D01*
X137317246Y-96143757D01*
X137251557Y-95941588D01*
X137155051Y-95752184D01*
X137155049Y-95752181D01*
X137155048Y-95752179D01*
X137030109Y-95580213D01*
X136879786Y-95429890D01*
X136707820Y-95304951D01*
X136518414Y-95208444D01*
X136518413Y-95208443D01*
X136518412Y-95208443D01*
X136316243Y-95142754D01*
X136316241Y-95142753D01*
X136316240Y-95142753D01*
X136154957Y-95117208D01*
X136106287Y-95109500D01*
X135893713Y-95109500D01*
X135845042Y-95117208D01*
X135683760Y-95142753D01*
X135481585Y-95208444D01*
X135292179Y-95304951D01*
X135120213Y-95429890D01*
X134969890Y-95580213D01*
X134844951Y-95752179D01*
X134748444Y-95941585D01*
X134682753Y-96143760D01*
X134649500Y-96353713D01*
X105190023Y-96353713D01*
X105163973Y-96222749D01*
X105092322Y-96049769D01*
X105092321Y-96049768D01*
X105092318Y-96049762D01*
X104988302Y-95894092D01*
X104988299Y-95894088D01*
X104855911Y-95761700D01*
X104855907Y-95761697D01*
X104700237Y-95657681D01*
X104700228Y-95657676D01*
X104527251Y-95586027D01*
X104527243Y-95586025D01*
X104343620Y-95549500D01*
X104343616Y-95549500D01*
X104341519Y-95549500D01*
X104340460Y-95549189D01*
X104337555Y-95548903D01*
X104337609Y-95548351D01*
X104274480Y-95529815D01*
X104253838Y-95513181D01*
X103236819Y-94496162D01*
X103203334Y-94434839D01*
X103200500Y-94408481D01*
X103200500Y-94406383D01*
X103200499Y-94406379D01*
X103163973Y-94222749D01*
X103092322Y-94049769D01*
X103092321Y-94049768D01*
X103092318Y-94049762D01*
X102988302Y-93894092D01*
X102988299Y-93894088D01*
X102855911Y-93761700D01*
X102855907Y-93761697D01*
X102700237Y-93657681D01*
X102700228Y-93657676D01*
X102527251Y-93586027D01*
X102527243Y-93586025D01*
X102343620Y-93549500D01*
X102343616Y-93549500D01*
X102156384Y-93549500D01*
X102156379Y-93549500D01*
X101972756Y-93586025D01*
X101972748Y-93586027D01*
X101799771Y-93657676D01*
X101799762Y-93657681D01*
X101644092Y-93761697D01*
X101644088Y-93761700D01*
X101511700Y-93894088D01*
X101511697Y-93894092D01*
X101407681Y-94049762D01*
X101407676Y-94049771D01*
X101336027Y-94222748D01*
X101336025Y-94222756D01*
X101299500Y-94406379D01*
X101299500Y-94593620D01*
X101336025Y-94777243D01*
X101336027Y-94777251D01*
X101407676Y-94950228D01*
X101407681Y-94950237D01*
X101511697Y-95105907D01*
X101511700Y-95105911D01*
X101644088Y-95238299D01*
X101644092Y-95238302D01*
X101799762Y-95342318D01*
X101799768Y-95342321D01*
X101799769Y-95342322D01*
X101972749Y-95413973D01*
X102156379Y-95450499D01*
X102156383Y-95450500D01*
X102156384Y-95450500D01*
X102158481Y-95450500D01*
X102159539Y-95450810D01*
X102162445Y-95451097D01*
X102162390Y-95451648D01*
X102225520Y-95470185D01*
X102246162Y-95486819D01*
X103203454Y-96444111D01*
X103236939Y-96505434D01*
X103231955Y-96575126D01*
X103190083Y-96631059D01*
X103124619Y-96655476D01*
X103096378Y-96654266D01*
X103066287Y-96649500D01*
X102853713Y-96649500D01*
X102805042Y-96657208D01*
X102643760Y-96682753D01*
X102441585Y-96748444D01*
X102252179Y-96844951D01*
X102080213Y-96969890D01*
X101929890Y-97120213D01*
X101804949Y-97292182D01*
X101800484Y-97300946D01*
X101752509Y-97351742D01*
X101684688Y-97368536D01*
X101618553Y-97345998D01*
X101579516Y-97300946D01*
X101575050Y-97292182D01*
X101450109Y-97120213D01*
X101299786Y-96969890D01*
X101127820Y-96844951D01*
X100938414Y-96748444D01*
X100938413Y-96748443D01*
X100938412Y-96748443D01*
X100736243Y-96682754D01*
X100736241Y-96682753D01*
X100736240Y-96682753D01*
X100574957Y-96657208D01*
X100526287Y-96649500D01*
X100313713Y-96649500D01*
X100265042Y-96657208D01*
X100103760Y-96682753D01*
X99901585Y-96748444D01*
X99712179Y-96844951D01*
X99540213Y-96969890D01*
X99389890Y-97120213D01*
X99264949Y-97292182D01*
X99260484Y-97300946D01*
X99212509Y-97351742D01*
X99144688Y-97368536D01*
X99078553Y-97345998D01*
X99039516Y-97300946D01*
X99035050Y-97292182D01*
X98910109Y-97120213D01*
X98759786Y-96969890D01*
X98587820Y-96844951D01*
X98398414Y-96748444D01*
X98398413Y-96748443D01*
X98398412Y-96748443D01*
X98196243Y-96682754D01*
X98196241Y-96682753D01*
X98196240Y-96682753D01*
X98034957Y-96657208D01*
X97986287Y-96649500D01*
X97773713Y-96649500D01*
X97725042Y-96657208D01*
X97563760Y-96682753D01*
X97361585Y-96748444D01*
X97172179Y-96844951D01*
X97000213Y-96969890D01*
X96849890Y-97120213D01*
X96724949Y-97292182D01*
X96720484Y-97300946D01*
X96672509Y-97351742D01*
X96604688Y-97368536D01*
X96538553Y-97345998D01*
X96499516Y-97300946D01*
X96495050Y-97292182D01*
X96370109Y-97120213D01*
X96219786Y-96969890D01*
X96047820Y-96844951D01*
X95858414Y-96748444D01*
X95858413Y-96748443D01*
X95858412Y-96748443D01*
X95656243Y-96682754D01*
X95656241Y-96682753D01*
X95656240Y-96682753D01*
X95494957Y-96657208D01*
X95446287Y-96649500D01*
X95233713Y-96649500D01*
X95185042Y-96657208D01*
X95023760Y-96682753D01*
X94821585Y-96748444D01*
X94632179Y-96844951D01*
X94460213Y-96969890D01*
X94309890Y-97120213D01*
X94184951Y-97292179D01*
X94088444Y-97481585D01*
X94022753Y-97683760D01*
X93989500Y-97893713D01*
X91610500Y-97893713D01*
X91577246Y-97683757D01*
X91511557Y-97481588D01*
X91415051Y-97292184D01*
X91415049Y-97292181D01*
X91415048Y-97292179D01*
X91290109Y-97120213D01*
X91139786Y-96969890D01*
X90967820Y-96844951D01*
X90778414Y-96748444D01*
X90778413Y-96748443D01*
X90778412Y-96748443D01*
X90576243Y-96682754D01*
X90576241Y-96682753D01*
X90576240Y-96682753D01*
X90414957Y-96657208D01*
X90366287Y-96649500D01*
X90153713Y-96649500D01*
X90105042Y-96657208D01*
X89943760Y-96682753D01*
X89741585Y-96748444D01*
X89552179Y-96844951D01*
X89380213Y-96969890D01*
X89229890Y-97120213D01*
X89104951Y-97292179D01*
X89008444Y-97481585D01*
X88942753Y-97683760D01*
X88909500Y-97893713D01*
X81750500Y-97893713D01*
X81750500Y-90413389D01*
X85149500Y-90413389D01*
X85149500Y-90586611D01*
X85176598Y-90757701D01*
X85230127Y-90922445D01*
X85308768Y-91076788D01*
X85410586Y-91216928D01*
X85533072Y-91339414D01*
X85673212Y-91441232D01*
X85827555Y-91519873D01*
X85992299Y-91573402D01*
X86163389Y-91600500D01*
X86163390Y-91600500D01*
X86336610Y-91600500D01*
X86336611Y-91600500D01*
X86507701Y-91573402D01*
X86672445Y-91519873D01*
X86826788Y-91441232D01*
X86966928Y-91339414D01*
X87089414Y-91216928D01*
X87191232Y-91076788D01*
X87269873Y-90922445D01*
X87323402Y-90757701D01*
X87350500Y-90586611D01*
X87350500Y-90413389D01*
X87323402Y-90242299D01*
X87269873Y-90077555D01*
X87191232Y-89923212D01*
X87089414Y-89783072D01*
X86966928Y-89660586D01*
X86826788Y-89558768D01*
X86672445Y-89480127D01*
X86507701Y-89426598D01*
X86507699Y-89426597D01*
X86507698Y-89426597D01*
X86376271Y-89405781D01*
X86336611Y-89399500D01*
X86163389Y-89399500D01*
X86123728Y-89405781D01*
X85992302Y-89426597D01*
X85827552Y-89480128D01*
X85673211Y-89558768D01*
X85593256Y-89616859D01*
X85533072Y-89660586D01*
X85533070Y-89660588D01*
X85533069Y-89660588D01*
X85410588Y-89783069D01*
X85410588Y-89783070D01*
X85410586Y-89783072D01*
X85402080Y-89794780D01*
X85308768Y-89923211D01*
X85230128Y-90077552D01*
X85176597Y-90242302D01*
X85164547Y-90318386D01*
X85149500Y-90413389D01*
X81750500Y-90413389D01*
X81750500Y-84128711D01*
X83149500Y-84128711D01*
X83149500Y-84371288D01*
X83179734Y-84600946D01*
X83181162Y-84611789D01*
X83196367Y-84668536D01*
X83243947Y-84846104D01*
X83300965Y-84983757D01*
X83336776Y-85070212D01*
X83458064Y-85280289D01*
X83458066Y-85280292D01*
X83458067Y-85280293D01*
X83605733Y-85472736D01*
X83605739Y-85472743D01*
X83777256Y-85644260D01*
X83777262Y-85644265D01*
X83969711Y-85791936D01*
X84179788Y-85913224D01*
X84403900Y-86006054D01*
X84638211Y-86068838D01*
X84818586Y-86092584D01*
X84878711Y-86100500D01*
X84878712Y-86100500D01*
X85121289Y-86100500D01*
X85169388Y-86094167D01*
X85361789Y-86068838D01*
X85596100Y-86006054D01*
X85820212Y-85913224D01*
X86030289Y-85791936D01*
X86222738Y-85644265D01*
X86394265Y-85472738D01*
X86541936Y-85280289D01*
X86591921Y-85193713D01*
X88909500Y-85193713D01*
X88909500Y-85406287D01*
X88942754Y-85616243D01*
X88999840Y-85791936D01*
X89008444Y-85818414D01*
X89104951Y-86007820D01*
X89229890Y-86179786D01*
X89380213Y-86330109D01*
X89552179Y-86455048D01*
X89552181Y-86455049D01*
X89552184Y-86455051D01*
X89741588Y-86551557D01*
X89943757Y-86617246D01*
X90153713Y-86650500D01*
X90153714Y-86650500D01*
X90366286Y-86650500D01*
X90366287Y-86650500D01*
X90576243Y-86617246D01*
X90778412Y-86551557D01*
X90967816Y-86455051D01*
X90998507Y-86432753D01*
X91139786Y-86330109D01*
X91139788Y-86330106D01*
X91139792Y-86330104D01*
X91290104Y-86179792D01*
X91290106Y-86179788D01*
X91290109Y-86179786D01*
X91415048Y-86007820D01*
X91415047Y-86007820D01*
X91415051Y-86007816D01*
X91511557Y-85818412D01*
X91577246Y-85616243D01*
X91610500Y-85406287D01*
X91610500Y-85193713D01*
X93989500Y-85193713D01*
X93989500Y-85406287D01*
X94022754Y-85616243D01*
X94079840Y-85791936D01*
X94088444Y-85818414D01*
X94184951Y-86007820D01*
X94309890Y-86179786D01*
X94460213Y-86330109D01*
X94632179Y-86455048D01*
X94632181Y-86455049D01*
X94632184Y-86455051D01*
X94821588Y-86551557D01*
X95023757Y-86617246D01*
X95233713Y-86650500D01*
X95233714Y-86650500D01*
X95446286Y-86650500D01*
X95446287Y-86650500D01*
X95656243Y-86617246D01*
X95858412Y-86551557D01*
X96047816Y-86455051D01*
X96078507Y-86432753D01*
X96219786Y-86330109D01*
X96219788Y-86330106D01*
X96219792Y-86330104D01*
X96370104Y-86179792D01*
X96370106Y-86179788D01*
X96370109Y-86179786D01*
X96495048Y-86007820D01*
X96495047Y-86007820D01*
X96495051Y-86007816D01*
X96499514Y-85999054D01*
X96547488Y-85948259D01*
X96615308Y-85931463D01*
X96681444Y-85953999D01*
X96720486Y-85999056D01*
X96724951Y-86007820D01*
X96849890Y-86179786D01*
X97000213Y-86330109D01*
X97172179Y-86455048D01*
X97172181Y-86455049D01*
X97172184Y-86455051D01*
X97361588Y-86551557D01*
X97563757Y-86617246D01*
X97773713Y-86650500D01*
X97773714Y-86650500D01*
X97986286Y-86650500D01*
X97986287Y-86650500D01*
X98196243Y-86617246D01*
X98398412Y-86551557D01*
X98587816Y-86455051D01*
X98618507Y-86432753D01*
X98759786Y-86330109D01*
X98759788Y-86330106D01*
X98759792Y-86330104D01*
X98910104Y-86179792D01*
X98910106Y-86179788D01*
X98910109Y-86179786D01*
X99035048Y-86007820D01*
X99035047Y-86007820D01*
X99035051Y-86007816D01*
X99039514Y-85999054D01*
X99087488Y-85948259D01*
X99155308Y-85931463D01*
X99221444Y-85953999D01*
X99260486Y-85999056D01*
X99264951Y-86007820D01*
X99389890Y-86179786D01*
X99540213Y-86330109D01*
X99712179Y-86455048D01*
X99712181Y-86455049D01*
X99712184Y-86455051D01*
X99901588Y-86551557D01*
X100103757Y-86617246D01*
X100313713Y-86650500D01*
X100313714Y-86650500D01*
X100526286Y-86650500D01*
X100526287Y-86650500D01*
X100736243Y-86617246D01*
X100938412Y-86551557D01*
X101127816Y-86455051D01*
X101158507Y-86432753D01*
X101299786Y-86330109D01*
X101299788Y-86330106D01*
X101299792Y-86330104D01*
X101450104Y-86179792D01*
X101450106Y-86179788D01*
X101450109Y-86179786D01*
X101575048Y-86007820D01*
X101575047Y-86007820D01*
X101575051Y-86007816D01*
X101579514Y-85999054D01*
X101627488Y-85948259D01*
X101695308Y-85931463D01*
X101761444Y-85953999D01*
X101800486Y-85999056D01*
X101804951Y-86007820D01*
X101929890Y-86179786D01*
X102080213Y-86330109D01*
X102252179Y-86455048D01*
X102252181Y-86455049D01*
X102252184Y-86455051D01*
X102441588Y-86551557D01*
X102643757Y-86617246D01*
X102853713Y-86650500D01*
X102853714Y-86650500D01*
X103066286Y-86650500D01*
X103066287Y-86650500D01*
X103276243Y-86617246D01*
X103478412Y-86551557D01*
X103667816Y-86455051D01*
X103698507Y-86432753D01*
X103839786Y-86330109D01*
X103839788Y-86330106D01*
X103839792Y-86330104D01*
X103990104Y-86179792D01*
X103990106Y-86179788D01*
X103990109Y-86179786D01*
X104115048Y-86007820D01*
X104115047Y-86007820D01*
X104115051Y-86007816D01*
X104119514Y-85999054D01*
X104167488Y-85948259D01*
X104235308Y-85931463D01*
X104301444Y-85953999D01*
X104340486Y-85999056D01*
X104344951Y-86007820D01*
X104469890Y-86179786D01*
X104620213Y-86330109D01*
X104792179Y-86455048D01*
X104792181Y-86455049D01*
X104792184Y-86455051D01*
X104981588Y-86551557D01*
X105183757Y-86617246D01*
X105393713Y-86650500D01*
X105393714Y-86650500D01*
X105606286Y-86650500D01*
X105606287Y-86650500D01*
X105816243Y-86617246D01*
X106018412Y-86551557D01*
X106207816Y-86455051D01*
X106238507Y-86432753D01*
X106379786Y-86330109D01*
X106379788Y-86330106D01*
X106379792Y-86330104D01*
X106530104Y-86179792D01*
X106530106Y-86179788D01*
X106530109Y-86179786D01*
X106655048Y-86007820D01*
X106655047Y-86007820D01*
X106655051Y-86007816D01*
X106751557Y-85818412D01*
X106817246Y-85616243D01*
X106850500Y-85406287D01*
X106850500Y-85193713D01*
X106817246Y-84983757D01*
X106751557Y-84781588D01*
X106655051Y-84592184D01*
X106655049Y-84592181D01*
X106655048Y-84592179D01*
X106530109Y-84420213D01*
X106379786Y-84269890D01*
X106207820Y-84144951D01*
X106018414Y-84048444D01*
X106018413Y-84048443D01*
X106018412Y-84048443D01*
X105816243Y-83982754D01*
X105816241Y-83982753D01*
X105816240Y-83982753D01*
X105654957Y-83957208D01*
X105606287Y-83949500D01*
X105393713Y-83949500D01*
X105345042Y-83957208D01*
X105183760Y-83982753D01*
X104981585Y-84048444D01*
X104792179Y-84144951D01*
X104620213Y-84269890D01*
X104469890Y-84420213D01*
X104344949Y-84592182D01*
X104340484Y-84600946D01*
X104292509Y-84651742D01*
X104224688Y-84668536D01*
X104158553Y-84645998D01*
X104119516Y-84600946D01*
X104115050Y-84592182D01*
X103990109Y-84420213D01*
X103839786Y-84269890D01*
X103667820Y-84144951D01*
X103478414Y-84048444D01*
X103478413Y-84048443D01*
X103478412Y-84048443D01*
X103276243Y-83982754D01*
X103276241Y-83982753D01*
X103276240Y-83982753D01*
X103114957Y-83957208D01*
X103066287Y-83949500D01*
X102853713Y-83949500D01*
X102805042Y-83957208D01*
X102643760Y-83982753D01*
X102441585Y-84048444D01*
X102252179Y-84144951D01*
X102080213Y-84269890D01*
X101929890Y-84420213D01*
X101804949Y-84592182D01*
X101800484Y-84600946D01*
X101752509Y-84651742D01*
X101684688Y-84668536D01*
X101618553Y-84645998D01*
X101579516Y-84600946D01*
X101575050Y-84592182D01*
X101450109Y-84420213D01*
X101299786Y-84269890D01*
X101127820Y-84144951D01*
X100938414Y-84048444D01*
X100938413Y-84048443D01*
X100938412Y-84048443D01*
X100736243Y-83982754D01*
X100736241Y-83982753D01*
X100736240Y-83982753D01*
X100574957Y-83957208D01*
X100526287Y-83949500D01*
X100313713Y-83949500D01*
X100265042Y-83957208D01*
X100103760Y-83982753D01*
X99901585Y-84048444D01*
X99712179Y-84144951D01*
X99540213Y-84269890D01*
X99389890Y-84420213D01*
X99264949Y-84592182D01*
X99260484Y-84600946D01*
X99212509Y-84651742D01*
X99144688Y-84668536D01*
X99078553Y-84645998D01*
X99039516Y-84600946D01*
X99035052Y-84592186D01*
X99035051Y-84592184D01*
X98964679Y-84495324D01*
X98941200Y-84429520D01*
X98957025Y-84361466D01*
X98977314Y-84334763D01*
X100182235Y-83129841D01*
X100243556Y-83096358D01*
X100289311Y-83095051D01*
X100323713Y-83100500D01*
X100323714Y-83100500D01*
X100536286Y-83100500D01*
X100536287Y-83100500D01*
X100746243Y-83067246D01*
X100948412Y-83001557D01*
X101137816Y-82905051D01*
X101309792Y-82780104D01*
X101423329Y-82666566D01*
X101484648Y-82633084D01*
X101554340Y-82638068D01*
X101610274Y-82679939D01*
X101627189Y-82710917D01*
X101676202Y-82842328D01*
X101676206Y-82842335D01*
X101762452Y-82957544D01*
X101762455Y-82957547D01*
X101877664Y-83043793D01*
X101877671Y-83043797D01*
X102012517Y-83094091D01*
X102012516Y-83094091D01*
X102019444Y-83094835D01*
X102072127Y-83100500D01*
X103867872Y-83100499D01*
X103927483Y-83094091D01*
X104062331Y-83043796D01*
X104177546Y-82957546D01*
X104263796Y-82842331D01*
X104314091Y-82707483D01*
X104320500Y-82647873D01*
X104320499Y-81878711D01*
X116124500Y-81878711D01*
X116124500Y-82121288D01*
X116156161Y-82361785D01*
X116218947Y-82596104D01*
X116295163Y-82780104D01*
X116311776Y-82820212D01*
X116433064Y-83030289D01*
X116433066Y-83030292D01*
X116433067Y-83030293D01*
X116580733Y-83222736D01*
X116580739Y-83222743D01*
X116752256Y-83394260D01*
X116752263Y-83394266D01*
X116798564Y-83429794D01*
X116944711Y-83541936D01*
X117154788Y-83663224D01*
X117378900Y-83756054D01*
X117613211Y-83818838D01*
X117793586Y-83842584D01*
X117853711Y-83850500D01*
X117853712Y-83850500D01*
X118096289Y-83850500D01*
X118144388Y-83844167D01*
X118336789Y-83818838D01*
X118571100Y-83756054D01*
X118795212Y-83663224D01*
X119005289Y-83541936D01*
X119197738Y-83394265D01*
X119369265Y-83222738D01*
X119516936Y-83030289D01*
X119638224Y-82820212D01*
X119731054Y-82596100D01*
X119793838Y-82361789D01*
X119825500Y-82121288D01*
X119825500Y-81878712D01*
X119793838Y-81638211D01*
X119731054Y-81403900D01*
X119638224Y-81179788D01*
X119516936Y-80969711D01*
X119369265Y-80777262D01*
X119369260Y-80777256D01*
X119197743Y-80605739D01*
X119197736Y-80605733D01*
X119005293Y-80458067D01*
X119005292Y-80458066D01*
X119005289Y-80458064D01*
X118795212Y-80336776D01*
X118795205Y-80336773D01*
X118571104Y-80243947D01*
X118343648Y-80183000D01*
X118336789Y-80181162D01*
X118336788Y-80181161D01*
X118336785Y-80181161D01*
X118096289Y-80149500D01*
X118096288Y-80149500D01*
X117853712Y-80149500D01*
X117853711Y-80149500D01*
X117613214Y-80181161D01*
X117378895Y-80243947D01*
X117154794Y-80336773D01*
X117154785Y-80336777D01*
X116944706Y-80458067D01*
X116752263Y-80605733D01*
X116752256Y-80605739D01*
X116580739Y-80777256D01*
X116580733Y-80777263D01*
X116433067Y-80969706D01*
X116311777Y-81179785D01*
X116311773Y-81179794D01*
X116218947Y-81403895D01*
X116156161Y-81638214D01*
X116124500Y-81878711D01*
X104320499Y-81878711D01*
X104320499Y-81643713D01*
X104320499Y-80852129D01*
X104320498Y-80852123D01*
X104314091Y-80792516D01*
X104263797Y-80657671D01*
X104263793Y-80657664D01*
X104177547Y-80542455D01*
X104177544Y-80542452D01*
X104062335Y-80456206D01*
X104062328Y-80456202D01*
X103927482Y-80405908D01*
X103927483Y-80405908D01*
X103867883Y-80399501D01*
X103867881Y-80399500D01*
X103867873Y-80399500D01*
X103867864Y-80399500D01*
X102072129Y-80399500D01*
X102072123Y-80399501D01*
X102012516Y-80405908D01*
X101877671Y-80456202D01*
X101877664Y-80456206D01*
X101762455Y-80542452D01*
X101762452Y-80542455D01*
X101676206Y-80657664D01*
X101676203Y-80657669D01*
X101627189Y-80789083D01*
X101585317Y-80845016D01*
X101519853Y-80869433D01*
X101451580Y-80854581D01*
X101423326Y-80833430D01*
X101309786Y-80719890D01*
X101137820Y-80594951D01*
X100948414Y-80498444D01*
X100948413Y-80498443D01*
X100948412Y-80498443D01*
X100746243Y-80432754D01*
X100746241Y-80432753D01*
X100746240Y-80432753D01*
X100584957Y-80407208D01*
X100536287Y-80399500D01*
X100323713Y-80399500D01*
X100275042Y-80407208D01*
X100113760Y-80432753D01*
X99911585Y-80498444D01*
X99722179Y-80594951D01*
X99550213Y-80719890D01*
X99399890Y-80870213D01*
X99274949Y-81042182D01*
X99270484Y-81050946D01*
X99222509Y-81101742D01*
X99154688Y-81118536D01*
X99088553Y-81095998D01*
X99049516Y-81050946D01*
X99045050Y-81042182D01*
X98920109Y-80870213D01*
X98769786Y-80719890D01*
X98597820Y-80594951D01*
X98408414Y-80498444D01*
X98408413Y-80498443D01*
X98408412Y-80498443D01*
X98206243Y-80432754D01*
X98206241Y-80432753D01*
X98206240Y-80432753D01*
X98044957Y-80407208D01*
X97996287Y-80399500D01*
X97783713Y-80399500D01*
X97735042Y-80407208D01*
X97573760Y-80432753D01*
X97371585Y-80498444D01*
X97182179Y-80594951D01*
X97010213Y-80719890D01*
X96859890Y-80870213D01*
X96734949Y-81042182D01*
X96730484Y-81050946D01*
X96682509Y-81101742D01*
X96614688Y-81118536D01*
X96548553Y-81095998D01*
X96509516Y-81050946D01*
X96505050Y-81042182D01*
X96380109Y-80870213D01*
X96229786Y-80719890D01*
X96057820Y-80594951D01*
X95868414Y-80498444D01*
X95868413Y-80498443D01*
X95868412Y-80498443D01*
X95666243Y-80432754D01*
X95666241Y-80432753D01*
X95666240Y-80432753D01*
X95504957Y-80407208D01*
X95456287Y-80399500D01*
X95243713Y-80399500D01*
X95195042Y-80407208D01*
X95033760Y-80432753D01*
X94831585Y-80498444D01*
X94642179Y-80594951D01*
X94470213Y-80719890D01*
X94319890Y-80870213D01*
X94194951Y-81042179D01*
X94098444Y-81231585D01*
X94032753Y-81433760D01*
X94000371Y-81638211D01*
X93999500Y-81643713D01*
X93999500Y-81856287D01*
X94032754Y-82066243D01*
X94050639Y-82121288D01*
X94098444Y-82268414D01*
X94194951Y-82457820D01*
X94319890Y-82629786D01*
X94470213Y-82780109D01*
X94642179Y-82905048D01*
X94642181Y-82905049D01*
X94642184Y-82905051D01*
X94831588Y-83001557D01*
X95033757Y-83067246D01*
X95243713Y-83100500D01*
X95243714Y-83100500D01*
X95456286Y-83100500D01*
X95456287Y-83100500D01*
X95666243Y-83067246D01*
X95868412Y-83001557D01*
X96057816Y-82905051D01*
X96144138Y-82842335D01*
X96229786Y-82780109D01*
X96229788Y-82780106D01*
X96229792Y-82780104D01*
X96380104Y-82629792D01*
X96380106Y-82629788D01*
X96380109Y-82629786D01*
X96505048Y-82457820D01*
X96505047Y-82457820D01*
X96505051Y-82457816D01*
X96509514Y-82449054D01*
X96557488Y-82398259D01*
X96625308Y-82381463D01*
X96691444Y-82403999D01*
X96730486Y-82449056D01*
X96734951Y-82457820D01*
X96859890Y-82629786D01*
X97010213Y-82780109D01*
X97182179Y-82905048D01*
X97182181Y-82905049D01*
X97182184Y-82905051D01*
X97371588Y-83001557D01*
X97573757Y-83067246D01*
X97684671Y-83084813D01*
X97747805Y-83114742D01*
X97784737Y-83174053D01*
X97783739Y-83243916D01*
X97752954Y-83294967D01*
X97505990Y-83541932D01*
X97369711Y-83678211D01*
X97334084Y-83713838D01*
X97258209Y-83789712D01*
X97170609Y-83920814D01*
X97170602Y-83920827D01*
X97110264Y-84066498D01*
X97110261Y-84066508D01*
X97091030Y-84163188D01*
X97058645Y-84225099D01*
X97042301Y-84239312D01*
X97000211Y-84269893D01*
X97000205Y-84269898D01*
X96849890Y-84420213D01*
X96724949Y-84592182D01*
X96720484Y-84600946D01*
X96672509Y-84651742D01*
X96604688Y-84668536D01*
X96538553Y-84645998D01*
X96499516Y-84600946D01*
X96495050Y-84592182D01*
X96370109Y-84420213D01*
X96219786Y-84269890D01*
X96047820Y-84144951D01*
X95858414Y-84048444D01*
X95858413Y-84048443D01*
X95858412Y-84048443D01*
X95656243Y-83982754D01*
X95656241Y-83982753D01*
X95656240Y-83982753D01*
X95494957Y-83957208D01*
X95446287Y-83949500D01*
X95233713Y-83949500D01*
X95185042Y-83957208D01*
X95023760Y-83982753D01*
X94821585Y-84048444D01*
X94632179Y-84144951D01*
X94460213Y-84269890D01*
X94309890Y-84420213D01*
X94184951Y-84592179D01*
X94088444Y-84781585D01*
X94022753Y-84983760D01*
X93989500Y-85193713D01*
X91610500Y-85193713D01*
X91577246Y-84983757D01*
X91511557Y-84781588D01*
X91415051Y-84592184D01*
X91415049Y-84592181D01*
X91415048Y-84592179D01*
X91290109Y-84420213D01*
X91139786Y-84269890D01*
X90967820Y-84144951D01*
X90778414Y-84048444D01*
X90778413Y-84048443D01*
X90778412Y-84048443D01*
X90576243Y-83982754D01*
X90576241Y-83982753D01*
X90576240Y-83982753D01*
X90414957Y-83957208D01*
X90366287Y-83949500D01*
X90153713Y-83949500D01*
X90105042Y-83957208D01*
X89943760Y-83982753D01*
X89741585Y-84048444D01*
X89552179Y-84144951D01*
X89380213Y-84269890D01*
X89229890Y-84420213D01*
X89104951Y-84592179D01*
X89008444Y-84781585D01*
X88942753Y-84983760D01*
X88909500Y-85193713D01*
X86591921Y-85193713D01*
X86663224Y-85070212D01*
X86756054Y-84846100D01*
X86818838Y-84611789D01*
X86850500Y-84371288D01*
X86850500Y-84128712D01*
X86818838Y-83888211D01*
X86756054Y-83653900D01*
X86663224Y-83429788D01*
X86541936Y-83219711D01*
X86394265Y-83027262D01*
X86394260Y-83027256D01*
X86222743Y-82855739D01*
X86222736Y-82855733D01*
X86030293Y-82708067D01*
X86030292Y-82708066D01*
X86030289Y-82708064D01*
X85820212Y-82586776D01*
X85820205Y-82586773D01*
X85596104Y-82493947D01*
X85361785Y-82431161D01*
X85121289Y-82399500D01*
X85121288Y-82399500D01*
X84878712Y-82399500D01*
X84878711Y-82399500D01*
X84638214Y-82431161D01*
X84403895Y-82493947D01*
X84179794Y-82586773D01*
X84179785Y-82586777D01*
X84041582Y-82666569D01*
X83970718Y-82707483D01*
X83969706Y-82708067D01*
X83777263Y-82855733D01*
X83777256Y-82855739D01*
X83605739Y-83027256D01*
X83605733Y-83027263D01*
X83458067Y-83219706D01*
X83458064Y-83219710D01*
X83458064Y-83219711D01*
X83444089Y-83243916D01*
X83336777Y-83429785D01*
X83336773Y-83429794D01*
X83243947Y-83653895D01*
X83181161Y-83888214D01*
X83149500Y-84128711D01*
X81750500Y-84128711D01*
X81750500Y-78874500D01*
X81770185Y-78807461D01*
X81822989Y-78761706D01*
X81874500Y-78750500D01*
X121125500Y-78750500D01*
X121192539Y-78770185D01*
X121238294Y-78822989D01*
X121249500Y-78874500D01*
X121249500Y-90565891D01*
X121283608Y-90693187D01*
X121284924Y-90695466D01*
X121349500Y-90807314D01*
X121442686Y-90900500D01*
X121556814Y-90966392D01*
X121684108Y-91000500D01*
X150730971Y-91000500D01*
X150798010Y-91020185D01*
X150843765Y-91072989D01*
X150853709Y-91142147D01*
X150824684Y-91205703D01*
X150811507Y-91218786D01*
X150810210Y-91219893D01*
X150659890Y-91370213D01*
X150534951Y-91542179D01*
X150438444Y-91731585D01*
X150372753Y-91933760D01*
X150339500Y-92143713D01*
X150339500Y-92356286D01*
X150372753Y-92566239D01*
X150438444Y-92768414D01*
X150534951Y-92957820D01*
X150659890Y-93129786D01*
X150810213Y-93280109D01*
X150982179Y-93405048D01*
X150982181Y-93405049D01*
X150982184Y-93405051D01*
X151171588Y-93501557D01*
X151373757Y-93567246D01*
X151583713Y-93600500D01*
X151583714Y-93600500D01*
X151796286Y-93600500D01*
X151796287Y-93600500D01*
X152006243Y-93567246D01*
X152208412Y-93501557D01*
X152397816Y-93405051D01*
X152419789Y-93389086D01*
X152569786Y-93280109D01*
X152569788Y-93280106D01*
X152569792Y-93280104D01*
X152720104Y-93129792D01*
X152720106Y-93129788D01*
X152720109Y-93129786D01*
X152845048Y-92957820D01*
X152845047Y-92957820D01*
X152845051Y-92957816D01*
X152849514Y-92949054D01*
X152897488Y-92898259D01*
X152965308Y-92881463D01*
X153031444Y-92903999D01*
X153070486Y-92949056D01*
X153074951Y-92957820D01*
X153199890Y-93129786D01*
X153350213Y-93280109D01*
X153522184Y-93405051D01*
X153522184Y-93405052D01*
X153561793Y-93425233D01*
X153612590Y-93473206D01*
X153629500Y-93535718D01*
X153629500Y-96596349D01*
X153609815Y-96663388D01*
X153593181Y-96684030D01*
X153569376Y-96707834D01*
X153569373Y-96707837D01*
X153476295Y-96847139D01*
X153412184Y-97001917D01*
X153412182Y-97001925D01*
X153379500Y-97166228D01*
X153379500Y-97333771D01*
X153412182Y-97498074D01*
X153412184Y-97498082D01*
X153476295Y-97652860D01*
X153569373Y-97792162D01*
X153687837Y-97910626D01*
X153776532Y-97969890D01*
X153827137Y-98003703D01*
X153981918Y-98067816D01*
X154146228Y-98100499D01*
X154146232Y-98100500D01*
X154146233Y-98100500D01*
X154313768Y-98100500D01*
X154313769Y-98100499D01*
X154478082Y-98067816D01*
X154632863Y-98003703D01*
X154772162Y-97910626D01*
X154890626Y-97792162D01*
X154983703Y-97652863D01*
X155047816Y-97498082D01*
X155080500Y-97333767D01*
X155080500Y-97166233D01*
X155047816Y-97001918D01*
X154983703Y-96847137D01*
X154936330Y-96776239D01*
X154890626Y-96707837D01*
X154866819Y-96684030D01*
X154833334Y-96622707D01*
X154830500Y-96596349D01*
X154830500Y-93535718D01*
X154850185Y-93468679D01*
X154898207Y-93425233D01*
X154937815Y-93405052D01*
X154937815Y-93405051D01*
X154937816Y-93405051D01*
X155029193Y-93338661D01*
X155109786Y-93280109D01*
X155109788Y-93280106D01*
X155109792Y-93280104D01*
X155260104Y-93129792D01*
X155260106Y-93129788D01*
X155260109Y-93129786D01*
X155385048Y-92957820D01*
X155385047Y-92957820D01*
X155385051Y-92957816D01*
X155389514Y-92949054D01*
X155437488Y-92898259D01*
X155505308Y-92881463D01*
X155571444Y-92903999D01*
X155610486Y-92949056D01*
X155614951Y-92957820D01*
X155739890Y-93129786D01*
X155890213Y-93280109D01*
X156062179Y-93405048D01*
X156062181Y-93405049D01*
X156062184Y-93405051D01*
X156251588Y-93501557D01*
X156453757Y-93567246D01*
X156663713Y-93600500D01*
X156663714Y-93600500D01*
X156876286Y-93600500D01*
X156876287Y-93600500D01*
X157086243Y-93567246D01*
X157288412Y-93501557D01*
X157477816Y-93405051D01*
X157499789Y-93389086D01*
X157649786Y-93280109D01*
X157649788Y-93280106D01*
X157649792Y-93280104D01*
X157800104Y-93129792D01*
X157800106Y-93129788D01*
X157800109Y-93129786D01*
X157925048Y-92957820D01*
X157925047Y-92957820D01*
X157925051Y-92957816D01*
X157929514Y-92949054D01*
X157977488Y-92898259D01*
X158045308Y-92881463D01*
X158111444Y-92903999D01*
X158150486Y-92949056D01*
X158154951Y-92957820D01*
X158279890Y-93129786D01*
X158430213Y-93280109D01*
X158602179Y-93405048D01*
X158602181Y-93405049D01*
X158602184Y-93405051D01*
X158791588Y-93501557D01*
X158993757Y-93567246D01*
X159203713Y-93600500D01*
X159203714Y-93600500D01*
X159350902Y-93600500D01*
X159417941Y-93620185D01*
X159463696Y-93672989D01*
X159473640Y-93742147D01*
X159444615Y-93805703D01*
X159438583Y-93812181D01*
X158676650Y-94574113D01*
X158676648Y-94574116D01*
X158626530Y-94660925D01*
X158626528Y-94660927D01*
X158597594Y-94711040D01*
X158597593Y-94711041D01*
X158597592Y-94711046D01*
X158556668Y-94863774D01*
X158556668Y-94863776D01*
X158556668Y-95031877D01*
X158556669Y-95031890D01*
X158556669Y-96689180D01*
X158536984Y-96756219D01*
X158520350Y-96776861D01*
X158496545Y-96800665D01*
X158496542Y-96800668D01*
X158403464Y-96939970D01*
X158339353Y-97094748D01*
X158339351Y-97094756D01*
X158306669Y-97259059D01*
X158306669Y-97426602D01*
X158339351Y-97590905D01*
X158339353Y-97590913D01*
X158403464Y-97745691D01*
X158496542Y-97884993D01*
X158615006Y-98003457D01*
X158707663Y-98065368D01*
X158754306Y-98096534D01*
X158754307Y-98096534D01*
X158754308Y-98096535D01*
X158789370Y-98111058D01*
X158909087Y-98160647D01*
X159073397Y-98193330D01*
X159073401Y-98193331D01*
X159073402Y-98193331D01*
X159240937Y-98193331D01*
X159240938Y-98193330D01*
X159405251Y-98160647D01*
X159560032Y-98096534D01*
X159699331Y-98003457D01*
X159817795Y-97884993D01*
X159910872Y-97745694D01*
X159974985Y-97590913D01*
X160007669Y-97426598D01*
X160007669Y-97259064D01*
X159974985Y-97094749D01*
X159910872Y-96939968D01*
X159879706Y-96893325D01*
X159817795Y-96800668D01*
X159793988Y-96776861D01*
X159760503Y-96715538D01*
X159757669Y-96689180D01*
X159757669Y-96397648D01*
X160539500Y-96397648D01*
X160539500Y-96602351D01*
X160571522Y-96804534D01*
X160634781Y-96999223D01*
X160696427Y-97120208D01*
X160719875Y-97166228D01*
X160727715Y-97181613D01*
X160848028Y-97347213D01*
X160992786Y-97491971D01*
X161110581Y-97577552D01*
X161158390Y-97612287D01*
X161238019Y-97652860D01*
X161340776Y-97705218D01*
X161340778Y-97705218D01*
X161340781Y-97705220D01*
X161400710Y-97724692D01*
X161535465Y-97768477D01*
X161636557Y-97784488D01*
X161737648Y-97800500D01*
X161737649Y-97800500D01*
X161942351Y-97800500D01*
X161942352Y-97800500D01*
X162144534Y-97768477D01*
X162339219Y-97705220D01*
X162521610Y-97612287D01*
X162623378Y-97538349D01*
X162687213Y-97491971D01*
X162687215Y-97491968D01*
X162687219Y-97491966D01*
X162831966Y-97347219D01*
X162831968Y-97347215D01*
X162831971Y-97347213D01*
X162896014Y-97259064D01*
X162952287Y-97181610D01*
X163045220Y-96999219D01*
X163108477Y-96804534D01*
X163140500Y-96602352D01*
X163140500Y-96397648D01*
X170699500Y-96397648D01*
X170699500Y-96602351D01*
X170731522Y-96804534D01*
X170794781Y-96999223D01*
X170856427Y-97120208D01*
X170879875Y-97166228D01*
X170887715Y-97181613D01*
X171008028Y-97347213D01*
X171152786Y-97491971D01*
X171270581Y-97577552D01*
X171318390Y-97612287D01*
X171398019Y-97652860D01*
X171500776Y-97705218D01*
X171500778Y-97705218D01*
X171500781Y-97705220D01*
X171560710Y-97724692D01*
X171695465Y-97768477D01*
X171796557Y-97784488D01*
X171897648Y-97800500D01*
X171897649Y-97800500D01*
X172102351Y-97800500D01*
X172102352Y-97800500D01*
X172304534Y-97768477D01*
X172499219Y-97705220D01*
X172681610Y-97612287D01*
X172783378Y-97538349D01*
X172847213Y-97491971D01*
X172847215Y-97491968D01*
X172847219Y-97491966D01*
X172991966Y-97347219D01*
X172991968Y-97347215D01*
X172991971Y-97347213D01*
X173056014Y-97259064D01*
X173112287Y-97181610D01*
X173205220Y-96999219D01*
X173268477Y-96804534D01*
X173300500Y-96602352D01*
X173300500Y-96397648D01*
X173293541Y-96353713D01*
X173268477Y-96195465D01*
X173205218Y-96000776D01*
X173150857Y-95894088D01*
X173112287Y-95818390D01*
X173071100Y-95761700D01*
X172991971Y-95652786D01*
X172847213Y-95508028D01*
X172681613Y-95387715D01*
X172681612Y-95387714D01*
X172681610Y-95387713D01*
X172624653Y-95358691D01*
X172499223Y-95294781D01*
X172304534Y-95231522D01*
X172129995Y-95203878D01*
X172102352Y-95199500D01*
X171897648Y-95199500D01*
X171873329Y-95203351D01*
X171695465Y-95231522D01*
X171500776Y-95294781D01*
X171318386Y-95387715D01*
X171152786Y-95508028D01*
X171008028Y-95652786D01*
X170887715Y-95818386D01*
X170794781Y-96000776D01*
X170731522Y-96195465D01*
X170699500Y-96397648D01*
X163140500Y-96397648D01*
X163133541Y-96353713D01*
X163108477Y-96195465D01*
X163045218Y-96000776D01*
X162990857Y-95894088D01*
X162952287Y-95818390D01*
X162911100Y-95761700D01*
X162831971Y-95652786D01*
X162687213Y-95508028D01*
X162521613Y-95387715D01*
X162521612Y-95387714D01*
X162521610Y-95387713D01*
X162464653Y-95358691D01*
X162339223Y-95294781D01*
X162144534Y-95231522D01*
X161969995Y-95203878D01*
X161942352Y-95199500D01*
X161737648Y-95199500D01*
X161713329Y-95203351D01*
X161535465Y-95231522D01*
X161340776Y-95294781D01*
X161158386Y-95387715D01*
X160992786Y-95508028D01*
X160848028Y-95652786D01*
X160727715Y-95818386D01*
X160634781Y-96000776D01*
X160571522Y-96195465D01*
X160539500Y-96397648D01*
X159757669Y-96397648D01*
X159757669Y-95242927D01*
X159777354Y-95175888D01*
X159793983Y-95155251D01*
X161365478Y-93583755D01*
X161426799Y-93550272D01*
X161491473Y-93553506D01*
X161533757Y-93567246D01*
X161743713Y-93600500D01*
X161743714Y-93600500D01*
X161956286Y-93600500D01*
X161956287Y-93600500D01*
X162166243Y-93567246D01*
X162368412Y-93501557D01*
X162557816Y-93405051D01*
X162579789Y-93389086D01*
X162729786Y-93280109D01*
X162729788Y-93280106D01*
X162729792Y-93280104D01*
X162880104Y-93129792D01*
X162880106Y-93129788D01*
X162880109Y-93129786D01*
X163005048Y-92957820D01*
X163005047Y-92957820D01*
X163005051Y-92957816D01*
X163101557Y-92768412D01*
X163167246Y-92566243D01*
X163200500Y-92356287D01*
X163200500Y-92143713D01*
X168119500Y-92143713D01*
X168119500Y-92356286D01*
X168152753Y-92566239D01*
X168218444Y-92768414D01*
X168314951Y-92957820D01*
X168439890Y-93129786D01*
X168590213Y-93280109D01*
X168762179Y-93405048D01*
X168762181Y-93405049D01*
X168762184Y-93405051D01*
X168951588Y-93501557D01*
X169153757Y-93567246D01*
X169363713Y-93600500D01*
X169363714Y-93600500D01*
X169576286Y-93600500D01*
X169576287Y-93600500D01*
X169786243Y-93567246D01*
X169988412Y-93501557D01*
X170177816Y-93405051D01*
X170199789Y-93389086D01*
X170349786Y-93280109D01*
X170349788Y-93280106D01*
X170349792Y-93280104D01*
X170500104Y-93129792D01*
X170500106Y-93129788D01*
X170500109Y-93129786D01*
X170625048Y-92957820D01*
X170625047Y-92957820D01*
X170625051Y-92957816D01*
X170629514Y-92949054D01*
X170677488Y-92898259D01*
X170745308Y-92881463D01*
X170811444Y-92903999D01*
X170850486Y-92949056D01*
X170854951Y-92957820D01*
X170979890Y-93129786D01*
X171130213Y-93280109D01*
X171302179Y-93405048D01*
X171302181Y-93405049D01*
X171302184Y-93405051D01*
X171491588Y-93501557D01*
X171693757Y-93567246D01*
X171903713Y-93600500D01*
X171903714Y-93600500D01*
X172116286Y-93600500D01*
X172116287Y-93600500D01*
X172326243Y-93567246D01*
X172528412Y-93501557D01*
X172717816Y-93405051D01*
X172739789Y-93389086D01*
X172889786Y-93280109D01*
X172889788Y-93280106D01*
X172889792Y-93280104D01*
X173040104Y-93129792D01*
X173040106Y-93129788D01*
X173040109Y-93129786D01*
X173165048Y-92957820D01*
X173165047Y-92957820D01*
X173165051Y-92957816D01*
X173169514Y-92949054D01*
X173217488Y-92898259D01*
X173285308Y-92881463D01*
X173351444Y-92903999D01*
X173390486Y-92949056D01*
X173394951Y-92957820D01*
X173519890Y-93129786D01*
X173670213Y-93280109D01*
X173842179Y-93405048D01*
X173842181Y-93405049D01*
X173842184Y-93405051D01*
X174031588Y-93501557D01*
X174233757Y-93567246D01*
X174443713Y-93600500D01*
X174443714Y-93600500D01*
X174656286Y-93600500D01*
X174656287Y-93600500D01*
X174866243Y-93567246D01*
X175068412Y-93501557D01*
X175257816Y-93405051D01*
X175279789Y-93389086D01*
X175429786Y-93280109D01*
X175429788Y-93280106D01*
X175429792Y-93280104D01*
X175580104Y-93129792D01*
X175580106Y-93129788D01*
X175580109Y-93129786D01*
X175705048Y-92957820D01*
X175705047Y-92957820D01*
X175705051Y-92957816D01*
X175709514Y-92949054D01*
X175757488Y-92898259D01*
X175825308Y-92881463D01*
X175891444Y-92903999D01*
X175930486Y-92949056D01*
X175934951Y-92957820D01*
X176059890Y-93129786D01*
X176210213Y-93280109D01*
X176382179Y-93405048D01*
X176382181Y-93405049D01*
X176382184Y-93405051D01*
X176571588Y-93501557D01*
X176773757Y-93567246D01*
X176983713Y-93600500D01*
X176983714Y-93600500D01*
X177196286Y-93600500D01*
X177196287Y-93600500D01*
X177406243Y-93567246D01*
X177608412Y-93501557D01*
X177797816Y-93405051D01*
X177819789Y-93389086D01*
X177969786Y-93280109D01*
X177969788Y-93280106D01*
X177969792Y-93280104D01*
X178120104Y-93129792D01*
X178120106Y-93129788D01*
X178120109Y-93129786D01*
X178245048Y-92957820D01*
X178245047Y-92957820D01*
X178245051Y-92957816D01*
X178249514Y-92949054D01*
X178297488Y-92898259D01*
X178365308Y-92881463D01*
X178431444Y-92903999D01*
X178470486Y-92949056D01*
X178474951Y-92957820D01*
X178599890Y-93129786D01*
X178750213Y-93280109D01*
X178922179Y-93405048D01*
X178922181Y-93405049D01*
X178922184Y-93405051D01*
X179111588Y-93501557D01*
X179313757Y-93567246D01*
X179523713Y-93600500D01*
X179523714Y-93600500D01*
X179736286Y-93600500D01*
X179736287Y-93600500D01*
X179946243Y-93567246D01*
X180148412Y-93501557D01*
X180337816Y-93405051D01*
X180359789Y-93389086D01*
X180509786Y-93280109D01*
X180509788Y-93280106D01*
X180509792Y-93280104D01*
X180660104Y-93129792D01*
X180660106Y-93129788D01*
X180660109Y-93129786D01*
X180785048Y-92957820D01*
X180785047Y-92957820D01*
X180785051Y-92957816D01*
X180789514Y-92949054D01*
X180837488Y-92898259D01*
X180905308Y-92881463D01*
X180971444Y-92903999D01*
X181010486Y-92949056D01*
X181014951Y-92957820D01*
X181139890Y-93129786D01*
X181290213Y-93280109D01*
X181462179Y-93405048D01*
X181462181Y-93405049D01*
X181462184Y-93405051D01*
X181651588Y-93501557D01*
X181853757Y-93567246D01*
X182063713Y-93600500D01*
X182063714Y-93600500D01*
X182276286Y-93600500D01*
X182276287Y-93600500D01*
X182486243Y-93567246D01*
X182688412Y-93501557D01*
X182877816Y-93405051D01*
X182899789Y-93389086D01*
X183049786Y-93280109D01*
X183049788Y-93280106D01*
X183049792Y-93280104D01*
X183200104Y-93129792D01*
X183200106Y-93129788D01*
X183200109Y-93129786D01*
X183325048Y-92957820D01*
X183325047Y-92957820D01*
X183325051Y-92957816D01*
X183421557Y-92768412D01*
X183487246Y-92566243D01*
X183520500Y-92356287D01*
X183520500Y-92143713D01*
X185899500Y-92143713D01*
X185899500Y-92356286D01*
X185932753Y-92566239D01*
X185998444Y-92768414D01*
X186094951Y-92957820D01*
X186219890Y-93129786D01*
X186370211Y-93280107D01*
X186441200Y-93331682D01*
X186498385Y-93373229D01*
X186501725Y-93377560D01*
X186506703Y-93379834D01*
X186522833Y-93404933D01*
X186541051Y-93428558D01*
X186542304Y-93435231D01*
X186544477Y-93438612D01*
X186549500Y-93473547D01*
X186549500Y-93554927D01*
X186529815Y-93621966D01*
X186513181Y-93642608D01*
X186511700Y-93644088D01*
X186511697Y-93644092D01*
X186407681Y-93799762D01*
X186407676Y-93799771D01*
X186336027Y-93972748D01*
X186336025Y-93972756D01*
X186299500Y-94156379D01*
X186299500Y-94343620D01*
X186336025Y-94527243D01*
X186336027Y-94527251D01*
X186407676Y-94700228D01*
X186407681Y-94700237D01*
X186511697Y-94855907D01*
X186511700Y-94855911D01*
X186644088Y-94988299D01*
X186644092Y-94988302D01*
X186799762Y-95092318D01*
X186799768Y-95092321D01*
X186799769Y-95092322D01*
X186972749Y-95163973D01*
X187151357Y-95199500D01*
X187156379Y-95200499D01*
X187156383Y-95200500D01*
X187156384Y-95200500D01*
X187343617Y-95200500D01*
X187343618Y-95200499D01*
X187527251Y-95163973D01*
X187700231Y-95092322D01*
X187855908Y-94988302D01*
X187988302Y-94855908D01*
X188092322Y-94700231D01*
X188163973Y-94527251D01*
X188200500Y-94343616D01*
X188200500Y-94156384D01*
X188163973Y-93972749D01*
X188092322Y-93799769D01*
X188092321Y-93799768D01*
X188092318Y-93799762D01*
X187988302Y-93644092D01*
X187988299Y-93644088D01*
X187986819Y-93642608D01*
X187986291Y-93641641D01*
X187984437Y-93639382D01*
X187984865Y-93639030D01*
X187972115Y-93615680D01*
X187955523Y-93589862D01*
X187954631Y-93583661D01*
X187953334Y-93581285D01*
X187950500Y-93554927D01*
X187950500Y-93473547D01*
X187970185Y-93406508D01*
X188001614Y-93373230D01*
X188129792Y-93280104D01*
X188280104Y-93129792D01*
X188280106Y-93129788D01*
X188280109Y-93129786D01*
X188405048Y-92957820D01*
X188405047Y-92957820D01*
X188405051Y-92957816D01*
X188501557Y-92768412D01*
X188567246Y-92566243D01*
X188600500Y-92356287D01*
X188600500Y-92143713D01*
X188567246Y-91933757D01*
X188501557Y-91731588D01*
X188405051Y-91542184D01*
X188405049Y-91542181D01*
X188405048Y-91542179D01*
X188280109Y-91370213D01*
X188129786Y-91219890D01*
X187957820Y-91094951D01*
X187777868Y-91003261D01*
X187768414Y-90998444D01*
X187768413Y-90998443D01*
X187768412Y-90998443D01*
X187566243Y-90932754D01*
X187566241Y-90932753D01*
X187566240Y-90932753D01*
X187404957Y-90907208D01*
X187356287Y-90899500D01*
X187143713Y-90899500D01*
X187095042Y-90907208D01*
X186933760Y-90932753D01*
X186731585Y-90998444D01*
X186542179Y-91094951D01*
X186370213Y-91219890D01*
X186219890Y-91370213D01*
X186094951Y-91542179D01*
X185998444Y-91731585D01*
X185932753Y-91933760D01*
X185899500Y-92143713D01*
X183520500Y-92143713D01*
X183487246Y-91933757D01*
X183421557Y-91731588D01*
X183325051Y-91542184D01*
X183325049Y-91542181D01*
X183325048Y-91542179D01*
X183200109Y-91370213D01*
X183049786Y-91219890D01*
X182877820Y-91094951D01*
X182688414Y-90998444D01*
X182688413Y-90998443D01*
X182688412Y-90998443D01*
X182486243Y-90932754D01*
X182486241Y-90932753D01*
X182486240Y-90932753D01*
X182324957Y-90907208D01*
X182276287Y-90899500D01*
X182063713Y-90899500D01*
X182015042Y-90907208D01*
X181853760Y-90932753D01*
X181651585Y-90998444D01*
X181462179Y-91094951D01*
X181290213Y-91219890D01*
X181139890Y-91370213D01*
X181014949Y-91542182D01*
X181010484Y-91550946D01*
X180962509Y-91601742D01*
X180894688Y-91618536D01*
X180828553Y-91595998D01*
X180789516Y-91550946D01*
X180785050Y-91542182D01*
X180660109Y-91370213D01*
X180509786Y-91219890D01*
X180337820Y-91094951D01*
X180148414Y-90998444D01*
X180148413Y-90998443D01*
X180148412Y-90998443D01*
X179946243Y-90932754D01*
X179946241Y-90932753D01*
X179946240Y-90932753D01*
X179784957Y-90907208D01*
X179736287Y-90899500D01*
X179523713Y-90899500D01*
X179475042Y-90907208D01*
X179313760Y-90932753D01*
X179111585Y-90998444D01*
X178922179Y-91094951D01*
X178750213Y-91219890D01*
X178599890Y-91370213D01*
X178474949Y-91542182D01*
X178470484Y-91550946D01*
X178422509Y-91601742D01*
X178354688Y-91618536D01*
X178288553Y-91595998D01*
X178249516Y-91550946D01*
X178245050Y-91542182D01*
X178120109Y-91370213D01*
X177969786Y-91219890D01*
X177797820Y-91094951D01*
X177608414Y-90998444D01*
X177608413Y-90998443D01*
X177608412Y-90998443D01*
X177406243Y-90932754D01*
X177406241Y-90932753D01*
X177406240Y-90932753D01*
X177244957Y-90907208D01*
X177196287Y-90899500D01*
X176983713Y-90899500D01*
X176935042Y-90907208D01*
X176773760Y-90932753D01*
X176571585Y-90998444D01*
X176382179Y-91094951D01*
X176210213Y-91219890D01*
X176059890Y-91370213D01*
X175934949Y-91542182D01*
X175930484Y-91550946D01*
X175882509Y-91601742D01*
X175814688Y-91618536D01*
X175748553Y-91595998D01*
X175709516Y-91550946D01*
X175705050Y-91542182D01*
X175580109Y-91370213D01*
X175429786Y-91219890D01*
X175257820Y-91094951D01*
X175068414Y-90998444D01*
X175068413Y-90998443D01*
X175068412Y-90998443D01*
X174866243Y-90932754D01*
X174866241Y-90932753D01*
X174866240Y-90932753D01*
X174704957Y-90907208D01*
X174656287Y-90899500D01*
X174443713Y-90899500D01*
X174395042Y-90907208D01*
X174233760Y-90932753D01*
X174031585Y-90998444D01*
X173842179Y-91094951D01*
X173670213Y-91219890D01*
X173519890Y-91370213D01*
X173394949Y-91542182D01*
X173390484Y-91550946D01*
X173342509Y-91601742D01*
X173274688Y-91618536D01*
X173208553Y-91595998D01*
X173169516Y-91550946D01*
X173165050Y-91542182D01*
X173040109Y-91370213D01*
X172889786Y-91219890D01*
X172717820Y-91094951D01*
X172528414Y-90998444D01*
X172528413Y-90998443D01*
X172528412Y-90998443D01*
X172326243Y-90932754D01*
X172326241Y-90932753D01*
X172326240Y-90932753D01*
X172164957Y-90907208D01*
X172116287Y-90899500D01*
X171903713Y-90899500D01*
X171855042Y-90907208D01*
X171693760Y-90932753D01*
X171491585Y-90998444D01*
X171302179Y-91094951D01*
X171130213Y-91219890D01*
X170979890Y-91370213D01*
X170854949Y-91542182D01*
X170850484Y-91550946D01*
X170802509Y-91601742D01*
X170734688Y-91618536D01*
X170668553Y-91595998D01*
X170629516Y-91550946D01*
X170625050Y-91542182D01*
X170500109Y-91370213D01*
X170349786Y-91219890D01*
X170177820Y-91094951D01*
X169988414Y-90998444D01*
X169988413Y-90998443D01*
X169988412Y-90998443D01*
X169786243Y-90932754D01*
X169786241Y-90932753D01*
X169786240Y-90932753D01*
X169624957Y-90907208D01*
X169576287Y-90899500D01*
X169363713Y-90899500D01*
X169315042Y-90907208D01*
X169153760Y-90932753D01*
X168951585Y-90998444D01*
X168762179Y-91094951D01*
X168590213Y-91219890D01*
X168439890Y-91370213D01*
X168314951Y-91542179D01*
X168218444Y-91731585D01*
X168152753Y-91933760D01*
X168119500Y-92143713D01*
X163200500Y-92143713D01*
X163167246Y-91933757D01*
X163101557Y-91731588D01*
X163005051Y-91542184D01*
X163005049Y-91542181D01*
X163005048Y-91542179D01*
X162880109Y-91370213D01*
X162729789Y-91219893D01*
X162728493Y-91218786D01*
X162728137Y-91218241D01*
X162726347Y-91216451D01*
X162726723Y-91216074D01*
X162690302Y-91160277D01*
X162689807Y-91090409D01*
X162727164Y-91031365D01*
X162790512Y-91001890D01*
X162809029Y-91000500D01*
X164815890Y-91000500D01*
X164815892Y-91000500D01*
X164943186Y-90966392D01*
X165057314Y-90900500D01*
X165060166Y-90897648D01*
X196759500Y-90897648D01*
X196759500Y-91102351D01*
X196791522Y-91304534D01*
X196854781Y-91499223D01*
X196947715Y-91681613D01*
X197068028Y-91847213D01*
X197212786Y-91991971D01*
X197367749Y-92104556D01*
X197378390Y-92112287D01*
X197494607Y-92171503D01*
X197560776Y-92205218D01*
X197560778Y-92205218D01*
X197560781Y-92205220D01*
X197665137Y-92239127D01*
X197755465Y-92268477D01*
X197856557Y-92284488D01*
X197957648Y-92300500D01*
X197957649Y-92300500D01*
X198162351Y-92300500D01*
X198162352Y-92300500D01*
X198364534Y-92268477D01*
X198559219Y-92205220D01*
X198741610Y-92112287D01*
X198834590Y-92044732D01*
X198907213Y-91991971D01*
X198907215Y-91991968D01*
X198907219Y-91991966D01*
X199051966Y-91847219D01*
X199051968Y-91847215D01*
X199051971Y-91847213D01*
X199135978Y-91731585D01*
X199172287Y-91681610D01*
X199265220Y-91499219D01*
X199328477Y-91304534D01*
X199360500Y-91102352D01*
X199360500Y-90897648D01*
X200009500Y-90897648D01*
X200009500Y-91102351D01*
X200041522Y-91304534D01*
X200104781Y-91499223D01*
X200197715Y-91681613D01*
X200318028Y-91847213D01*
X200462786Y-91991971D01*
X200617749Y-92104556D01*
X200628390Y-92112287D01*
X200744607Y-92171503D01*
X200810776Y-92205218D01*
X200810778Y-92205218D01*
X200810781Y-92205220D01*
X200915137Y-92239127D01*
X201005465Y-92268477D01*
X201106557Y-92284488D01*
X201207648Y-92300500D01*
X201207649Y-92300500D01*
X201412351Y-92300500D01*
X201412352Y-92300500D01*
X201614534Y-92268477D01*
X201809219Y-92205220D01*
X201991610Y-92112287D01*
X202084590Y-92044732D01*
X202157213Y-91991971D01*
X202157215Y-91991968D01*
X202157219Y-91991966D01*
X202301966Y-91847219D01*
X202301968Y-91847215D01*
X202301971Y-91847213D01*
X202385978Y-91731585D01*
X202422287Y-91681610D01*
X202515220Y-91499219D01*
X202578477Y-91304534D01*
X202610500Y-91102352D01*
X202610500Y-90897648D01*
X202578477Y-90695466D01*
X202515220Y-90500781D01*
X202515218Y-90500778D01*
X202515218Y-90500776D01*
X202470691Y-90413389D01*
X202422287Y-90318390D01*
X202414556Y-90307749D01*
X202301971Y-90152786D01*
X202157213Y-90008028D01*
X201991613Y-89887715D01*
X201991612Y-89887714D01*
X201991610Y-89887713D01*
X201934653Y-89858691D01*
X201809223Y-89794781D01*
X201614534Y-89731522D01*
X201439995Y-89703878D01*
X201412352Y-89699500D01*
X201207648Y-89699500D01*
X201183329Y-89703351D01*
X201005465Y-89731522D01*
X200810776Y-89794781D01*
X200628386Y-89887715D01*
X200462786Y-90008028D01*
X200318028Y-90152786D01*
X200197715Y-90318386D01*
X200104781Y-90500776D01*
X200041522Y-90695465D01*
X200009500Y-90897648D01*
X199360500Y-90897648D01*
X199328477Y-90695466D01*
X199265220Y-90500781D01*
X199265218Y-90500778D01*
X199265218Y-90500776D01*
X199220691Y-90413389D01*
X199172287Y-90318390D01*
X199164556Y-90307749D01*
X199051971Y-90152786D01*
X198907213Y-90008028D01*
X198741613Y-89887715D01*
X198741612Y-89887714D01*
X198741610Y-89887713D01*
X198684653Y-89858691D01*
X198559223Y-89794781D01*
X198364534Y-89731522D01*
X198189995Y-89703878D01*
X198162352Y-89699500D01*
X197957648Y-89699500D01*
X197933329Y-89703351D01*
X197755465Y-89731522D01*
X197560776Y-89794781D01*
X197378386Y-89887715D01*
X197212786Y-90008028D01*
X197068028Y-90152786D01*
X196947715Y-90318386D01*
X196854781Y-90500776D01*
X196791522Y-90695465D01*
X196759500Y-90897648D01*
X165060166Y-90897648D01*
X165150500Y-90807314D01*
X165216392Y-90693186D01*
X165250500Y-90565892D01*
X165250500Y-87643713D01*
X176399500Y-87643713D01*
X176399500Y-87856286D01*
X176425178Y-88018414D01*
X176432754Y-88066243D01*
X176478755Y-88207820D01*
X176498444Y-88268414D01*
X176594951Y-88457820D01*
X176719890Y-88629786D01*
X176870213Y-88780109D01*
X177042179Y-88905048D01*
X177042181Y-88905049D01*
X177042184Y-88905051D01*
X177231588Y-89001557D01*
X177433757Y-89067246D01*
X177643713Y-89100500D01*
X177643714Y-89100500D01*
X177856286Y-89100500D01*
X177856287Y-89100500D01*
X178066243Y-89067246D01*
X178268412Y-89001557D01*
X178457816Y-88905051D01*
X178532901Y-88850499D01*
X178629786Y-88780109D01*
X178629788Y-88780106D01*
X178629792Y-88780104D01*
X178780104Y-88629792D01*
X178780106Y-88629788D01*
X178780109Y-88629786D01*
X178905048Y-88457820D01*
X178905047Y-88457820D01*
X178905051Y-88457816D01*
X179001557Y-88268412D01*
X179007069Y-88251446D01*
X179046505Y-88193771D01*
X179110864Y-88166572D01*
X179179710Y-88178486D01*
X179231187Y-88225730D01*
X179242931Y-88251447D01*
X179248443Y-88268413D01*
X179344951Y-88457820D01*
X179469890Y-88629786D01*
X179620213Y-88780109D01*
X179792179Y-88905048D01*
X179792181Y-88905049D01*
X179792184Y-88905051D01*
X179981588Y-89001557D01*
X180183757Y-89067246D01*
X180393713Y-89100500D01*
X180393714Y-89100500D01*
X180606286Y-89100500D01*
X180606287Y-89100500D01*
X180816243Y-89067246D01*
X181018412Y-89001557D01*
X181207816Y-88905051D01*
X181282901Y-88850499D01*
X181379786Y-88780109D01*
X181379788Y-88780106D01*
X181379792Y-88780104D01*
X181530104Y-88629792D01*
X181530106Y-88629788D01*
X181530109Y-88629786D01*
X181655048Y-88457820D01*
X181655047Y-88457820D01*
X181655051Y-88457816D01*
X181751557Y-88268412D01*
X181817246Y-88066243D01*
X181850500Y-87856287D01*
X181850500Y-87643713D01*
X181817246Y-87433757D01*
X181751557Y-87231588D01*
X181655051Y-87042184D01*
X181655049Y-87042181D01*
X181655048Y-87042179D01*
X181530109Y-86870213D01*
X181379786Y-86719890D01*
X181207820Y-86594951D01*
X181018414Y-86498444D01*
X181018413Y-86498443D01*
X181018412Y-86498443D01*
X180816243Y-86432754D01*
X180816241Y-86432753D01*
X180816240Y-86432753D01*
X180654957Y-86407208D01*
X180606287Y-86399500D01*
X180393713Y-86399500D01*
X180345042Y-86407208D01*
X180183760Y-86432753D01*
X179981585Y-86498444D01*
X179792179Y-86594951D01*
X179620213Y-86719890D01*
X179469890Y-86870213D01*
X179344951Y-87042179D01*
X179248444Y-87231585D01*
X179242931Y-87248553D01*
X179203493Y-87306229D01*
X179139135Y-87333427D01*
X179070288Y-87321512D01*
X179018813Y-87274268D01*
X179007069Y-87248553D01*
X179001557Y-87231588D01*
X178905051Y-87042184D01*
X178905049Y-87042181D01*
X178905048Y-87042179D01*
X178780109Y-86870213D01*
X178629786Y-86719890D01*
X178457820Y-86594951D01*
X178268414Y-86498444D01*
X178268413Y-86498443D01*
X178268412Y-86498443D01*
X178066243Y-86432754D01*
X178066241Y-86432753D01*
X178066240Y-86432753D01*
X177904957Y-86407208D01*
X177856287Y-86399500D01*
X177643713Y-86399500D01*
X177595042Y-86407208D01*
X177433760Y-86432753D01*
X177231585Y-86498444D01*
X177042179Y-86594951D01*
X176870213Y-86719890D01*
X176719890Y-86870213D01*
X176594951Y-87042179D01*
X176498444Y-87231585D01*
X176432753Y-87433760D01*
X176399500Y-87643713D01*
X165250500Y-87643713D01*
X165250500Y-79906379D01*
X182549500Y-79906379D01*
X182549500Y-80093620D01*
X182586025Y-80277243D01*
X182586027Y-80277251D01*
X182657676Y-80450228D01*
X182657681Y-80450237D01*
X182761697Y-80605907D01*
X182761700Y-80605911D01*
X182894088Y-80738299D01*
X182894092Y-80738302D01*
X183049762Y-80842318D01*
X183049771Y-80842323D01*
X183073440Y-80852127D01*
X183222749Y-80913973D01*
X183406379Y-80950499D01*
X183406383Y-80950500D01*
X183406384Y-80950500D01*
X183408481Y-80950500D01*
X183409539Y-80950810D01*
X183412445Y-80951097D01*
X183412390Y-80951648D01*
X183475520Y-80970185D01*
X183496162Y-80986819D01*
X186223181Y-83713838D01*
X186256666Y-83775161D01*
X186259500Y-83801519D01*
X186259500Y-86276452D01*
X186239815Y-86343491D01*
X186208385Y-86376770D01*
X186080215Y-86469889D01*
X185966673Y-86583431D01*
X185905350Y-86616915D01*
X185835658Y-86611931D01*
X185779725Y-86570059D01*
X185762810Y-86539082D01*
X185713797Y-86407671D01*
X185713793Y-86407664D01*
X185627547Y-86292455D01*
X185627544Y-86292452D01*
X185512335Y-86206206D01*
X185512328Y-86206202D01*
X185377482Y-86155908D01*
X185377483Y-86155908D01*
X185317883Y-86149501D01*
X185317881Y-86149500D01*
X185317873Y-86149500D01*
X185317864Y-86149500D01*
X183522129Y-86149500D01*
X183522123Y-86149501D01*
X183462516Y-86155908D01*
X183327671Y-86206202D01*
X183327664Y-86206206D01*
X183212455Y-86292452D01*
X183212452Y-86292455D01*
X183126206Y-86407664D01*
X183126202Y-86407671D01*
X183075908Y-86542517D01*
X183069501Y-86602116D01*
X183069500Y-86602135D01*
X183069500Y-88397870D01*
X183069501Y-88397876D01*
X183075908Y-88457483D01*
X183126202Y-88592328D01*
X183126206Y-88592335D01*
X183212452Y-88707544D01*
X183212455Y-88707547D01*
X183327664Y-88793793D01*
X183327671Y-88793797D01*
X183462517Y-88844091D01*
X183462516Y-88844091D01*
X183469444Y-88844835D01*
X183522127Y-88850500D01*
X185317872Y-88850499D01*
X185377483Y-88844091D01*
X185512331Y-88793796D01*
X185627546Y-88707546D01*
X185713796Y-88592331D01*
X185762810Y-88460916D01*
X185804681Y-88404984D01*
X185870145Y-88380566D01*
X185938418Y-88395417D01*
X185966673Y-88416569D01*
X186080213Y-88530109D01*
X186252179Y-88655048D01*
X186252181Y-88655049D01*
X186252184Y-88655051D01*
X186441588Y-88751557D01*
X186643757Y-88817246D01*
X186853713Y-88850500D01*
X186853714Y-88850500D01*
X187066286Y-88850500D01*
X187066287Y-88850500D01*
X187276243Y-88817246D01*
X187478412Y-88751557D01*
X187667816Y-88655051D01*
X187754138Y-88592335D01*
X187839786Y-88530109D01*
X187839788Y-88530106D01*
X187839792Y-88530104D01*
X187990104Y-88379792D01*
X187990106Y-88379788D01*
X187990109Y-88379786D01*
X188115048Y-88207820D01*
X188115047Y-88207820D01*
X188115051Y-88207816D01*
X188211557Y-88018412D01*
X188277246Y-87816243D01*
X188310500Y-87606287D01*
X188310500Y-87393713D01*
X194689500Y-87393713D01*
X194689500Y-87606286D01*
X194722753Y-87816239D01*
X194788444Y-88018414D01*
X194884951Y-88207820D01*
X195009890Y-88379786D01*
X195160213Y-88530109D01*
X195332179Y-88655048D01*
X195332181Y-88655049D01*
X195332184Y-88655051D01*
X195521588Y-88751557D01*
X195723757Y-88817246D01*
X195933713Y-88850500D01*
X195933714Y-88850500D01*
X196146286Y-88850500D01*
X196146287Y-88850500D01*
X196356243Y-88817246D01*
X196558412Y-88751557D01*
X196747816Y-88655051D01*
X196834138Y-88592335D01*
X196919786Y-88530109D01*
X196919788Y-88530106D01*
X196919792Y-88530104D01*
X197070104Y-88379792D01*
X197070106Y-88379788D01*
X197070109Y-88379786D01*
X197195048Y-88207820D01*
X197195047Y-88207820D01*
X197195051Y-88207816D01*
X197199514Y-88199054D01*
X197247488Y-88148259D01*
X197315308Y-88131463D01*
X197381444Y-88153999D01*
X197420486Y-88199056D01*
X197424951Y-88207820D01*
X197549890Y-88379786D01*
X197700213Y-88530109D01*
X197872179Y-88655048D01*
X197872181Y-88655049D01*
X197872184Y-88655051D01*
X198061588Y-88751557D01*
X198263757Y-88817246D01*
X198473713Y-88850500D01*
X198473714Y-88850500D01*
X198686286Y-88850500D01*
X198686287Y-88850500D01*
X198896243Y-88817246D01*
X199098412Y-88751557D01*
X199287816Y-88655051D01*
X199374138Y-88592335D01*
X199459786Y-88530109D01*
X199459788Y-88530106D01*
X199459792Y-88530104D01*
X199610104Y-88379792D01*
X199610106Y-88379788D01*
X199610109Y-88379786D01*
X199735048Y-88207820D01*
X199735047Y-88207820D01*
X199735051Y-88207816D01*
X199739514Y-88199054D01*
X199787488Y-88148259D01*
X199855308Y-88131463D01*
X199921444Y-88153999D01*
X199960486Y-88199056D01*
X199964951Y-88207820D01*
X200089890Y-88379786D01*
X200240213Y-88530109D01*
X200412179Y-88655048D01*
X200412181Y-88655049D01*
X200412184Y-88655051D01*
X200601588Y-88751557D01*
X200803757Y-88817246D01*
X201013713Y-88850500D01*
X201013714Y-88850500D01*
X201226286Y-88850500D01*
X201226287Y-88850500D01*
X201436243Y-88817246D01*
X201638412Y-88751557D01*
X201827816Y-88655051D01*
X201914138Y-88592335D01*
X201999786Y-88530109D01*
X201999788Y-88530106D01*
X201999792Y-88530104D01*
X202150104Y-88379792D01*
X202150106Y-88379788D01*
X202150109Y-88379786D01*
X202275048Y-88207820D01*
X202275047Y-88207820D01*
X202275051Y-88207816D01*
X202371557Y-88018412D01*
X202437246Y-87816243D01*
X202470500Y-87606287D01*
X202470500Y-87393713D01*
X202437246Y-87183757D01*
X202371557Y-86981588D01*
X202275051Y-86792184D01*
X202275049Y-86792181D01*
X202275048Y-86792179D01*
X202150109Y-86620213D01*
X201999786Y-86469890D01*
X201827820Y-86344951D01*
X201638414Y-86248444D01*
X201638413Y-86248443D01*
X201638412Y-86248443D01*
X201436243Y-86182754D01*
X201436241Y-86182753D01*
X201436240Y-86182753D01*
X201274957Y-86157208D01*
X201226287Y-86149500D01*
X201013713Y-86149500D01*
X200965042Y-86157208D01*
X200803760Y-86182753D01*
X200601585Y-86248444D01*
X200412179Y-86344951D01*
X200240213Y-86469890D01*
X200089890Y-86620213D01*
X199964949Y-86792182D01*
X199960484Y-86800946D01*
X199912509Y-86851742D01*
X199844688Y-86868536D01*
X199778553Y-86845998D01*
X199739516Y-86800946D01*
X199735050Y-86792182D01*
X199610109Y-86620213D01*
X199459786Y-86469890D01*
X199287820Y-86344951D01*
X199098414Y-86248444D01*
X199098413Y-86248443D01*
X199098412Y-86248443D01*
X198896243Y-86182754D01*
X198896241Y-86182753D01*
X198896240Y-86182753D01*
X198734957Y-86157208D01*
X198686287Y-86149500D01*
X198473713Y-86149500D01*
X198425042Y-86157208D01*
X198263760Y-86182753D01*
X198061585Y-86248444D01*
X197872179Y-86344951D01*
X197700213Y-86469890D01*
X197549890Y-86620213D01*
X197424949Y-86792182D01*
X197420484Y-86800946D01*
X197372509Y-86851742D01*
X197304688Y-86868536D01*
X197238553Y-86845998D01*
X197199516Y-86800946D01*
X197195050Y-86792182D01*
X197070109Y-86620213D01*
X196919786Y-86469890D01*
X196747820Y-86344951D01*
X196558414Y-86248444D01*
X196558413Y-86248443D01*
X196558412Y-86248443D01*
X196356243Y-86182754D01*
X196356241Y-86182753D01*
X196356240Y-86182753D01*
X196194957Y-86157208D01*
X196146287Y-86149500D01*
X195933713Y-86149500D01*
X195885042Y-86157208D01*
X195723760Y-86182753D01*
X195521585Y-86248444D01*
X195332179Y-86344951D01*
X195160213Y-86469890D01*
X195009890Y-86620213D01*
X194884951Y-86792179D01*
X194788444Y-86981585D01*
X194722753Y-87183760D01*
X194689500Y-87393713D01*
X188310500Y-87393713D01*
X188277246Y-87183757D01*
X188211557Y-86981588D01*
X188115051Y-86792184D01*
X188115049Y-86792181D01*
X188115048Y-86792179D01*
X187990109Y-86620213D01*
X187839786Y-86469890D01*
X187711615Y-86376770D01*
X187668949Y-86321441D01*
X187660500Y-86276452D01*
X187660500Y-83391004D01*
X187633581Y-83255677D01*
X187633580Y-83255676D01*
X187633580Y-83255672D01*
X187628711Y-83243916D01*
X187580777Y-83128193D01*
X187580776Y-83128191D01*
X187580775Y-83128189D01*
X187562273Y-83100499D01*
X187557991Y-83094091D01*
X187504112Y-83013454D01*
X184486819Y-79996161D01*
X184453334Y-79934838D01*
X184450500Y-79908480D01*
X184450500Y-79906383D01*
X184450499Y-79906379D01*
X184419759Y-79751837D01*
X184413973Y-79722749D01*
X184342322Y-79549769D01*
X184342321Y-79549768D01*
X184342318Y-79549762D01*
X184238302Y-79394092D01*
X184238299Y-79394088D01*
X184105911Y-79261700D01*
X184105907Y-79261697D01*
X183950237Y-79157681D01*
X183950228Y-79157676D01*
X183777251Y-79086027D01*
X183777243Y-79086025D01*
X183593620Y-79049500D01*
X183593616Y-79049500D01*
X183406384Y-79049500D01*
X183406379Y-79049500D01*
X183222756Y-79086025D01*
X183222748Y-79086027D01*
X183049771Y-79157676D01*
X183049762Y-79157681D01*
X182894092Y-79261697D01*
X182894088Y-79261700D01*
X182761700Y-79394088D01*
X182761697Y-79394092D01*
X182657681Y-79549762D01*
X182657676Y-79549771D01*
X182586027Y-79722748D01*
X182586025Y-79722756D01*
X182549500Y-79906379D01*
X165250500Y-79906379D01*
X165250500Y-77082484D01*
X190349500Y-77082484D01*
X190349500Y-79482515D01*
X190360000Y-79585295D01*
X190360001Y-79585296D01*
X190415186Y-79751835D01*
X190415187Y-79751837D01*
X190507286Y-79901151D01*
X190507289Y-79901155D01*
X190631344Y-80025210D01*
X190631348Y-80025213D01*
X190780662Y-80117312D01*
X190780664Y-80117313D01*
X190780666Y-80117314D01*
X190947203Y-80172499D01*
X191049992Y-80183000D01*
X191049997Y-80183000D01*
X193450003Y-80183000D01*
X193450008Y-80183000D01*
X193552797Y-80172499D01*
X193719334Y-80117314D01*
X193868655Y-80025211D01*
X193992711Y-79901155D01*
X194084814Y-79751834D01*
X194139999Y-79585297D01*
X194150500Y-79482508D01*
X194150500Y-77128711D01*
X198149500Y-77128711D01*
X198149500Y-77371288D01*
X198181161Y-77611785D01*
X198243947Y-77846104D01*
X198245354Y-77849500D01*
X198336776Y-78070212D01*
X198458064Y-78280289D01*
X198458066Y-78280292D01*
X198458067Y-78280293D01*
X198605733Y-78472736D01*
X198605739Y-78472743D01*
X198777256Y-78644260D01*
X198777262Y-78644265D01*
X198969711Y-78791936D01*
X199179788Y-78913224D01*
X199403900Y-79006054D01*
X199638211Y-79068838D01*
X199818586Y-79092584D01*
X199878711Y-79100500D01*
X199878712Y-79100500D01*
X200121289Y-79100500D01*
X200169388Y-79094167D01*
X200361789Y-79068838D01*
X200596100Y-79006054D01*
X200820212Y-78913224D01*
X201030289Y-78791936D01*
X201222738Y-78644265D01*
X201394265Y-78472738D01*
X201541936Y-78280289D01*
X201663224Y-78070212D01*
X201756054Y-77846100D01*
X201818838Y-77611789D01*
X201850500Y-77371288D01*
X201850500Y-77128712D01*
X201818838Y-76888211D01*
X201756054Y-76653900D01*
X201663224Y-76429788D01*
X201541936Y-76219711D01*
X201394265Y-76027262D01*
X201394260Y-76027256D01*
X201222743Y-75855739D01*
X201222736Y-75855733D01*
X201030293Y-75708067D01*
X201030292Y-75708066D01*
X201030289Y-75708064D01*
X200820212Y-75586776D01*
X200820205Y-75586773D01*
X200596104Y-75493947D01*
X200361785Y-75431161D01*
X200121289Y-75399500D01*
X200121288Y-75399500D01*
X199878712Y-75399500D01*
X199878711Y-75399500D01*
X199638214Y-75431161D01*
X199403895Y-75493947D01*
X199179794Y-75586773D01*
X199179785Y-75586777D01*
X198969706Y-75708067D01*
X198777263Y-75855733D01*
X198777256Y-75855739D01*
X198605739Y-76027256D01*
X198605733Y-76027263D01*
X198458067Y-76219706D01*
X198336777Y-76429785D01*
X198336773Y-76429794D01*
X198243947Y-76653895D01*
X198181161Y-76888214D01*
X198149500Y-77128711D01*
X194150500Y-77128711D01*
X194150500Y-77082492D01*
X194139999Y-76979703D01*
X194084814Y-76813166D01*
X193992711Y-76663845D01*
X193868655Y-76539789D01*
X193868651Y-76539786D01*
X193719337Y-76447687D01*
X193719335Y-76447686D01*
X193636065Y-76420093D01*
X193552797Y-76392501D01*
X193552795Y-76392500D01*
X193450015Y-76382000D01*
X193450008Y-76382000D01*
X191049992Y-76382000D01*
X191049984Y-76382000D01*
X190947204Y-76392500D01*
X190947203Y-76392501D01*
X190780664Y-76447686D01*
X190780662Y-76447687D01*
X190631348Y-76539786D01*
X190631344Y-76539789D01*
X190507289Y-76663844D01*
X190507286Y-76663848D01*
X190415187Y-76813162D01*
X190415186Y-76813164D01*
X190360001Y-76979703D01*
X190360000Y-76979704D01*
X190349500Y-77082484D01*
X165250500Y-77082484D01*
X165250500Y-67374500D01*
X165270185Y-67307461D01*
X165322989Y-67261706D01*
X165374500Y-67250500D01*
X177211774Y-67250500D01*
X177278813Y-67270185D01*
G37*
%TD.AperFunction*%
%TD*%
M02*
