M48
; DRILL file KiCad 10.0.3-10.0.3~ubuntu24.04.1 date 2026-05-24T20:11:02
; FORMAT={-:-/ absolute / metric / decimal}
; #@! TF.CreationDate,2026-05-24T20:11:02+02:00
; #@! TF.GenerationSoftware,Kicad,Pcbnew,10.0.3-10.0.3~ubuntu24.04.1
; #@! TF.FileFunction,Plated,1,2,PTH
FMAT,2
METRIC
; #@! TA.AperFunction,Plated,PTH,ViaDrill
T1C0.300
; #@! TA.AperFunction,Plated,PTH,ViaDrill
T2C0.400
; #@! TA.AperFunction,Plated,PTH,ComponentDrill
T3C0.600
; #@! TA.AperFunction,Plated,PTH,ComponentDrill
T4C0.750
; #@! TA.AperFunction,Plated,PTH,ComponentDrill
T5C0.800
; #@! TA.AperFunction,Plated,PTH,ComponentDrill
T6C1.000
; #@! TA.AperFunction,Plated,PTH,ComponentDrill
T7C1.300
%
G90
G05
T1
X84.0Y-95.0
X84.0Y-100.0
X85.0Y-80.0
X85.0Y-110.0
X85.0Y-115.0
X90.0Y-80.0
X90.0Y-90.0
X90.0Y-95.0
X90.0Y-100.0
X90.0Y-110.0
X90.0Y-115.0
X95.0Y-90.0
X95.0Y-95.0
X95.0Y-99.75
X95.0Y-110.0
X95.0Y-115.0
X100.0Y-90.0
X100.0Y-95.0
X100.0Y-99.75
X100.0Y-110.0
X100.0Y-115.0
X105.0Y-90.0
X105.0Y-94.0
X105.0Y-110.0
X105.0Y-115.0
X110.0Y-85.0
X110.0Y-90.0
X110.0Y-94.0
X110.0Y-105.0
X110.0Y-110.0
X110.0Y-115.0
X115.0Y-80.0
X115.0Y-90.0
X115.0Y-94.0
X115.0Y-100.0
X115.0Y-105.0
X115.0Y-110.0
X115.0Y-115.0
X120.0Y-80.0
X120.0Y-85.0
X120.0Y-94.0
X120.0Y-100.0
X120.0Y-105.0
X120.0Y-110.0
X120.0Y-115.0
X125.0Y-94.0
X125.0Y-105.0
X130.0Y-94.0
X130.0Y-100.0
X130.0Y-115.0
X135.0Y-100.0
X135.0Y-110.0
X135.0Y-115.0
X140.0Y-105.5
X140.0Y-110.0
X140.0Y-115.0
X141.0Y-94.0
X141.0Y-100.0
X145.0Y-94.0
X145.0Y-100.0
X145.0Y-105.0
X145.0Y-110.0
X145.0Y-115.0
X150.0Y-100.0
X150.0Y-105.0
X150.0Y-110.0
X150.0Y-115.0
X154.23Y-97.25
X155.0Y-100.0
X155.0Y-105.0
X155.0Y-115.0
X159.157Y-97.343
X160.0Y-105.0
X160.0Y-110.0
X165.0Y-95.0
X165.0Y-110.0
X165.0Y-115.0
X170.0Y-70.0
X170.0Y-75.0
X170.0Y-80.0
X170.0Y-85.0
X170.0Y-95.0
X170.0Y-115.0
X175.0Y-70.0
X175.0Y-75.0
X175.0Y-80.0
X175.0Y-85.0
X175.0Y-90.0
X175.0Y-105.0
X175.0Y-110.0
X180.0Y-75.0
X180.0Y-80.0
X180.0Y-95.0
X180.0Y-105.0
X180.0Y-110.0
X180.0Y-115.0
X182.5Y-87.0
X185.0Y-75.0
X185.0Y-80.0
X185.0Y-95.0
X185.0Y-105.0
X185.0Y-110.0
X185.0Y-115.0
X190.0Y-75.0
X190.0Y-90.0
X190.0Y-95.0
X190.0Y-105.0
X190.0Y-110.0
X190.0Y-115.0
X195.0Y-75.0
X195.0Y-80.0
X195.0Y-90.0
X195.0Y-100.0
X195.0Y-105.0
X195.0Y-110.0
X195.0Y-115.0
X200.0Y-75.0
X200.0Y-95.0
X200.0Y-105.0
X200.0Y-110.0
T2
X102.25Y-94.5
X104.25Y-96.5
X149.75Y-117.5
X183.5Y-80.0
X187.25Y-94.25
T3
X84.25Y-90.5
X84.25Y-101.0
X86.25Y-90.5
X86.25Y-101.0
X125.0Y-100.5
X127.0Y-100.5
X130.0Y-98.0
X130.0Y-103.5
X132.0Y-98.0
X132.0Y-103.5
T4
X128.23Y-108.64
X129.5Y-109.91
X130.77Y-108.64
T5
X125.365Y-108.805
X125.365Y-116.425
X128.01Y-116.25
X128.09Y-113.0
X138.17Y-116.25
X138.25Y-113.0
X161.84Y-96.5
X172.0Y-96.5
X198.06Y-91.0
X198.06Y-101.16
X201.31Y-91.0
X201.31Y-101.16
T6
X90.26Y-85.3
X90.26Y-98.0
X90.3Y-105.0
X90.3Y-117.7
X92.8Y-85.3
X92.8Y-98.0
X92.84Y-105.0
X92.84Y-117.7
X95.34Y-85.3
X95.34Y-98.0
X95.35Y-81.75
X95.38Y-105.0
X95.38Y-117.7
X95.41Y-101.5
X97.88Y-85.3
X97.88Y-98.0
X97.89Y-81.75
X97.92Y-105.0
X97.92Y-117.7
X97.95Y-101.5
X100.42Y-85.3
X100.42Y-98.0
X100.43Y-81.75
X100.46Y-105.0
X100.46Y-117.7
X100.49Y-101.5
X102.96Y-85.3
X102.96Y-98.0
X102.97Y-81.75
X103.0Y-105.0
X103.0Y-117.7
X103.03Y-101.5
X105.5Y-85.3
X105.5Y-98.0
X105.54Y-105.0
X105.54Y-117.7
X108.04Y-85.3
X108.04Y-98.0
X108.08Y-105.0
X108.08Y-117.7
X116.83Y-108.7
X116.83Y-116.3
X136.0Y-93.92
X136.0Y-96.46
X136.0Y-99.0
X136.0Y-101.54
X136.0Y-104.08
X151.69Y-92.25
X151.69Y-117.25
X154.23Y-92.25
X154.23Y-117.25
X156.77Y-92.25
X156.77Y-117.25
X159.31Y-92.25
X159.31Y-117.25
X161.85Y-92.25
X161.85Y-117.25
X164.39Y-117.25
X166.93Y-117.25
X167.0Y-68.75
X167.0Y-87.75
X169.47Y-92.25
X169.47Y-117.25
X169.75Y-68.75
X169.75Y-87.75
X172.01Y-92.25
X172.01Y-117.25
X174.55Y-92.25
X174.55Y-117.25
X177.09Y-92.25
X177.09Y-117.25
X177.75Y-68.75
X177.75Y-87.75
X179.63Y-92.25
X179.63Y-117.25
X180.5Y-68.75
X180.5Y-87.75
X182.17Y-92.25
X182.17Y-117.25
X184.42Y-87.5
X184.71Y-92.25
X184.71Y-117.25
X186.96Y-87.5
X187.25Y-92.25
X187.25Y-117.25
X189.5Y-87.5
X193.5Y-87.5
X196.04Y-87.5
X198.58Y-87.5
X201.12Y-87.5
T7
X187.25Y-78.282
X192.25Y-78.282
M30
