%TF.GenerationSoftware,KiCad,Pcbnew,10.0.3-10.0.3~ubuntu24.04.1*%
%TF.CreationDate,2026-05-24T20:10:43+02:00*%
%TF.ProjectId,pen_plotterV2,70656e5f-706c-46f7-9474-657256322e6b,rev?*%
%TF.SameCoordinates,Original*%
%TF.FileFunction,Legend,Top*%
%TF.FilePolarity,Positive*%
%FSLAX46Y46*%
G04 Gerber Fmt 4.6, Leading zero omitted, Abs format (unit mm)*
G04 Created by KiCad (PCBNEW 10.0.3-10.0.3~ubuntu24.04.1) date 2026-05-24 20:10:43*
%MOMM*%
%LPD*%
G01*
G04 APERTURE LIST*
%ADD10C,0.100000*%
%ADD11C,0.150000*%
%ADD12C,0.120000*%
G04 APERTURE END LIST*
D10*
X138713408Y-104320704D02*
X138675312Y-104358800D01*
X138675312Y-104358800D02*
X138561027Y-104396895D01*
X138561027Y-104396895D02*
X138484836Y-104396895D01*
X138484836Y-104396895D02*
X138370550Y-104358800D01*
X138370550Y-104358800D02*
X138294360Y-104282609D01*
X138294360Y-104282609D02*
X138256265Y-104206419D01*
X138256265Y-104206419D02*
X138218169Y-104054038D01*
X138218169Y-104054038D02*
X138218169Y-103939752D01*
X138218169Y-103939752D02*
X138256265Y-103787371D01*
X138256265Y-103787371D02*
X138294360Y-103711180D01*
X138294360Y-103711180D02*
X138370550Y-103634990D01*
X138370550Y-103634990D02*
X138484836Y-103596895D01*
X138484836Y-103596895D02*
X138561027Y-103596895D01*
X138561027Y-103596895D02*
X138675312Y-103634990D01*
X138675312Y-103634990D02*
X138713408Y-103673085D01*
X139437217Y-104396895D02*
X139056265Y-104396895D01*
X139056265Y-104396895D02*
X139056265Y-103596895D01*
X139703884Y-104396895D02*
X139703884Y-103596895D01*
X140161027Y-104396895D02*
X139818169Y-103939752D01*
X140161027Y-103596895D02*
X139703884Y-104054038D01*
X138256265Y-101896895D02*
X138256265Y-101096895D01*
X138256265Y-101096895D02*
X138446741Y-101096895D01*
X138446741Y-101096895D02*
X138561027Y-101134990D01*
X138561027Y-101134990D02*
X138637217Y-101211180D01*
X138637217Y-101211180D02*
X138675312Y-101287371D01*
X138675312Y-101287371D02*
X138713408Y-101439752D01*
X138713408Y-101439752D02*
X138713408Y-101554038D01*
X138713408Y-101554038D02*
X138675312Y-101706419D01*
X138675312Y-101706419D02*
X138637217Y-101782609D01*
X138637217Y-101782609D02*
X138561027Y-101858800D01*
X138561027Y-101858800D02*
X138446741Y-101896895D01*
X138446741Y-101896895D02*
X138256265Y-101896895D01*
X138941979Y-101096895D02*
X139399122Y-101096895D01*
X139170550Y-101896895D02*
X139170550Y-101096895D01*
X138218169Y-99358800D02*
X138332455Y-99396895D01*
X138332455Y-99396895D02*
X138522931Y-99396895D01*
X138522931Y-99396895D02*
X138599122Y-99358800D01*
X138599122Y-99358800D02*
X138637217Y-99320704D01*
X138637217Y-99320704D02*
X138675312Y-99244514D01*
X138675312Y-99244514D02*
X138675312Y-99168323D01*
X138675312Y-99168323D02*
X138637217Y-99092133D01*
X138637217Y-99092133D02*
X138599122Y-99054038D01*
X138599122Y-99054038D02*
X138522931Y-99015942D01*
X138522931Y-99015942D02*
X138370550Y-98977847D01*
X138370550Y-98977847D02*
X138294360Y-98939752D01*
X138294360Y-98939752D02*
X138256265Y-98901657D01*
X138256265Y-98901657D02*
X138218169Y-98825466D01*
X138218169Y-98825466D02*
X138218169Y-98749276D01*
X138218169Y-98749276D02*
X138256265Y-98673085D01*
X138256265Y-98673085D02*
X138294360Y-98634990D01*
X138294360Y-98634990D02*
X138370550Y-98596895D01*
X138370550Y-98596895D02*
X138561027Y-98596895D01*
X138561027Y-98596895D02*
X138675312Y-98634990D01*
X138941979Y-98596895D02*
X139132455Y-99396895D01*
X139132455Y-99396895D02*
X139284836Y-98825466D01*
X139284836Y-98825466D02*
X139437217Y-99396895D01*
X139437217Y-99396895D02*
X139627694Y-98596895D01*
X138256265Y-96896895D02*
X138256265Y-96096895D01*
X138256265Y-96096895D02*
X138561027Y-96096895D01*
X138561027Y-96096895D02*
X138637217Y-96134990D01*
X138637217Y-96134990D02*
X138675312Y-96173085D01*
X138675312Y-96173085D02*
X138713408Y-96249276D01*
X138713408Y-96249276D02*
X138713408Y-96363561D01*
X138713408Y-96363561D02*
X138675312Y-96439752D01*
X138675312Y-96439752D02*
X138637217Y-96477847D01*
X138637217Y-96477847D02*
X138561027Y-96515942D01*
X138561027Y-96515942D02*
X138256265Y-96515942D01*
X138980074Y-96096895D02*
X139170550Y-96896895D01*
X139170550Y-96896895D02*
X139322931Y-96325466D01*
X139322931Y-96325466D02*
X139475312Y-96896895D01*
X139475312Y-96896895D02*
X139665789Y-96096895D01*
X140427694Y-96896895D02*
X140161027Y-96515942D01*
X139970551Y-96896895D02*
X139970551Y-96096895D01*
X139970551Y-96096895D02*
X140275313Y-96096895D01*
X140275313Y-96096895D02*
X140351503Y-96134990D01*
X140351503Y-96134990D02*
X140389598Y-96173085D01*
X140389598Y-96173085D02*
X140427694Y-96249276D01*
X140427694Y-96249276D02*
X140427694Y-96363561D01*
X140427694Y-96363561D02*
X140389598Y-96439752D01*
X140389598Y-96439752D02*
X140351503Y-96477847D01*
X140351503Y-96477847D02*
X140275313Y-96515942D01*
X140275313Y-96515942D02*
X139970551Y-96515942D01*
X138675312Y-93634990D02*
X138599122Y-93596895D01*
X138599122Y-93596895D02*
X138484836Y-93596895D01*
X138484836Y-93596895D02*
X138370550Y-93634990D01*
X138370550Y-93634990D02*
X138294360Y-93711180D01*
X138294360Y-93711180D02*
X138256265Y-93787371D01*
X138256265Y-93787371D02*
X138218169Y-93939752D01*
X138218169Y-93939752D02*
X138218169Y-94054038D01*
X138218169Y-94054038D02*
X138256265Y-94206419D01*
X138256265Y-94206419D02*
X138294360Y-94282609D01*
X138294360Y-94282609D02*
X138370550Y-94358800D01*
X138370550Y-94358800D02*
X138484836Y-94396895D01*
X138484836Y-94396895D02*
X138561027Y-94396895D01*
X138561027Y-94396895D02*
X138675312Y-94358800D01*
X138675312Y-94358800D02*
X138713408Y-94320704D01*
X138713408Y-94320704D02*
X138713408Y-94054038D01*
X138713408Y-94054038D02*
X138561027Y-94054038D01*
X139056265Y-94396895D02*
X139056265Y-93596895D01*
X139056265Y-93596895D02*
X139513408Y-94396895D01*
X139513408Y-94396895D02*
X139513408Y-93596895D01*
X139894360Y-94396895D02*
X139894360Y-93596895D01*
X139894360Y-93596895D02*
X140084836Y-93596895D01*
X140084836Y-93596895D02*
X140199122Y-93634990D01*
X140199122Y-93634990D02*
X140275312Y-93711180D01*
X140275312Y-93711180D02*
X140313407Y-93787371D01*
X140313407Y-93787371D02*
X140351503Y-93939752D01*
X140351503Y-93939752D02*
X140351503Y-94054038D01*
X140351503Y-94054038D02*
X140313407Y-94206419D01*
X140313407Y-94206419D02*
X140275312Y-94282609D01*
X140275312Y-94282609D02*
X140199122Y-94358800D01*
X140199122Y-94358800D02*
X140084836Y-94396895D01*
X140084836Y-94396895D02*
X139894360Y-94396895D01*
X201320704Y-84786591D02*
X201358800Y-84824687D01*
X201358800Y-84824687D02*
X201396895Y-84938972D01*
X201396895Y-84938972D02*
X201396895Y-85015163D01*
X201396895Y-85015163D02*
X201358800Y-85129449D01*
X201358800Y-85129449D02*
X201282609Y-85205639D01*
X201282609Y-85205639D02*
X201206419Y-85243734D01*
X201206419Y-85243734D02*
X201054038Y-85281830D01*
X201054038Y-85281830D02*
X200939752Y-85281830D01*
X200939752Y-85281830D02*
X200787371Y-85243734D01*
X200787371Y-85243734D02*
X200711180Y-85205639D01*
X200711180Y-85205639D02*
X200634990Y-85129449D01*
X200634990Y-85129449D02*
X200596895Y-85015163D01*
X200596895Y-85015163D02*
X200596895Y-84938972D01*
X200596895Y-84938972D02*
X200634990Y-84824687D01*
X200634990Y-84824687D02*
X200673085Y-84786591D01*
X201396895Y-84062782D02*
X201396895Y-84443734D01*
X201396895Y-84443734D02*
X200596895Y-84443734D01*
X201396895Y-83796115D02*
X200596895Y-83796115D01*
X201396895Y-83338972D02*
X200939752Y-83681830D01*
X200596895Y-83338972D02*
X201054038Y-83796115D01*
X198858800Y-85281830D02*
X198896895Y-85167544D01*
X198896895Y-85167544D02*
X198896895Y-84977068D01*
X198896895Y-84977068D02*
X198858800Y-84900877D01*
X198858800Y-84900877D02*
X198820704Y-84862782D01*
X198820704Y-84862782D02*
X198744514Y-84824687D01*
X198744514Y-84824687D02*
X198668323Y-84824687D01*
X198668323Y-84824687D02*
X198592133Y-84862782D01*
X198592133Y-84862782D02*
X198554038Y-84900877D01*
X198554038Y-84900877D02*
X198515942Y-84977068D01*
X198515942Y-84977068D02*
X198477847Y-85129449D01*
X198477847Y-85129449D02*
X198439752Y-85205639D01*
X198439752Y-85205639D02*
X198401657Y-85243734D01*
X198401657Y-85243734D02*
X198325466Y-85281830D01*
X198325466Y-85281830D02*
X198249276Y-85281830D01*
X198249276Y-85281830D02*
X198173085Y-85243734D01*
X198173085Y-85243734D02*
X198134990Y-85205639D01*
X198134990Y-85205639D02*
X198096895Y-85129449D01*
X198096895Y-85129449D02*
X198096895Y-84938972D01*
X198096895Y-84938972D02*
X198134990Y-84824687D01*
X198896895Y-84481829D02*
X198096895Y-84481829D01*
X198096895Y-84481829D02*
X198096895Y-84291353D01*
X198096895Y-84291353D02*
X198134990Y-84177067D01*
X198134990Y-84177067D02*
X198211180Y-84100877D01*
X198211180Y-84100877D02*
X198287371Y-84062782D01*
X198287371Y-84062782D02*
X198439752Y-84024686D01*
X198439752Y-84024686D02*
X198554038Y-84024686D01*
X198554038Y-84024686D02*
X198706419Y-84062782D01*
X198706419Y-84062782D02*
X198782609Y-84100877D01*
X198782609Y-84100877D02*
X198858800Y-84177067D01*
X198858800Y-84177067D02*
X198896895Y-84291353D01*
X198896895Y-84291353D02*
X198896895Y-84481829D01*
X198668323Y-83719925D02*
X198668323Y-83338972D01*
X198896895Y-83796115D02*
X198096895Y-83529448D01*
X198096895Y-83529448D02*
X198896895Y-83262782D01*
X196396895Y-85243734D02*
X195596895Y-85243734D01*
X195596895Y-85243734D02*
X195596895Y-84938972D01*
X195596895Y-84938972D02*
X195634990Y-84862782D01*
X195634990Y-84862782D02*
X195673085Y-84824687D01*
X195673085Y-84824687D02*
X195749276Y-84786591D01*
X195749276Y-84786591D02*
X195863561Y-84786591D01*
X195863561Y-84786591D02*
X195939752Y-84824687D01*
X195939752Y-84824687D02*
X195977847Y-84862782D01*
X195977847Y-84862782D02*
X196015942Y-84938972D01*
X196015942Y-84938972D02*
X196015942Y-85243734D01*
X195596895Y-84519925D02*
X196396895Y-84329449D01*
X196396895Y-84329449D02*
X195825466Y-84177068D01*
X195825466Y-84177068D02*
X196396895Y-84024687D01*
X196396895Y-84024687D02*
X195596895Y-83834211D01*
X196396895Y-83072305D02*
X196015942Y-83338972D01*
X196396895Y-83529448D02*
X195596895Y-83529448D01*
X195596895Y-83529448D02*
X195596895Y-83224686D01*
X195596895Y-83224686D02*
X195634990Y-83148496D01*
X195634990Y-83148496D02*
X195673085Y-83110401D01*
X195673085Y-83110401D02*
X195749276Y-83072305D01*
X195749276Y-83072305D02*
X195863561Y-83072305D01*
X195863561Y-83072305D02*
X195939752Y-83110401D01*
X195939752Y-83110401D02*
X195977847Y-83148496D01*
X195977847Y-83148496D02*
X196015942Y-83224686D01*
X196015942Y-83224686D02*
X196015942Y-83529448D01*
X193134990Y-84824687D02*
X193096895Y-84900877D01*
X193096895Y-84900877D02*
X193096895Y-85015163D01*
X193096895Y-85015163D02*
X193134990Y-85129449D01*
X193134990Y-85129449D02*
X193211180Y-85205639D01*
X193211180Y-85205639D02*
X193287371Y-85243734D01*
X193287371Y-85243734D02*
X193439752Y-85281830D01*
X193439752Y-85281830D02*
X193554038Y-85281830D01*
X193554038Y-85281830D02*
X193706419Y-85243734D01*
X193706419Y-85243734D02*
X193782609Y-85205639D01*
X193782609Y-85205639D02*
X193858800Y-85129449D01*
X193858800Y-85129449D02*
X193896895Y-85015163D01*
X193896895Y-85015163D02*
X193896895Y-84938972D01*
X193896895Y-84938972D02*
X193858800Y-84824687D01*
X193858800Y-84824687D02*
X193820704Y-84786591D01*
X193820704Y-84786591D02*
X193554038Y-84786591D01*
X193554038Y-84786591D02*
X193554038Y-84938972D01*
X193896895Y-84443734D02*
X193096895Y-84443734D01*
X193096895Y-84443734D02*
X193896895Y-83986591D01*
X193896895Y-83986591D02*
X193096895Y-83986591D01*
X193896895Y-83605639D02*
X193096895Y-83605639D01*
X193096895Y-83605639D02*
X193096895Y-83415163D01*
X193096895Y-83415163D02*
X193134990Y-83300877D01*
X193134990Y-83300877D02*
X193211180Y-83224687D01*
X193211180Y-83224687D02*
X193287371Y-83186592D01*
X193287371Y-83186592D02*
X193439752Y-83148496D01*
X193439752Y-83148496D02*
X193554038Y-83148496D01*
X193554038Y-83148496D02*
X193706419Y-83186592D01*
X193706419Y-83186592D02*
X193782609Y-83224687D01*
X193782609Y-83224687D02*
X193858800Y-83300877D01*
X193858800Y-83300877D02*
X193896895Y-83415163D01*
X193896895Y-83415163D02*
X193896895Y-83605639D01*
X189134990Y-84824687D02*
X189096895Y-84900877D01*
X189096895Y-84900877D02*
X189096895Y-85015163D01*
X189096895Y-85015163D02*
X189134990Y-85129449D01*
X189134990Y-85129449D02*
X189211180Y-85205639D01*
X189211180Y-85205639D02*
X189287371Y-85243734D01*
X189287371Y-85243734D02*
X189439752Y-85281830D01*
X189439752Y-85281830D02*
X189554038Y-85281830D01*
X189554038Y-85281830D02*
X189706419Y-85243734D01*
X189706419Y-85243734D02*
X189782609Y-85205639D01*
X189782609Y-85205639D02*
X189858800Y-85129449D01*
X189858800Y-85129449D02*
X189896895Y-85015163D01*
X189896895Y-85015163D02*
X189896895Y-84938972D01*
X189896895Y-84938972D02*
X189858800Y-84824687D01*
X189858800Y-84824687D02*
X189820704Y-84786591D01*
X189820704Y-84786591D02*
X189554038Y-84786591D01*
X189554038Y-84786591D02*
X189554038Y-84938972D01*
X189896895Y-84443734D02*
X189096895Y-84443734D01*
X189096895Y-84443734D02*
X189896895Y-83986591D01*
X189896895Y-83986591D02*
X189096895Y-83986591D01*
X189896895Y-83605639D02*
X189096895Y-83605639D01*
X189096895Y-83605639D02*
X189096895Y-83415163D01*
X189096895Y-83415163D02*
X189134990Y-83300877D01*
X189134990Y-83300877D02*
X189211180Y-83224687D01*
X189211180Y-83224687D02*
X189287371Y-83186592D01*
X189287371Y-83186592D02*
X189439752Y-83148496D01*
X189439752Y-83148496D02*
X189554038Y-83148496D01*
X189554038Y-83148496D02*
X189706419Y-83186592D01*
X189706419Y-83186592D02*
X189782609Y-83224687D01*
X189782609Y-83224687D02*
X189858800Y-83300877D01*
X189858800Y-83300877D02*
X189896895Y-83415163D01*
X189896895Y-83415163D02*
X189896895Y-83605639D01*
X187396895Y-85243734D02*
X186596895Y-85243734D01*
X186596895Y-85243734D02*
X186596895Y-84938972D01*
X186596895Y-84938972D02*
X186634990Y-84862782D01*
X186634990Y-84862782D02*
X186673085Y-84824687D01*
X186673085Y-84824687D02*
X186749276Y-84786591D01*
X186749276Y-84786591D02*
X186863561Y-84786591D01*
X186863561Y-84786591D02*
X186939752Y-84824687D01*
X186939752Y-84824687D02*
X186977847Y-84862782D01*
X186977847Y-84862782D02*
X187015942Y-84938972D01*
X187015942Y-84938972D02*
X187015942Y-85243734D01*
X186596895Y-84519925D02*
X187396895Y-84329449D01*
X187396895Y-84329449D02*
X186825466Y-84177068D01*
X186825466Y-84177068D02*
X187396895Y-84024687D01*
X187396895Y-84024687D02*
X186596895Y-83834211D01*
X187396895Y-83072305D02*
X187015942Y-83338972D01*
X187396895Y-83529448D02*
X186596895Y-83529448D01*
X186596895Y-83529448D02*
X186596895Y-83224686D01*
X186596895Y-83224686D02*
X186634990Y-83148496D01*
X186634990Y-83148496D02*
X186673085Y-83110401D01*
X186673085Y-83110401D02*
X186749276Y-83072305D01*
X186749276Y-83072305D02*
X186863561Y-83072305D01*
X186863561Y-83072305D02*
X186939752Y-83110401D01*
X186939752Y-83110401D02*
X186977847Y-83148496D01*
X186977847Y-83148496D02*
X187015942Y-83224686D01*
X187015942Y-83224686D02*
X187015942Y-83529448D01*
X184896895Y-85243734D02*
X184096895Y-85243734D01*
X184096895Y-85243734D02*
X184096895Y-84938972D01*
X184096895Y-84938972D02*
X184134990Y-84862782D01*
X184134990Y-84862782D02*
X184173085Y-84824687D01*
X184173085Y-84824687D02*
X184249276Y-84786591D01*
X184249276Y-84786591D02*
X184363561Y-84786591D01*
X184363561Y-84786591D02*
X184439752Y-84824687D01*
X184439752Y-84824687D02*
X184477847Y-84862782D01*
X184477847Y-84862782D02*
X184515942Y-84938972D01*
X184515942Y-84938972D02*
X184515942Y-85243734D01*
X184096895Y-84519925D02*
X184896895Y-84329449D01*
X184896895Y-84329449D02*
X184325466Y-84177068D01*
X184325466Y-84177068D02*
X184896895Y-84024687D01*
X184896895Y-84024687D02*
X184096895Y-83834211D01*
X184896895Y-83529448D02*
X184096895Y-83529448D01*
X184096895Y-83529448D02*
X184668323Y-83262782D01*
X184668323Y-83262782D02*
X184096895Y-82996115D01*
X184096895Y-82996115D02*
X184896895Y-82996115D01*
D11*
X125819819Y-113353094D02*
X124819819Y-113353094D01*
X124819819Y-113353094D02*
X124819819Y-113114999D01*
X124819819Y-113114999D02*
X124867438Y-112972142D01*
X124867438Y-112972142D02*
X124962676Y-112876904D01*
X124962676Y-112876904D02*
X125057914Y-112829285D01*
X125057914Y-112829285D02*
X125248390Y-112781666D01*
X125248390Y-112781666D02*
X125391247Y-112781666D01*
X125391247Y-112781666D02*
X125581723Y-112829285D01*
X125581723Y-112829285D02*
X125676961Y-112876904D01*
X125676961Y-112876904D02*
X125772200Y-112972142D01*
X125772200Y-112972142D02*
X125819819Y-113114999D01*
X125819819Y-113114999D02*
X125819819Y-113353094D01*
X125819819Y-111829285D02*
X125819819Y-112400713D01*
X125819819Y-112114999D02*
X124819819Y-112114999D01*
X124819819Y-112114999D02*
X124962676Y-112210237D01*
X124962676Y-112210237D02*
X125057914Y-112305475D01*
X125057914Y-112305475D02*
X125105533Y-112400713D01*
X123238095Y-117954819D02*
X123238095Y-116954819D01*
X123809523Y-117954819D02*
X123380952Y-117383390D01*
X123809523Y-116954819D02*
X123238095Y-117526247D01*
X201764819Y-96246666D02*
X201288628Y-96579999D01*
X201764819Y-96818094D02*
X200764819Y-96818094D01*
X200764819Y-96818094D02*
X200764819Y-96437142D01*
X200764819Y-96437142D02*
X200812438Y-96341904D01*
X200812438Y-96341904D02*
X200860057Y-96294285D01*
X200860057Y-96294285D02*
X200955295Y-96246666D01*
X200955295Y-96246666D02*
X201098152Y-96246666D01*
X201098152Y-96246666D02*
X201193390Y-96294285D01*
X201193390Y-96294285D02*
X201241009Y-96341904D01*
X201241009Y-96341904D02*
X201288628Y-96437142D01*
X201288628Y-96437142D02*
X201288628Y-96818094D01*
X200764819Y-95389523D02*
X200764819Y-95579999D01*
X200764819Y-95579999D02*
X200812438Y-95675237D01*
X200812438Y-95675237D02*
X200860057Y-95722856D01*
X200860057Y-95722856D02*
X201002914Y-95818094D01*
X201002914Y-95818094D02*
X201193390Y-95865713D01*
X201193390Y-95865713D02*
X201574342Y-95865713D01*
X201574342Y-95865713D02*
X201669580Y-95818094D01*
X201669580Y-95818094D02*
X201717200Y-95770475D01*
X201717200Y-95770475D02*
X201764819Y-95675237D01*
X201764819Y-95675237D02*
X201764819Y-95484761D01*
X201764819Y-95484761D02*
X201717200Y-95389523D01*
X201717200Y-95389523D02*
X201669580Y-95341904D01*
X201669580Y-95341904D02*
X201574342Y-95294285D01*
X201574342Y-95294285D02*
X201336247Y-95294285D01*
X201336247Y-95294285D02*
X201241009Y-95341904D01*
X201241009Y-95341904D02*
X201193390Y-95389523D01*
X201193390Y-95389523D02*
X201145771Y-95484761D01*
X201145771Y-95484761D02*
X201145771Y-95675237D01*
X201145771Y-95675237D02*
X201193390Y-95770475D01*
X201193390Y-95770475D02*
X201241009Y-95818094D01*
X201241009Y-95818094D02*
X201336247Y-95865713D01*
X198514819Y-96246666D02*
X198038628Y-96579999D01*
X198514819Y-96818094D02*
X197514819Y-96818094D01*
X197514819Y-96818094D02*
X197514819Y-96437142D01*
X197514819Y-96437142D02*
X197562438Y-96341904D01*
X197562438Y-96341904D02*
X197610057Y-96294285D01*
X197610057Y-96294285D02*
X197705295Y-96246666D01*
X197705295Y-96246666D02*
X197848152Y-96246666D01*
X197848152Y-96246666D02*
X197943390Y-96294285D01*
X197943390Y-96294285D02*
X197991009Y-96341904D01*
X197991009Y-96341904D02*
X198038628Y-96437142D01*
X198038628Y-96437142D02*
X198038628Y-96818094D01*
X197514819Y-95341904D02*
X197514819Y-95818094D01*
X197514819Y-95818094D02*
X197991009Y-95865713D01*
X197991009Y-95865713D02*
X197943390Y-95818094D01*
X197943390Y-95818094D02*
X197895771Y-95722856D01*
X197895771Y-95722856D02*
X197895771Y-95484761D01*
X197895771Y-95484761D02*
X197943390Y-95389523D01*
X197943390Y-95389523D02*
X197991009Y-95341904D01*
X197991009Y-95341904D02*
X198086247Y-95294285D01*
X198086247Y-95294285D02*
X198324342Y-95294285D01*
X198324342Y-95294285D02*
X198419580Y-95341904D01*
X198419580Y-95341904D02*
X198467200Y-95389523D01*
X198467200Y-95389523D02*
X198514819Y-95484761D01*
X198514819Y-95484761D02*
X198514819Y-95722856D01*
X198514819Y-95722856D02*
X198467200Y-95818094D01*
X198467200Y-95818094D02*
X198419580Y-95865713D01*
D10*
X98498095Y-91107419D02*
X98498095Y-91916942D01*
X98498095Y-91916942D02*
X98545714Y-92012180D01*
X98545714Y-92012180D02*
X98593333Y-92059800D01*
X98593333Y-92059800D02*
X98688571Y-92107419D01*
X98688571Y-92107419D02*
X98879047Y-92107419D01*
X98879047Y-92107419D02*
X98974285Y-92059800D01*
X98974285Y-92059800D02*
X99021904Y-92012180D01*
X99021904Y-92012180D02*
X99069523Y-91916942D01*
X99069523Y-91916942D02*
X99069523Y-91107419D01*
X99974285Y-91440752D02*
X99974285Y-92107419D01*
X99736190Y-91059800D02*
X99498095Y-91774085D01*
X99498095Y-91774085D02*
X100117142Y-91774085D01*
D11*
X115949047Y-112431009D02*
X116091904Y-112478628D01*
X116091904Y-112478628D02*
X116139523Y-112526247D01*
X116139523Y-112526247D02*
X116187142Y-112621485D01*
X116187142Y-112621485D02*
X116187142Y-112764342D01*
X116187142Y-112764342D02*
X116139523Y-112859580D01*
X116139523Y-112859580D02*
X116091904Y-112907200D01*
X116091904Y-112907200D02*
X115996666Y-112954819D01*
X115996666Y-112954819D02*
X115615714Y-112954819D01*
X115615714Y-112954819D02*
X115615714Y-111954819D01*
X115615714Y-111954819D02*
X115949047Y-111954819D01*
X115949047Y-111954819D02*
X116044285Y-112002438D01*
X116044285Y-112002438D02*
X116091904Y-112050057D01*
X116091904Y-112050057D02*
X116139523Y-112145295D01*
X116139523Y-112145295D02*
X116139523Y-112240533D01*
X116139523Y-112240533D02*
X116091904Y-112335771D01*
X116091904Y-112335771D02*
X116044285Y-112383390D01*
X116044285Y-112383390D02*
X115949047Y-112431009D01*
X115949047Y-112431009D02*
X115615714Y-112431009D01*
X116520476Y-111954819D02*
X117187142Y-111954819D01*
X117187142Y-111954819D02*
X116520476Y-112954819D01*
X116520476Y-112954819D02*
X117187142Y-112954819D01*
X118091904Y-112954819D02*
X117520476Y-112954819D01*
X117806190Y-112954819D02*
X117806190Y-111954819D01*
X117806190Y-111954819D02*
X117710952Y-112097676D01*
X117710952Y-112097676D02*
X117615714Y-112192914D01*
X117615714Y-112192914D02*
X117520476Y-112240533D01*
X118573866Y-115880951D02*
X118573866Y-115119047D01*
X118954819Y-115499999D02*
X118192914Y-115499999D01*
X125633333Y-99559580D02*
X125585714Y-99607200D01*
X125585714Y-99607200D02*
X125442857Y-99654819D01*
X125442857Y-99654819D02*
X125347619Y-99654819D01*
X125347619Y-99654819D02*
X125204762Y-99607200D01*
X125204762Y-99607200D02*
X125109524Y-99511961D01*
X125109524Y-99511961D02*
X125061905Y-99416723D01*
X125061905Y-99416723D02*
X125014286Y-99226247D01*
X125014286Y-99226247D02*
X125014286Y-99083390D01*
X125014286Y-99083390D02*
X125061905Y-98892914D01*
X125061905Y-98892914D02*
X125109524Y-98797676D01*
X125109524Y-98797676D02*
X125204762Y-98702438D01*
X125204762Y-98702438D02*
X125347619Y-98654819D01*
X125347619Y-98654819D02*
X125442857Y-98654819D01*
X125442857Y-98654819D02*
X125585714Y-98702438D01*
X125585714Y-98702438D02*
X125633333Y-98750057D01*
X126490476Y-98988152D02*
X126490476Y-99654819D01*
X126252381Y-98607200D02*
X126014286Y-99321485D01*
X126014286Y-99321485D02*
X126633333Y-99321485D01*
X130633333Y-102359580D02*
X130585714Y-102407200D01*
X130585714Y-102407200D02*
X130442857Y-102454819D01*
X130442857Y-102454819D02*
X130347619Y-102454819D01*
X130347619Y-102454819D02*
X130204762Y-102407200D01*
X130204762Y-102407200D02*
X130109524Y-102311961D01*
X130109524Y-102311961D02*
X130061905Y-102216723D01*
X130061905Y-102216723D02*
X130014286Y-102026247D01*
X130014286Y-102026247D02*
X130014286Y-101883390D01*
X130014286Y-101883390D02*
X130061905Y-101692914D01*
X130061905Y-101692914D02*
X130109524Y-101597676D01*
X130109524Y-101597676D02*
X130204762Y-101502438D01*
X130204762Y-101502438D02*
X130347619Y-101454819D01*
X130347619Y-101454819D02*
X130442857Y-101454819D01*
X130442857Y-101454819D02*
X130585714Y-101502438D01*
X130585714Y-101502438D02*
X130633333Y-101550057D01*
X130966667Y-101454819D02*
X131585714Y-101454819D01*
X131585714Y-101454819D02*
X131252381Y-101835771D01*
X131252381Y-101835771D02*
X131395238Y-101835771D01*
X131395238Y-101835771D02*
X131490476Y-101883390D01*
X131490476Y-101883390D02*
X131538095Y-101931009D01*
X131538095Y-101931009D02*
X131585714Y-102026247D01*
X131585714Y-102026247D02*
X131585714Y-102264342D01*
X131585714Y-102264342D02*
X131538095Y-102359580D01*
X131538095Y-102359580D02*
X131490476Y-102407200D01*
X131490476Y-102407200D02*
X131395238Y-102454819D01*
X131395238Y-102454819D02*
X131109524Y-102454819D01*
X131109524Y-102454819D02*
X131014286Y-102407200D01*
X131014286Y-102407200D02*
X130966667Y-102359580D01*
X130833333Y-96959580D02*
X130785714Y-97007200D01*
X130785714Y-97007200D02*
X130642857Y-97054819D01*
X130642857Y-97054819D02*
X130547619Y-97054819D01*
X130547619Y-97054819D02*
X130404762Y-97007200D01*
X130404762Y-97007200D02*
X130309524Y-96911961D01*
X130309524Y-96911961D02*
X130261905Y-96816723D01*
X130261905Y-96816723D02*
X130214286Y-96626247D01*
X130214286Y-96626247D02*
X130214286Y-96483390D01*
X130214286Y-96483390D02*
X130261905Y-96292914D01*
X130261905Y-96292914D02*
X130309524Y-96197676D01*
X130309524Y-96197676D02*
X130404762Y-96102438D01*
X130404762Y-96102438D02*
X130547619Y-96054819D01*
X130547619Y-96054819D02*
X130642857Y-96054819D01*
X130642857Y-96054819D02*
X130785714Y-96102438D01*
X130785714Y-96102438D02*
X130833333Y-96150057D01*
X131738095Y-96054819D02*
X131261905Y-96054819D01*
X131261905Y-96054819D02*
X131214286Y-96531009D01*
X131214286Y-96531009D02*
X131261905Y-96483390D01*
X131261905Y-96483390D02*
X131357143Y-96435771D01*
X131357143Y-96435771D02*
X131595238Y-96435771D01*
X131595238Y-96435771D02*
X131690476Y-96483390D01*
X131690476Y-96483390D02*
X131738095Y-96531009D01*
X131738095Y-96531009D02*
X131785714Y-96626247D01*
X131785714Y-96626247D02*
X131785714Y-96864342D01*
X131785714Y-96864342D02*
X131738095Y-96959580D01*
X131738095Y-96959580D02*
X131690476Y-97007200D01*
X131690476Y-97007200D02*
X131595238Y-97054819D01*
X131595238Y-97054819D02*
X131357143Y-97054819D01*
X131357143Y-97054819D02*
X131261905Y-97007200D01*
X131261905Y-97007200D02*
X131214286Y-96959580D01*
X132923333Y-116704819D02*
X132590000Y-116228628D01*
X132351905Y-116704819D02*
X132351905Y-115704819D01*
X132351905Y-115704819D02*
X132732857Y-115704819D01*
X132732857Y-115704819D02*
X132828095Y-115752438D01*
X132828095Y-115752438D02*
X132875714Y-115800057D01*
X132875714Y-115800057D02*
X132923333Y-115895295D01*
X132923333Y-115895295D02*
X132923333Y-116038152D01*
X132923333Y-116038152D02*
X132875714Y-116133390D01*
X132875714Y-116133390D02*
X132828095Y-116181009D01*
X132828095Y-116181009D02*
X132732857Y-116228628D01*
X132732857Y-116228628D02*
X132351905Y-116228628D01*
X133780476Y-116038152D02*
X133780476Y-116704819D01*
X133542381Y-115657200D02*
X133304286Y-116371485D01*
X133304286Y-116371485D02*
X133923333Y-116371485D01*
X132673333Y-113454819D02*
X132340000Y-112978628D01*
X132101905Y-113454819D02*
X132101905Y-112454819D01*
X132101905Y-112454819D02*
X132482857Y-112454819D01*
X132482857Y-112454819D02*
X132578095Y-112502438D01*
X132578095Y-112502438D02*
X132625714Y-112550057D01*
X132625714Y-112550057D02*
X132673333Y-112645295D01*
X132673333Y-112645295D02*
X132673333Y-112788152D01*
X132673333Y-112788152D02*
X132625714Y-112883390D01*
X132625714Y-112883390D02*
X132578095Y-112931009D01*
X132578095Y-112931009D02*
X132482857Y-112978628D01*
X132482857Y-112978628D02*
X132101905Y-112978628D01*
X133006667Y-112454819D02*
X133625714Y-112454819D01*
X133625714Y-112454819D02*
X133292381Y-112835771D01*
X133292381Y-112835771D02*
X133435238Y-112835771D01*
X133435238Y-112835771D02*
X133530476Y-112883390D01*
X133530476Y-112883390D02*
X133578095Y-112931009D01*
X133578095Y-112931009D02*
X133625714Y-113026247D01*
X133625714Y-113026247D02*
X133625714Y-113264342D01*
X133625714Y-113264342D02*
X133578095Y-113359580D01*
X133578095Y-113359580D02*
X133530476Y-113407200D01*
X133530476Y-113407200D02*
X133435238Y-113454819D01*
X133435238Y-113454819D02*
X133149524Y-113454819D01*
X133149524Y-113454819D02*
X133054286Y-113407200D01*
X133054286Y-113407200D02*
X133006667Y-113359580D01*
X117238095Y-85454819D02*
X117238095Y-84454819D01*
X117238095Y-84931009D02*
X117809523Y-84931009D01*
X117809523Y-85454819D02*
X117809523Y-84454819D01*
X118761904Y-84454819D02*
X118285714Y-84454819D01*
X118285714Y-84454819D02*
X118238095Y-84931009D01*
X118238095Y-84931009D02*
X118285714Y-84883390D01*
X118285714Y-84883390D02*
X118380952Y-84835771D01*
X118380952Y-84835771D02*
X118619047Y-84835771D01*
X118619047Y-84835771D02*
X118714285Y-84883390D01*
X118714285Y-84883390D02*
X118761904Y-84931009D01*
X118761904Y-84931009D02*
X118809523Y-85026247D01*
X118809523Y-85026247D02*
X118809523Y-85264342D01*
X118809523Y-85264342D02*
X118761904Y-85359580D01*
X118761904Y-85359580D02*
X118714285Y-85407200D01*
X118714285Y-85407200D02*
X118619047Y-85454819D01*
X118619047Y-85454819D02*
X118380952Y-85454819D01*
X118380952Y-85454819D02*
X118285714Y-85407200D01*
X118285714Y-85407200D02*
X118238095Y-85359580D01*
X85033333Y-99959580D02*
X84985714Y-100007200D01*
X84985714Y-100007200D02*
X84842857Y-100054819D01*
X84842857Y-100054819D02*
X84747619Y-100054819D01*
X84747619Y-100054819D02*
X84604762Y-100007200D01*
X84604762Y-100007200D02*
X84509524Y-99911961D01*
X84509524Y-99911961D02*
X84461905Y-99816723D01*
X84461905Y-99816723D02*
X84414286Y-99626247D01*
X84414286Y-99626247D02*
X84414286Y-99483390D01*
X84414286Y-99483390D02*
X84461905Y-99292914D01*
X84461905Y-99292914D02*
X84509524Y-99197676D01*
X84509524Y-99197676D02*
X84604762Y-99102438D01*
X84604762Y-99102438D02*
X84747619Y-99054819D01*
X84747619Y-99054819D02*
X84842857Y-99054819D01*
X84842857Y-99054819D02*
X84985714Y-99102438D01*
X84985714Y-99102438D02*
X85033333Y-99150057D01*
X85414286Y-99150057D02*
X85461905Y-99102438D01*
X85461905Y-99102438D02*
X85557143Y-99054819D01*
X85557143Y-99054819D02*
X85795238Y-99054819D01*
X85795238Y-99054819D02*
X85890476Y-99102438D01*
X85890476Y-99102438D02*
X85938095Y-99150057D01*
X85938095Y-99150057D02*
X85985714Y-99245295D01*
X85985714Y-99245295D02*
X85985714Y-99340533D01*
X85985714Y-99340533D02*
X85938095Y-99483390D01*
X85938095Y-99483390D02*
X85366667Y-100054819D01*
X85366667Y-100054819D02*
X85985714Y-100054819D01*
X85033333Y-89559580D02*
X84985714Y-89607200D01*
X84985714Y-89607200D02*
X84842857Y-89654819D01*
X84842857Y-89654819D02*
X84747619Y-89654819D01*
X84747619Y-89654819D02*
X84604762Y-89607200D01*
X84604762Y-89607200D02*
X84509524Y-89511961D01*
X84509524Y-89511961D02*
X84461905Y-89416723D01*
X84461905Y-89416723D02*
X84414286Y-89226247D01*
X84414286Y-89226247D02*
X84414286Y-89083390D01*
X84414286Y-89083390D02*
X84461905Y-88892914D01*
X84461905Y-88892914D02*
X84509524Y-88797676D01*
X84509524Y-88797676D02*
X84604762Y-88702438D01*
X84604762Y-88702438D02*
X84747619Y-88654819D01*
X84747619Y-88654819D02*
X84842857Y-88654819D01*
X84842857Y-88654819D02*
X84985714Y-88702438D01*
X84985714Y-88702438D02*
X85033333Y-88750057D01*
X85985714Y-89654819D02*
X85414286Y-89654819D01*
X85700000Y-89654819D02*
X85700000Y-88654819D01*
X85700000Y-88654819D02*
X85604762Y-88797676D01*
X85604762Y-88797676D02*
X85509524Y-88892914D01*
X85509524Y-88892914D02*
X85414286Y-88940533D01*
X84238095Y-110454819D02*
X84238095Y-109454819D01*
X84238095Y-109931009D02*
X84809523Y-109931009D01*
X84809523Y-110454819D02*
X84809523Y-109454819D01*
X85190476Y-109454819D02*
X85809523Y-109454819D01*
X85809523Y-109454819D02*
X85476190Y-109835771D01*
X85476190Y-109835771D02*
X85619047Y-109835771D01*
X85619047Y-109835771D02*
X85714285Y-109883390D01*
X85714285Y-109883390D02*
X85761904Y-109931009D01*
X85761904Y-109931009D02*
X85809523Y-110026247D01*
X85809523Y-110026247D02*
X85809523Y-110264342D01*
X85809523Y-110264342D02*
X85761904Y-110359580D01*
X85761904Y-110359580D02*
X85714285Y-110407200D01*
X85714285Y-110407200D02*
X85619047Y-110454819D01*
X85619047Y-110454819D02*
X85333333Y-110454819D01*
X85333333Y-110454819D02*
X85238095Y-110407200D01*
X85238095Y-110407200D02*
X85190476Y-110359580D01*
X84238095Y-82054819D02*
X84238095Y-81054819D01*
X84238095Y-81531009D02*
X84809523Y-81531009D01*
X84809523Y-82054819D02*
X84809523Y-81054819D01*
X85714285Y-81388152D02*
X85714285Y-82054819D01*
X85476190Y-81007200D02*
X85238095Y-81721485D01*
X85238095Y-81721485D02*
X85857142Y-81721485D01*
D10*
X172707419Y-79011904D02*
X173516942Y-79011904D01*
X173516942Y-79011904D02*
X173612180Y-78964285D01*
X173612180Y-78964285D02*
X173659800Y-78916666D01*
X173659800Y-78916666D02*
X173707419Y-78821428D01*
X173707419Y-78821428D02*
X173707419Y-78630952D01*
X173707419Y-78630952D02*
X173659800Y-78535714D01*
X173659800Y-78535714D02*
X173612180Y-78488095D01*
X173612180Y-78488095D02*
X173516942Y-78440476D01*
X173516942Y-78440476D02*
X172707419Y-78440476D01*
X172802657Y-78011904D02*
X172755038Y-77964285D01*
X172755038Y-77964285D02*
X172707419Y-77869047D01*
X172707419Y-77869047D02*
X172707419Y-77630952D01*
X172707419Y-77630952D02*
X172755038Y-77535714D01*
X172755038Y-77535714D02*
X172802657Y-77488095D01*
X172802657Y-77488095D02*
X172897895Y-77440476D01*
X172897895Y-77440476D02*
X172993133Y-77440476D01*
X172993133Y-77440476D02*
X173135990Y-77488095D01*
X173135990Y-77488095D02*
X173707419Y-78059523D01*
X173707419Y-78059523D02*
X173707419Y-77440476D01*
X168838095Y-104707419D02*
X168838095Y-105516942D01*
X168838095Y-105516942D02*
X168885714Y-105612180D01*
X168885714Y-105612180D02*
X168933333Y-105659800D01*
X168933333Y-105659800D02*
X169028571Y-105707419D01*
X169028571Y-105707419D02*
X169219047Y-105707419D01*
X169219047Y-105707419D02*
X169314285Y-105659800D01*
X169314285Y-105659800D02*
X169361904Y-105612180D01*
X169361904Y-105612180D02*
X169409523Y-105516942D01*
X169409523Y-105516942D02*
X169409523Y-104707419D01*
X170409523Y-105707419D02*
X169838095Y-105707419D01*
X170123809Y-105707419D02*
X170123809Y-104707419D01*
X170123809Y-104707419D02*
X170028571Y-104850276D01*
X170028571Y-104850276D02*
X169933333Y-104945514D01*
X169933333Y-104945514D02*
X169838095Y-104993133D01*
D11*
X166753333Y-96954819D02*
X166420000Y-96478628D01*
X166181905Y-96954819D02*
X166181905Y-95954819D01*
X166181905Y-95954819D02*
X166562857Y-95954819D01*
X166562857Y-95954819D02*
X166658095Y-96002438D01*
X166658095Y-96002438D02*
X166705714Y-96050057D01*
X166705714Y-96050057D02*
X166753333Y-96145295D01*
X166753333Y-96145295D02*
X166753333Y-96288152D01*
X166753333Y-96288152D02*
X166705714Y-96383390D01*
X166705714Y-96383390D02*
X166658095Y-96431009D01*
X166658095Y-96431009D02*
X166562857Y-96478628D01*
X166562857Y-96478628D02*
X166181905Y-96478628D01*
X167705714Y-96954819D02*
X167134286Y-96954819D01*
X167420000Y-96954819D02*
X167420000Y-95954819D01*
X167420000Y-95954819D02*
X167324762Y-96097676D01*
X167324762Y-96097676D02*
X167229524Y-96192914D01*
X167229524Y-96192914D02*
X167134286Y-96240533D01*
X199238095Y-114054819D02*
X199238095Y-113054819D01*
X199238095Y-113531009D02*
X199809523Y-113531009D01*
X199809523Y-114054819D02*
X199809523Y-113054819D01*
X200809523Y-114054819D02*
X200238095Y-114054819D01*
X200523809Y-114054819D02*
X200523809Y-113054819D01*
X200523809Y-113054819D02*
X200428571Y-113197676D01*
X200428571Y-113197676D02*
X200333333Y-113292914D01*
X200333333Y-113292914D02*
X200238095Y-113340533D01*
D10*
X98288095Y-110807419D02*
X98288095Y-111616942D01*
X98288095Y-111616942D02*
X98335714Y-111712180D01*
X98335714Y-111712180D02*
X98383333Y-111759800D01*
X98383333Y-111759800D02*
X98478571Y-111807419D01*
X98478571Y-111807419D02*
X98669047Y-111807419D01*
X98669047Y-111807419D02*
X98764285Y-111759800D01*
X98764285Y-111759800D02*
X98811904Y-111712180D01*
X98811904Y-111712180D02*
X98859523Y-111616942D01*
X98859523Y-111616942D02*
X98859523Y-110807419D01*
X99240476Y-110807419D02*
X99859523Y-110807419D01*
X99859523Y-110807419D02*
X99526190Y-111188371D01*
X99526190Y-111188371D02*
X99669047Y-111188371D01*
X99669047Y-111188371D02*
X99764285Y-111235990D01*
X99764285Y-111235990D02*
X99811904Y-111283609D01*
X99811904Y-111283609D02*
X99859523Y-111378847D01*
X99859523Y-111378847D02*
X99859523Y-111616942D01*
X99859523Y-111616942D02*
X99811904Y-111712180D01*
X99811904Y-111712180D02*
X99764285Y-111759800D01*
X99764285Y-111759800D02*
X99669047Y-111807419D01*
X99669047Y-111807419D02*
X99383333Y-111807419D01*
X99383333Y-111807419D02*
X99288095Y-111759800D01*
X99288095Y-111759800D02*
X99240476Y-111712180D01*
D11*
X133550057Y-108595238D02*
X133502438Y-108690476D01*
X133502438Y-108690476D02*
X133407200Y-108785714D01*
X133407200Y-108785714D02*
X133264342Y-108928571D01*
X133264342Y-108928571D02*
X133216723Y-109023809D01*
X133216723Y-109023809D02*
X133216723Y-109119047D01*
X133454819Y-109071428D02*
X133407200Y-109166666D01*
X133407200Y-109166666D02*
X133311961Y-109261904D01*
X133311961Y-109261904D02*
X133121485Y-109309523D01*
X133121485Y-109309523D02*
X132788152Y-109309523D01*
X132788152Y-109309523D02*
X132597676Y-109261904D01*
X132597676Y-109261904D02*
X132502438Y-109166666D01*
X132502438Y-109166666D02*
X132454819Y-109071428D01*
X132454819Y-109071428D02*
X132454819Y-108880952D01*
X132454819Y-108880952D02*
X132502438Y-108785714D01*
X132502438Y-108785714D02*
X132597676Y-108690476D01*
X132597676Y-108690476D02*
X132788152Y-108642857D01*
X132788152Y-108642857D02*
X133121485Y-108642857D01*
X133121485Y-108642857D02*
X133311961Y-108690476D01*
X133311961Y-108690476D02*
X133407200Y-108785714D01*
X133407200Y-108785714D02*
X133454819Y-108880952D01*
X133454819Y-108880952D02*
X133454819Y-109071428D01*
X132550057Y-108261904D02*
X132502438Y-108214285D01*
X132502438Y-108214285D02*
X132454819Y-108119047D01*
X132454819Y-108119047D02*
X132454819Y-107880952D01*
X132454819Y-107880952D02*
X132502438Y-107785714D01*
X132502438Y-107785714D02*
X132550057Y-107738095D01*
X132550057Y-107738095D02*
X132645295Y-107690476D01*
X132645295Y-107690476D02*
X132740533Y-107690476D01*
X132740533Y-107690476D02*
X132883390Y-107738095D01*
X132883390Y-107738095D02*
X133454819Y-108309523D01*
X133454819Y-108309523D02*
X133454819Y-107690476D01*
X199238095Y-80254819D02*
X199238095Y-79254819D01*
X199238095Y-79731009D02*
X199809523Y-79731009D01*
X199809523Y-80254819D02*
X199809523Y-79254819D01*
X200238095Y-79350057D02*
X200285714Y-79302438D01*
X200285714Y-79302438D02*
X200380952Y-79254819D01*
X200380952Y-79254819D02*
X200619047Y-79254819D01*
X200619047Y-79254819D02*
X200714285Y-79302438D01*
X200714285Y-79302438D02*
X200761904Y-79350057D01*
X200761904Y-79350057D02*
X200809523Y-79445295D01*
X200809523Y-79445295D02*
X200809523Y-79540533D01*
X200809523Y-79540533D02*
X200761904Y-79683390D01*
X200761904Y-79683390D02*
X200190476Y-80254819D01*
X200190476Y-80254819D02*
X200809523Y-80254819D01*
%TO.C,D1*%
D12*
X124245000Y-110495000D02*
X126485000Y-110495000D01*
X126485000Y-114735000D01*
X124245000Y-114735000D01*
X124245000Y-110495000D01*
X125365000Y-109845000D02*
X125365000Y-110495000D01*
X124245000Y-113895000D02*
X126485000Y-113895000D01*
X124245000Y-114015000D02*
X126485000Y-114015000D01*
X124245000Y-114135000D02*
X126485000Y-114135000D01*
X125365000Y-115385000D02*
X125365000Y-114735000D01*
%TO.C,R6*%
X199940000Y-92810000D02*
X202680000Y-92810000D01*
X202680000Y-99350000D01*
X199940000Y-99350000D01*
X199940000Y-92810000D01*
X201310000Y-100120000D02*
X201310000Y-99350000D01*
X201310000Y-92040000D02*
X201310000Y-92810000D01*
%TO.C,R5*%
X196690000Y-92810000D02*
X199430000Y-92810000D01*
X199430000Y-99350000D01*
X196690000Y-99350000D01*
X196690000Y-92810000D01*
X198060000Y-100120000D02*
X198060000Y-99350000D01*
X198060000Y-92040000D02*
X198060000Y-92810000D01*
%TO.C,U4*%
D10*
X89300000Y-97000000D02*
X109300000Y-97000000D01*
X109300000Y-99000000D01*
X89300000Y-99000000D01*
X89300000Y-97000000D01*
X89260000Y-84300000D02*
X109260000Y-84300000D01*
X109260000Y-86300000D01*
X89260000Y-86300000D01*
X89260000Y-84300000D01*
%TO.C,BZ1*%
D12*
X122930000Y-112500000D02*
G75*
G02*
X110730000Y-112500000I-6100000J0D01*
G01*
X110730000Y-112500000D02*
G75*
G02*
X122930000Y-112500000I6100000J0D01*
G01*
%TO.C,J2*%
X104410000Y-100120000D02*
X104410000Y-101500000D01*
X103030000Y-100120000D02*
X104410000Y-100120000D01*
X101760000Y-102880000D02*
X94030000Y-102880000D01*
X101760000Y-100120000D02*
X101760000Y-102880000D01*
X101760000Y-100120000D02*
X94030000Y-100120000D01*
X94030000Y-100120000D02*
X94030000Y-102880000D01*
%TO.C,C4*%
X128620000Y-100500000D02*
G75*
G02*
X123380000Y-100500000I-2620000J0D01*
G01*
X123380000Y-100500000D02*
G75*
G02*
X128620000Y-100500000I2620000J0D01*
G01*
%TO.C,C3*%
X133620000Y-103500000D02*
G75*
G02*
X128380000Y-103500000I-2620000J0D01*
G01*
X128380000Y-103500000D02*
G75*
G02*
X133620000Y-103500000I2620000J0D01*
G01*
%TO.C,C5*%
X133620000Y-98000000D02*
G75*
G02*
X128380000Y-98000000I-2620000J0D01*
G01*
X128380000Y-98000000D02*
G75*
G02*
X133620000Y-98000000I2620000J0D01*
G01*
%TO.C,J5*%
X137330000Y-95190000D02*
X137330000Y-105410000D01*
X137330000Y-92590000D02*
X137330000Y-93920000D01*
X136000000Y-92590000D02*
X137330000Y-92590000D01*
X134670000Y-105410000D02*
X137330000Y-105410000D01*
X134670000Y-95190000D02*
X137330000Y-95190000D01*
X134670000Y-95190000D02*
X134670000Y-105410000D01*
%TO.C,R4*%
X129820000Y-114880000D02*
X136360000Y-114880000D01*
X136360000Y-117620000D01*
X129820000Y-117620000D01*
X129820000Y-114880000D01*
X137130000Y-116250000D02*
X136360000Y-116250000D01*
X129050000Y-116250000D02*
X129820000Y-116250000D01*
%TO.C,R3*%
X129130000Y-113000000D02*
X129900000Y-113000000D01*
X137210000Y-113000000D02*
X136440000Y-113000000D01*
X129900000Y-111630000D02*
X136440000Y-111630000D01*
X136440000Y-114370000D01*
X129900000Y-114370000D01*
X129900000Y-111630000D01*
%TO.C,J3*%
X93970000Y-80370000D02*
X93970000Y-83130000D01*
X101700000Y-80370000D02*
X93970000Y-80370000D01*
X101700000Y-80370000D02*
X101700000Y-83130000D01*
X101700000Y-83130000D02*
X93970000Y-83130000D01*
X102970000Y-80370000D02*
X104350000Y-80370000D01*
X104350000Y-80370000D02*
X104350000Y-81750000D01*
%TO.C,C2*%
X87870000Y-101000000D02*
G75*
G02*
X82630000Y-101000000I-2620000J0D01*
G01*
X82630000Y-101000000D02*
G75*
G02*
X87870000Y-101000000I2620000J0D01*
G01*
%TO.C,J1*%
X184630000Y-74362500D02*
X191950000Y-74362500D01*
X184630000Y-82402500D02*
X184630000Y-74362500D01*
X185438000Y-77782500D02*
X184630000Y-77782500D01*
X185438000Y-78782500D02*
X184630000Y-78782500D01*
X186707000Y-76482500D02*
X184630000Y-76482500D01*
X190370000Y-76482500D02*
X187793000Y-76482500D01*
X190370000Y-77782500D02*
X189062000Y-77782500D01*
X190370000Y-78782500D02*
X189062000Y-78782500D01*
X192550000Y-74362500D02*
X195370000Y-74362500D01*
X195370000Y-74362500D02*
X195370000Y-82402500D01*
X195370000Y-76482500D02*
X194130000Y-76482500D01*
X195370000Y-77782500D02*
X194130000Y-77782500D01*
X195370000Y-78782500D02*
X194130000Y-78782500D01*
X195370000Y-82402500D02*
X184630000Y-82402500D01*
X192250000Y-74362500D02*
X191810000Y-73752500D01*
X192690000Y-73752500D01*
X192250000Y-74362500D01*
G36*
X192250000Y-74362500D02*
G01*
X191810000Y-73752500D01*
X192690000Y-73752500D01*
X192250000Y-74362500D01*
G37*
%TO.C,C1*%
X87870000Y-90500000D02*
G75*
G02*
X82630000Y-90500000I-2620000J0D01*
G01*
X82630000Y-90500000D02*
G75*
G02*
X87870000Y-90500000I2620000J0D01*
G01*
%TO.C,U2*%
D10*
X166000000Y-67750000D02*
X170750000Y-67750000D01*
X170750000Y-69750000D01*
X166000000Y-69750000D01*
X166000000Y-67750000D01*
X166000000Y-86750000D02*
X170750000Y-86750000D01*
X170750000Y-88750000D01*
X166000000Y-88750000D01*
X166000000Y-86750000D01*
X176750000Y-67750000D02*
X181500000Y-67750000D01*
X181500000Y-69750000D01*
X176750000Y-69750000D01*
X176750000Y-67750000D01*
X176750000Y-86750000D02*
X181500000Y-86750000D01*
X181500000Y-88750000D01*
X176750000Y-88750000D01*
X176750000Y-86750000D01*
%TO.C,U1*%
X150750000Y-91250000D02*
X188250000Y-91250000D01*
X188250000Y-93250000D01*
X150750000Y-93250000D01*
X150750000Y-91250000D01*
X150750000Y-116250000D02*
X188250000Y-116250000D01*
X188250000Y-118250000D01*
X150750000Y-118250000D01*
X150750000Y-116250000D01*
%TO.C,J7*%
D12*
X183040000Y-88880000D02*
X183040000Y-87500000D01*
X184420000Y-88880000D02*
X183040000Y-88880000D01*
X185690000Y-86120000D02*
X190880000Y-86120000D01*
X185690000Y-88880000D02*
X185690000Y-86120000D01*
X185690000Y-88880000D02*
X190880000Y-88880000D01*
X190880000Y-88880000D02*
X190880000Y-86120000D01*
%TO.C,J6*%
X192170000Y-86170000D02*
X193500000Y-86170000D01*
X192170000Y-87500000D02*
X192170000Y-86170000D01*
X194770000Y-86170000D02*
X202450000Y-86170000D01*
X194770000Y-88830000D02*
X194770000Y-86170000D01*
X194770000Y-88830000D02*
X202450000Y-88830000D01*
X202450000Y-88830000D02*
X202450000Y-86170000D01*
%TO.C,R1*%
X162880000Y-96500000D02*
X163650000Y-96500000D01*
X170960000Y-96500000D02*
X170190000Y-96500000D01*
X163650000Y-95130000D02*
X170190000Y-95130000D01*
X170190000Y-97870000D01*
X163650000Y-97870000D01*
X163650000Y-95130000D01*
%TO.C,U3*%
D10*
X89300000Y-104000000D02*
X109300000Y-104000000D01*
X109300000Y-106000000D01*
X89300000Y-106000000D01*
X89300000Y-104000000D01*
X89340000Y-116700000D02*
X109340000Y-116700000D01*
X109340000Y-118700000D01*
X89340000Y-118700000D01*
X89340000Y-116700000D01*
%TO.C,Q2*%
D12*
X131300000Y-106790000D02*
X127700000Y-106790000D01*
X129500000Y-111240000D02*
G75*
G02*
X127661522Y-106801522I0J2600000D01*
G01*
X131338478Y-106801522D02*
G75*
G02*
X129500000Y-111240001I-1838478J-1838478D01*
G01*
%TD*%
M02*
